<svg xmlns="http://www.w3.org/2000/svg" viewBox="0 0 645 190"><defs><style>.cls-1{fill:#333;}.cls-2{fill:#fff;}</style></defs><title>bigSub</title><g id="Layer_2" data-name="Layer 2"><g id="objects"><path class="cls-1" d="M329,80l216-4V70s0-2,3-2h50s1,0,1,2v4h27s19,6,19,18-1,37-1,37-10,61-78,61H377l-203-2s-84-7-115-28c0,0-4,21-5,21H33V157H18v-4H11v-3L0,145l10-7v-5h8v-2s11-6,11-7S15,101,15,87c0,0-1-2,5-2H44l13,17s75-15,88-16,77-3,77-3,12-36,15-41,14-7,14-7h1V18h2l1-15h-3V0h9V3h-2V34h3V17h2V6h4V34h6V28h-2V24h6v3h-1v7l46,1s5,7,5,22A206.72,206.72,0,0,0,329,80Z"/><ellipse class="cls-1" cx="4" cy="125" rx="4" ry="17"/><ellipse class="cls-1" cx="4" cy="164" rx="4" ry="17"/><rect class="cls-2" x="304.5" y="48.5" width="20" height="4"/><rect class="cls-2" x="215.5" y="102.5" width="15" height="6"/><rect class="cls-2" x="234.5" y="102.5" width="15" height="6"/><rect class="cls-2" x="253.5" y="102.5" width="15" height="6"/><rect class="cls-2" x="272.5" y="102.5" width="15" height="6"/><rect class="cls-2" x="292.5" y="102.5" width="15" height="6"/><rect class="cls-2" x="311.5" y="102.5" width="15" height="6"/><rect class="cls-2" x="330.5" y="102.5" width="15" height="6"/><rect class="cls-2" x="371.5" y="102.5" width="15" height="6"/><rect class="cls-2" x="390.5" y="102.5" width="15" height="6"/><rect class="cls-2" x="409.5" y="102.5" width="15" height="6"/><rect class="cls-2" x="456.5" y="102.5" width="15" height="6"/><rect class="cls-2" x="475.5" y="102.5" width="15" height="6"/><rect class="cls-2" x="494.5" y="102.5" width="15" height="6"/><rect class="cls-2" x="514.5" y="102.5" width="15" height="6"/><rect class="cls-2" x="533.5" y="102.5" width="15" height="6"/><rect class="cls-2" x="552.5" y="102.5" width="15" height="6"/><rect class="cls-2" x="572.5" y="102.5" width="15" height="6"/></g></g></svg>