<svg xmlns="http://www.w3.org/2000/svg" xmlns:xlink="http://www.w3.org/1999/xlink" viewBox="0 0 240.25 164.08"><defs><style>.cls-1{opacity:0.75;}.cls-2{fill:#ddd;}.cls-3{fill:#fff;}.cls-4{fill:#bbb;opacity:0.5;}</style><symbol id="cloud1" data-name="cloud1" viewBox="0 0 240.25 164.08"><g id="cloud1-3" data-name="cloud1"><g class="cls-1"><path class="cls-2" d="M97.64,35.93a42.45,42.45,0,0,1,46.89.88,34.72,34.72,0,0,1,16.75-15.72,51.27,51.27,0,0,0-85.14,3.35A36.6,36.6,0,0,1,97.64,35.93Z"/><path class="cls-2" d="M70.61,97.27q-1,0-2-.06h0a34.68,34.68,0,0,1,1.77,6.35,37.14,37.14,0,0,0,12.71-6.29h0c-.33-.6-.65-1.22-1-1.85A36.35,36.35,0,0,1,70.61,97.27Z"/><path class="cls-2" d="M36.68,74.44c-.12-.3-.24-.6-.35-.9h0c-.19.29-.37.59-.54.89Z"/><path class="cls-2" d="M68.57,52.14c0-.29,0-.58,0-.87a51,51,0,0,1,7.58-26.83A37.4,37.4,0,0,0,70.61,24,36.63,36.63,0,0,0,36.33,73.54,46.55,46.55,0,0,1,68.57,52.14Z"/><path class="cls-2" d="M68.57,52.14h0a47,47,0,0,1,14.21-.06h0A42.66,42.66,0,0,1,97.64,35.93a36.6,36.6,0,0,0-21.5-11.49,51,51,0,0,0-7.58,26.83C68.56,51.56,68.57,51.85,68.57,52.14Z"/><path class="cls-2" d="M68.57,97.21q1,.06,2,.06A36.35,36.35,0,0,0,82.1,95.42a42.21,42.21,0,0,1-4-14.31,51.09,51.09,0,0,1-9.56-29,46.55,46.55,0,0,0-32.24,21.4c.11.3.23.6.35.9A35.46,35.46,0,0,1,68.57,97.21Z"/><path class="cls-2" d="M78,74.42q-.09-1.31-.09-2.64a42.28,42.28,0,0,1,4.84-19.7h0a47,47,0,0,0-14.21.06h0a51.09,51.09,0,0,0,9.56,29c-.12-1.33-.19-2.69-.19-4Q77.94,75.72,78,74.42Z"/><path class="cls-2" d="M208.9,45h0A34.57,34.57,0,0,1,163,85.1h0a42.48,42.48,0,0,1,16.58,23.75C195.38,114.14,213,115.7,215,97.27c0,0,9,14.65,23.57,0h0A44.58,44.58,0,0,0,208.9,45Z"/><path class="cls-2" d="M195.13,42.78A44.39,44.39,0,0,1,208.89,45a34.59,34.59,0,0,0-47.61-23.86,51.08,51.08,0,0,1,9.81,28.73A44.37,44.37,0,0,1,195.13,42.78Z"/><path class="cls-2" d="M144.53,36.81a42.62,42.62,0,0,1,16.36,22h0a44.75,44.75,0,0,1,10.19-9h0a51.08,51.08,0,0,0-9.81-28.73A34.72,34.72,0,0,0,144.53,36.81Z"/><path class="cls-2" d="M171.09,49.82c0,.48,0,1,0,1.45a51,51,0,0,1-8.26,27.91,42.87,42.87,0,0,1-.62,5.36h0l.79.55A34.57,34.57,0,0,0,208.89,45a44.62,44.62,0,0,0-37.8,4.87Z"/><path class="cls-2" d="M162.81,74.42q.09,1.31.09,2.64c0,.71,0,1.42-.05,2.12a51,51,0,0,0,8.26-27.91c0-.48,0-1,0-1.45h0a44.75,44.75,0,0,0-10.19,9h0a42.57,42.57,0,0,1,2,12.94Q162.9,73.12,162.81,74.42Z"/><path class="cls-3" d="M120.42,34.57a42.24,42.24,0,0,1,22.3,6.33,32.55,32.55,0,0,1,1.81-4.09,42.45,42.45,0,0,0-46.89-.88,39.69,39.69,0,0,1,2.88,3.59A42.35,42.35,0,0,1,120.42,34.57Z"/><path class="cls-3" d="M85.69,52.61a42.54,42.54,0,0,1,14.83-13.09,39.69,39.69,0,0,0-2.88-3.59A42.66,42.66,0,0,0,82.78,52.08c1,.14,1.94.31,2.9.52Z"/><path class="cls-3" d="M78,74.42a42.2,42.2,0,0,1,7.66-21.81h0c-1-.21-1.92-.38-2.9-.52a42.28,42.28,0,0,0-4.84,19.7Q77.94,73.12,78,74.42Z"/><path class="cls-3" d="M159.56,60.52h0c.43-.56.87-1.12,1.33-1.67a42.62,42.62,0,0,0-16.36-22,32.55,32.55,0,0,0-1.81,4.09A42.62,42.62,0,0,1,159.56,60.52Z"/><path class="cls-3" d="M159.56,60.52a42.12,42.12,0,0,1,3.25,13.9q.09-1.31.09-2.64a42.57,42.57,0,0,0-2-12.94c-.46.55-.9,1.11-1.33,1.67Z"/><path class="cls-2" d="M157,98.72a146.18,146.18,0,0,0,22.68,10.14,42.48,42.48,0,0,0-16.58-23.75h0l-.85-.33A42.08,42.08,0,0,1,157,98.72Z"/><path class="cls-2" d="M162.23,84.54a1.85,1.85,0,0,1,0,.23l.85.33-.79-.55Z"/><path class="cls-2" d="M89.35,100.75h0a43.06,43.06,0,0,1-4.82-6.24c-.8.33-1.61.63-2.44.9.3.63.62,1.25,1,1.85h0C83.2,97.37,85.57,98.79,89.35,100.75Z"/><path class="cls-2" d="M79.38,82.78c-.43-.55-.84-1.1-1.25-1.67a42.21,42.21,0,0,0,4,14.31c.83-.27,1.64-.57,2.44-.9A42.21,42.21,0,0,1,79.38,82.78Z"/><path class="cls-2" d="M78,74.42q-.09,1.31-.09,2.64c0,1.36.07,2.72.19,4,.41.57.82,1.12,1.25,1.67A41.92,41.92,0,0,1,78,74.42Z"/><path class="cls-2" d="M161.16,83.84h0c.37.22.72.46,1.07.69a42.87,42.87,0,0,0,.62-5.36c-.27.42-.54.83-.82,1.23C161.79,81.57,161.49,82.72,161.16,83.84Z"/><path class="cls-2" d="M162.81,74.42a42.1,42.1,0,0,1-.78,6c.28-.4.55-.81.82-1.23,0-.7.05-1.41.05-2.12Q162.9,75.72,162.81,74.42Z"/><path class="cls-2" d="M107.11,63.58h0a46.65,46.65,0,0,1,12.42,18.26,42.55,42.55,0,0,1,31.78-2.55c.08-.45.16-.89.26-1.32h0a34.61,34.61,0,0,1-8.86-37.07,42.46,42.46,0,0,0-42.2-1.38,36.5,36.5,0,0,1,6.72,21.13C107.24,61.64,107.18,62.61,107.11,63.58Z"/><path class="cls-2" d="M101.47,99.16a51,51,0,0,1-12.41-6.88,35.18,35.18,0,0,1-4.52,2.24,43.06,43.06,0,0,0,4.82,6.24c2.55,1.31,5.74,2.88,9.33,4.46A40,40,0,0,1,101.47,99.16Z"/><path class="cls-2" d="M119.54,81.85a46.65,46.65,0,0,0-12.42-18.26h0a36.6,36.6,0,0,1-18,28.7,51,51,0,0,0,12.41,6.88h0A42.66,42.66,0,0,1,119.54,81.85Z"/><path class="cls-2" d="M107.24,60.65a36.5,36.5,0,0,0-6.72-21.13A42.54,42.54,0,0,0,85.69,52.61a46.3,46.3,0,0,1,21.42,11C107.18,62.61,107.24,61.64,107.24,60.65Z"/><path class="cls-2" d="M79.38,82.78a42.21,42.21,0,0,0,5.16,11.74,35.18,35.18,0,0,0,4.52-2.24A51.23,51.23,0,0,1,79.38,82.78Z"/><path class="cls-2" d="M89.06,92.28a36.6,36.6,0,0,0,18-28.7,46.3,46.3,0,0,0-21.42-11A42.2,42.2,0,0,0,78,74.42a41.92,41.92,0,0,0,1.35,8.36A51.23,51.23,0,0,0,89.06,92.28Z"/><path class="cls-2" d="M154.54,80.46a37.12,37.12,0,0,1-3-2.49h0c-.1.43-.18.87-.26,1.32,1.09.34,2.16.72,3.22,1.16Z"/><path class="cls-2" d="M151.58,78a44.45,44.45,0,0,1,8-17.45h0A42.62,42.62,0,0,0,142.72,40.9,34.61,34.61,0,0,0,151.58,78Z"/><path class="cls-2" d="M161.16,83.84c.33-1.12.63-2.27.87-3.43-.65.93-1.32,1.84-2,2.73C160.39,83.37,160.78,83.6,161.16,83.84Z"/><path class="cls-2" d="M151.58,78a37.12,37.12,0,0,0,3,2.49h0A41.23,41.23,0,0,1,160,83.14h0c.71-.89,1.38-1.8,2-2.73a42.1,42.1,0,0,0,.78-6,42.12,42.12,0,0,0-3.25-13.9h0A44.45,44.45,0,0,0,151.58,78Z"/><path class="cls-2" d="M152.37,99.77a42.45,42.45,0,0,1-24.26,13.79h0c10.57.76,20.1-2,24.74-12.1-.19-.55-.37-1.12-.53-1.68Z"/><path class="cls-2" d="M152.37,99.78c.16.56.34,1.13.53,1.68a28.12,28.12,0,0,0,1.51-4.19c-.65.87-1.33,1.69-2,2.5Z"/><path class="cls-2" d="M161,84.27a42.39,42.39,0,0,1-6.63,13s.92.56,2.55,1.45h0a42.08,42.08,0,0,0,5.23-14Z"/><path class="cls-2" d="M161.16,83.84c0,.15-.08.29-.12.43l1.15.5a1.85,1.85,0,0,0,0-.23c-.35-.23-.7-.47-1.07-.69Z"/><path class="cls-2" d="M152.37,99.77a43.2,43.2,0,0,1-1.51-7.67,51.06,51.06,0,0,1-28.59,10.39h0a45.93,45.93,0,0,1-2,9.93,60.94,60.94,0,0,0,7.87,1.14A42.45,42.45,0,0,0,152.37,99.77Z"/><path class="cls-2" d="M150.6,87.31a44.11,44.11,0,0,1,.72-8,42.55,42.55,0,0,0-31.78,2.55,46.65,46.65,0,0,1,2.93,16.3c0,1.47-.06,2.91-.2,4.34A51.06,51.06,0,0,0,150.86,92.1h0A44.32,44.32,0,0,1,150.6,87.31Z"/><path class="cls-2" d="M101.47,99.16a40,40,0,0,0-2.78,6.06,111.46,111.46,0,0,0,21.55,7.2,45.93,45.93,0,0,0,2-9.93h0c-.81,0-1.62.06-2.44.06A51.3,51.3,0,0,1,101.47,99.16Z"/><path class="cls-2" d="M119.54,81.85a42.66,42.66,0,0,0-18.07,17.3h0a51.3,51.3,0,0,0,18.36,3.39c.82,0,1.63,0,2.44-.06.14-1.43.2-2.87.2-4.34A46.65,46.65,0,0,0,119.54,81.85Z"/><path class="cls-2" d="M150.86,92.1a43.2,43.2,0,0,0,1.51,7.67c.71-.81,1.39-1.63,2-2.5h0a42.39,42.39,0,0,0,6.63-13c-.48-.21-.95-.44-1.41-.67A51.88,51.88,0,0,1,150.86,92.1Z"/><path class="cls-2" d="M154.54,80.46c-1.06-.44-2.13-.82-3.22-1.16a44.6,44.6,0,0,0-.46,12.79h0a51.88,51.88,0,0,0,8.77-8.5,34.47,34.47,0,0,1-5.09-3.14Z"/><path class="cls-2" d="M160,83.14c-.12.16-.24.31-.37.46.46.23.93.46,1.41.67,0-.14.07-.28.12-.43C160.78,83.6,160.39,83.37,160,83.14Z"/><path class="cls-2" d="M154.54,80.46h0a34.47,34.47,0,0,0,5.09,3.14c.13-.15.25-.3.37-.46h0A41.23,41.23,0,0,0,154.54,80.46Z"/><path class="cls-2" d="M29.46,94.26a46.32,46.32,0,0,1,6.33-19.83h-.34a35.21,35.21,0,0,0-21.74,7.46A96.69,96.69,0,0,0,29.46,94.26Z"/><path class="cls-2" d="M70.34,103.56a34.68,34.68,0,0,0-1.77-6.35h0A36.64,36.64,0,0,1,36.68,74.44h-.89a46.32,46.32,0,0,0-6.33,19.83C40.31,101.14,55.42,107.57,70.34,103.56Z"/><path class="cls-2" d="M36.68,74.44A36.64,36.64,0,0,0,68.57,97.21,35.46,35.46,0,0,0,36.68,74.44Z"/><path class="cls-2" d="M96.1,119.83a42.93,42.93,0,0,1,.66-7.49A42.58,42.58,0,0,1,83.05,97.27h0a37.14,37.14,0,0,1-12.71,6.29A35.44,35.44,0,0,1,54.7,139.65a46.65,46.65,0,0,0,45.44-1.71,42.7,42.7,0,0,1-4-18.11Z"/><path class="cls-4" d="M96.1,119.83a42.93,42.93,0,0,1,.66-7.49A42.58,42.58,0,0,1,83.05,97.27h0a37.14,37.14,0,0,1-12.71,6.29A35.44,35.44,0,0,1,54.7,139.65a46.65,46.65,0,0,0,45.44-1.71,42.7,42.7,0,0,1-4-18.11Z"/><path class="cls-2" d="M215,97.27c-2,18.43-19.59,16.87-35.33,11.59a41.09,41.09,0,0,1,1.09,5.56,43.9,43.9,0,0,1,.34,5.41,42.69,42.69,0,0,1-1,9.39,44.56,44.56,0,0,0,58.51-31.94C224,111.92,215,97.27,215,97.27Z"/><path class="cls-4" d="M215,97.27c-2,18.43-19.59,16.87-35.33,11.59a41.09,41.09,0,0,1,1.09,5.56,43.9,43.9,0,0,1,.34,5.41,42.69,42.69,0,0,1-1,9.39,44.56,44.56,0,0,0,58.51-31.94C224,111.92,215,97.27,215,97.27Z"/><path class="cls-2" d="M153.65,103.53h0a42.39,42.39,0,0,1-33.22,16c-1,0-2.06-.05-3.08-.12h0a46.73,46.73,0,0,1-17.2,18.51A42.5,42.5,0,0,0,180,129.22,44.65,44.65,0,0,1,153.65,103.53Z"/><path class="cls-4" d="M153.65,103.53h0a42.39,42.39,0,0,1-33.22,16c-1,0-2.06-.05-3.08-.12h0a46.73,46.73,0,0,1-17.2,18.51A42.5,42.5,0,0,0,180,129.22,44.65,44.65,0,0,1,153.65,103.53Z"/><path class="cls-2" d="M117.34,119.43h0a42.27,42.27,0,0,1-20.58-7.08,42.93,42.93,0,0,0-.66,7.49,42.7,42.7,0,0,0,4,18.11A46.73,46.73,0,0,0,117.34,119.43Z"/><path class="cls-4" d="M117.34,119.43h0a42.27,42.27,0,0,1-20.58-7.08,42.93,42.93,0,0,0-.66,7.49,42.7,42.7,0,0,0,4,18.11A46.73,46.73,0,0,0,117.34,119.43Z"/><path class="cls-2" d="M180.73,114.42a41.09,41.09,0,0,0-1.09-5.56A146.18,146.18,0,0,1,157,98.72a41.8,41.8,0,0,1-3.32,4.8h0A44.65,44.65,0,0,0,180,129.22a42.69,42.69,0,0,0,1-9.39A43.9,43.9,0,0,0,180.73,114.42Z"/><path class="cls-4" d="M180.73,114.42a41.09,41.09,0,0,0-1.09-5.56A146.18,146.18,0,0,1,157,98.72a41.8,41.8,0,0,1-3.32,4.8h0A44.65,44.65,0,0,0,180,129.22a42.69,42.69,0,0,0,1-9.39A43.9,43.9,0,0,0,180.73,114.42Z"/><path class="cls-2" d="M97.84,107.77h0a43.29,43.29,0,0,1-8.48-7h0c-3.78-2-6.15-3.38-6.3-3.48h0a42.58,42.58,0,0,0,13.71,15.07h0A43.39,43.39,0,0,1,97.84,107.77Z"/><path class="cls-4" d="M97.84,107.77h0a43.29,43.29,0,0,1-8.48-7h0c-3.78-2-6.15-3.38-6.3-3.48h0a42.58,42.58,0,0,0,13.71,15.07h0A43.39,43.39,0,0,1,97.84,107.77Z"/><path class="cls-2" d="M89.36,100.76a43.29,43.29,0,0,0,8.48,7c.25-.86.54-1.71.85-2.55C95.1,103.64,91.91,102.07,89.36,100.76Z"/><path class="cls-4" d="M89.36,100.76a43.29,43.29,0,0,0,8.48,7c.25-.86.54-1.71.85-2.55C95.1,103.64,91.91,102.07,89.36,100.76Z"/><path class="cls-2" d="M128.16,113.56h0a42.38,42.38,0,0,1-7.69.71l-.8,0h0a46.63,46.63,0,0,1-2.06,4.75c-.06.13-.13.27-.21.41,1,.07,2,.12,3.08.12a42.39,42.39,0,0,0,33.22-16c-.27-.68-.51-1.36-.74-2.06C148.26,111.55,138.73,114.32,128.16,113.56Z"/><path class="cls-4" d="M128.16,113.56h0a42.38,42.38,0,0,1-7.69.71l-.8,0h0a46.63,46.63,0,0,1-2.06,4.75c-.06.13-.13.27-.21.41,1,.07,2,.12,3.08.12a42.39,42.39,0,0,0,33.22-16c-.27-.68-.51-1.36-.74-2.06C148.26,111.55,138.73,114.32,128.16,113.56Z"/><path class="cls-2" d="M119.61,114.26h0a42.27,42.27,0,0,1-21.78-6.48h0a43.39,43.39,0,0,0-1.08,4.57h0a42.27,42.27,0,0,0,20.58,7.08c.08-.14.15-.28.21-.41A46.63,46.63,0,0,0,119.61,114.26Z"/><path class="cls-4" d="M119.61,114.26h0a42.27,42.27,0,0,1-21.78-6.48h0a43.39,43.39,0,0,0-1.08,4.57h0a42.27,42.27,0,0,0,20.58,7.08c.08-.14.15-.28.21-.41A46.63,46.63,0,0,0,119.61,114.26Z"/><path class="cls-2" d="M154.41,97.27h0a28.12,28.12,0,0,1-1.51,4.19c.23.7.47,1.38.74,2.06a41.8,41.8,0,0,0,3.32-4.8h0C155.33,97.83,154.41,97.27,154.41,97.27Z"/><path class="cls-4" d="M154.41,97.27h0a28.12,28.12,0,0,1-1.51,4.19c.23.7.47,1.38.74,2.06a41.8,41.8,0,0,0,3.32-4.8h0C155.33,97.83,154.41,97.27,154.41,97.27Z"/><path class="cls-2" d="M119.62,114.25l.8,0a42.38,42.38,0,0,0,7.69-.71,60.94,60.94,0,0,1-7.87-1.14C120.05,113,119.84,113.65,119.62,114.25Z"/><path class="cls-4" d="M119.62,114.25l.8,0a42.38,42.38,0,0,0,7.69-.71,60.94,60.94,0,0,1-7.87-1.14C120.05,113,119.84,113.65,119.62,114.25Z"/><path class="cls-2" d="M98.69,105.22c-.31.84-.6,1.69-.85,2.55a42.27,42.27,0,0,0,21.78,6.48c.22-.6.43-1.21.62-1.83A111.46,111.46,0,0,1,98.69,105.22Z"/><path class="cls-4" d="M98.69,105.22c-.31.84-.6,1.69-.85,2.55a42.27,42.27,0,0,0,21.78,6.48c.22-.6.43-1.21.62-1.83A111.46,111.46,0,0,1,98.69,105.22Z"/><polygon class="cls-2" points="154.41 97.28 154.41 97.27 154.41 97.27 154.41 97.28"/><polygon class="cls-4" points="154.41 97.28 154.41 97.27 154.41 97.27 154.41 97.28"/><path class="cls-2" d="M33.11,116.63A46.41,46.41,0,0,1,29.3,98.15c0-1.31.05-2.61.16-3.89A96.69,96.69,0,0,1,13.71,81.88a35.45,35.45,0,0,0,41,57.77A46.77,46.77,0,0,1,33.11,116.63Z"/><path class="cls-4" d="M33.11,116.63A46.41,46.41,0,0,1,29.3,98.15c0-1.31.05-2.61.16-3.89A96.69,96.69,0,0,1,13.71,81.88a35.45,35.45,0,0,0,41,57.77A46.77,46.77,0,0,1,33.11,116.63Z"/><path class="cls-2" d="M69.43,120a35.75,35.75,0,0,0,.91-16.45c-14.92,4-30-2.42-40.88-9.3-.11,1.28-.16,2.58-.16,3.89a46.54,46.54,0,0,0,25.4,41.5A35.49,35.49,0,0,0,69.43,120Z"/><path class="cls-4" d="M69.43,120a35.75,35.75,0,0,0,.91-16.45c-14.92,4-30-2.42-40.88-9.3-.11,1.28-.16,2.58-.16,3.89a46.54,46.54,0,0,0,25.4,41.5A35.49,35.49,0,0,0,69.43,120Z"/></g><circle class="cls-2" cx="120.42" cy="53.03" r="51.27"/><path class="cls-2" d="M123.06,99.91c0,1.47-.07,2.91-.2,4.34a46.07,46.07,0,0,1-2,9.93c-.19.62-.4,1.24-.62,1.84a44.57,44.57,0,0,1-2.07,4.75,4.11,4.11,0,0,1-.21.42,46.57,46.57,0,0,1-88-21.28c0-1.31.05-2.61.15-3.89a46.36,46.36,0,0,1,6.33-19.84c.18-.29.35-.59.54-.88a46.63,46.63,0,0,1,39.56-22,46,46,0,0,1,6.89.51c1,.15,2,.32,2.91.53a46.53,46.53,0,0,1,36.79,45.55Z"/><circle class="cls-2" cx="71.2" cy="62.41" r="36.62"/><path class="cls-2" d="M240.25,89.07a44.2,44.2,0,0,1-1.12,10h0a44.54,44.54,0,0,1-84.9,6.24c-.27-.68-.51-1.36-.75-2.06s-.36-1.12-.53-1.69a45.16,45.16,0,0,1-1.77-12.46,45.14,45.14,0,0,1,.72-8c.09-.44.17-.88.27-1.31a44.15,44.15,0,0,1,8-17.46h0c.43-.57.87-1.13,1.33-1.67a44.52,44.52,0,0,1,78.77,28.47Z"/><circle class="cls-2" cx="175.8" cy="54.5" r="34.57"/><circle class="cls-3" cx="121.01" cy="73.54" r="42.48"/><path class="cls-2" d="M181.66,121.59a42,42,0,0,1-1,9.38,42.49,42.49,0,0,1-79.88,8.72,42.07,42.07,0,0,1-3.84-13.89c-.13-1.38-.2-2.79-.2-4.21a43.93,43.93,0,0,1,.65-7.49,42.27,42.27,0,0,1,1.09-4.57q.38-1.29.84-2.55a41.19,41.19,0,0,1,2.79-6.07A42.54,42.54,0,0,1,151.9,81.05c1.1.34,2.17.73,3.22,1.16h0a42.43,42.43,0,0,1,5.45,2.69c.4.23.79.46,1.17.71s.73.46,1.08.7.54.36.81.56h0a42.34,42.34,0,0,1,17.68,29.31A43.9,43.9,0,0,1,181.66,121.59Z"/><circle class="cls-2" cx="121.01" cy="78.82" r="42.48"/><path class="cls-2" d="M71.49,111.63a35.37,35.37,0,0,1-16.21,29.78A35.45,35.45,0,1,1,36,76.18h.33l.89,0A35.46,35.46,0,0,1,69.16,99a34,34,0,0,1,1.76,6.34A34.71,34.71,0,0,1,71.49,111.63Z"/><path class="cls-4" d="M239.13,99A44.57,44.57,0,0,1,180.61,131a42.49,42.49,0,0,1-79.88,8.72,46.63,46.63,0,0,1-45.45,1.72,35.45,35.45,0,0,1-41-57.77A97.24,97.24,0,0,0,30,96c10.86,6.87,26,13.31,40.88,9.29A37.11,37.11,0,0,0,83.63,99h0c.14.1,2.51,1.51,6.3,3.48h0c2.55,1.32,5.74,2.89,9.33,4.47a111.69,111.69,0,0,0,21.55,7.2,60.2,60.2,0,0,0,7.92,1.14h0c10.57.76,20.1-2,24.73-12.1A28.53,28.53,0,0,0,155,99s.93.56,2.56,1.45a146.18,146.18,0,0,0,22.68,10.14C196,115.9,213.6,117.45,215.55,99,215.55,99,224.54,113.68,239.13,99Z"/></g></symbol></defs><title>cloud2</title><g id="Layer_2" data-name="Layer 2"><g id="objects"><use width="240.25" height="164.08" xlink:href="#cloud1"/></g></g></svg>