<?xml version="1.0" encoding="utf-8"?>
<?xml-stylesheet href="../assets/css/style.css" type="text/svg"?>
<svg version="1.1" xmlns="http://www.w3.org/2000/svg" xmlns:xlink="http://www.w3.org/1999/xlink" viewBox="0 0 92 512.73" style="enable-background:new 0 0 92 512.73;" xml:space="preserve">
<style type="text/css">
            .cls-1,
            .cls-2,
            .cls-3 {
                fill: none;
                stroke: #777;
                stroke-linecap: round;
                stroke-miterlimit: 10;
            }

            .cls-1 {
                stroke-width: 2px;
            }

            .cls-2,
            .cls-3 {
                font-size: 12px;
                font-family: Quicksand-Light, Quicksand;
                font-weight: 300;
            }

            .cls-2,
            .cls-6 {
                letter-spacing: 0.1em;
            }

            .cls-3 {
                letter-spacing: 0.1em;
            }

            .cls-4 {
                letter-spacing: 0.12em;
            }

            .cls-5 {
                letter-spacing: 0.08em;
            }

            .cls-7 {
                letter-spacing: 0.12em;
            }

            .cls-8 {
                letter-spacing: 0.1em;
            }
        </style>
    <title>meter</title>
                <line class="cls-1" x1="1" y1="6.26" x2="1" y2="506.26" />
                <line id="line0m" class="cls-1" x1="1" y1="6.26" x2="37" y2="6.26" />
                <line class="cls-1" x1="1" y1="21.26" x2="17" y2="21.26" />
                <line class="cls-1" x1="1" y1="36.26" x2="17" y2="36.26" />
                <line class="cls-1" x1="1" y1="51.26" x2="17" y2="51.26" />
                <line class="cls-1" x1="1" y1="66.26" x2="17" y2="66.26" />
                <line class="cls-1" x1="1" y1="79.26" x2="17" y2="79.26" />
                <line class="cls-1" x1="1" y1="93.26" x2="17" y2="93.26" />
                <line class="cls-1" x1="1" y1="120.26" x2="17" y2="120.26" />
                <line class="cls-1" x1="1" y1="135.26" x2="17" y2="135.26" />
                <line class="cls-1" x1="1" y1="150.26" x2="17" y2="150.26" />
                <line class="cls-1" x1="1" y1="165.26" x2="17" y2="165.26" />
                <line class="cls-1" x1="1" y1="178.26" x2="17" y2="178.26" />
                <line class="cls-1" x1="1" y1="192.26" x2="17" y2="192.26" />
                <line class="cls-1" x1="1" y1="220.26" x2="17" y2="220.26" />
                <line class="cls-1" x1="1" y1="235.26" x2="17" y2="235.26" />
                <line class="cls-1" x1="1" y1="250.26" x2="17" y2="250.26" />
                <line class="cls-1" x1="1" y1="265.26" x2="17" y2="265.26" />
                <line class="cls-1" x1="1" y1="278.26" x2="17" y2="278.26" />
                <line class="cls-1" x1="1" y1="292.26" x2="17" y2="292.26" />
                <line class="cls-1" x1="1" y1="320.26" x2="17" y2="320.26" />
                <line class="cls-1" x1="1" y1="335.26" x2="17" y2="335.26" />
                <line class="cls-1" x1="1" y1="350.26" x2="17" y2="350.26" />
                <line class="cls-1" x1="1" y1="365.26" x2="17" y2="365.26" />
                <line class="cls-1" x1="1" y1="378.26" x2="17" y2="378.26" />
                <line class="cls-1" x1="1" y1="392.26" x2="17" y2="392.26" />
                <line class="cls-1" x1="1" y1="420.26" x2="17" y2="420.26" />
                <line class="cls-1" x1="1" y1="435.26" x2="17" y2="435.26" />
                <line class="cls-1" x1="1" y1="450.26" x2="17" y2="450.26" />
                <line class="cls-1" x1="1" y1="465.26" x2="17" y2="465.26" />
                <line class="cls-1" x1="1" y1="478.26" x2="17" y2="478.26" />
                <line class="cls-1" x1="1" y1="492.26" x2="17" y2="492.26" />
                <line id="line500m" class="cls-1" x1="1" y1="106.26" x2="37" y2="106.26" />
                <line id="line1000m" class="cls-1" x1="1" y1="206.26" x2="37" y2="206.26" />
                <line id="line1500m" class="cls-1" x1="1" y1="306.26" x2="37" y2="306.26" />
                <line id="line2000m" class="cls-1" x1="1" y1="406.26" x2="37" y2="406.26" />
                <line id="line2500m" class="cls-1" x1="1" y1="506.26" x2="37" y2="506.26" /><text class="cls-2"
                    transform="translate(42.06 10.7)">0 m</text><text class="cls-2 meterAbout"
                    transform="translate(55.16 172.14) rotate(-90)">About</text><text class="cls-3 meterSurface"
                    transform="translate(55.16 81.14) rotate(-90)" id="meterSurface">Surface</text><text class="cls-3 meterSkills"
                    transform="translate(55.16 278.14) rotate(-90)">Skillse<tspan class="cls-4 meterSkills" x="41.1" y="0">t</tspan>
                    <tspan x="46.33" y="0">s</tspan>
                </text><text class="cls-3 meterProjects" transform="translate(55.16 380.14) rotate(-90)">P<tspan class="cls-5 meterProjects"
                        x="8.33" y="0">r</tspan>
                    <tspan class="cls-6 meterProjects" x="13.68" y="0">ojec</tspan>
                    <tspan class="cls-7 meterProjects" x="41.5" y="0">t</tspan>
                    <tspan class="cls-8 meterProjects" x="46.73" y="0">s</tspan>
                </text><text class="cls-3" transform="translate(55.16 482.14) rotate(-90)" id="meterContact">Contact</text><text
                    class="cls-3" transform="translate(42.06 109.7)">500 m</text><text class="cls-3"
                    transform="translate(42.06 209.7)">1000 m</text><text class="cls-3"
                    transform="translate(42.06 309.7)">1500 m</text><text class="cls-3"
                    transform="translate(42.06 409.7)">2000 m</text><text class="cls-3"
                    transform="translate(42.06 509.7)">2500 m</text>
</svg>