<svg xmlns="http://www.w3.org/2000/svg" xmlns:xlink="http://www.w3.org/1999/xlink" viewBox="0 0 174.36 66.5"><defs><style>.cls-1{fill:#555;}.cls-2{fill:url(#linear-gradient);}.cls-3{fill:url(#linear-gradient-2);}.cls-4{fill:url(#linear-gradient-3);}.cls-5{fill:url(#linear-gradient-4);}.cls-6{fill:url(#linear-gradient-5);}.cls-7{fill:url(#linear-gradient-6);}.cls-8{fill:url(#linear-gradient-7);}.cls-9{fill:url(#linear-gradient-8);}.cls-10{fill:url(#linear-gradient-9);}.cls-11{fill:url(#linear-gradient-10);}.cls-12{fill:url(#linear-gradient-11);}.cls-13{fill:url(#linear-gradient-12);}.cls-14{fill:url(#linear-gradient-13);}.cls-15{fill:url(#linear-gradient-14);}.cls-16{fill:url(#linear-gradient-15);}.cls-17{fill:url(#linear-gradient-16);}.cls-18{fill:url(#linear-gradient-17);}.cls-19{fill:url(#linear-gradient-18);}.cls-20{fill:url(#linear-gradient-19);}.cls-21{fill:url(#linear-gradient-20);}.cls-22{fill:url(#linear-gradient-21);}.cls-23{fill:url(#linear-gradient-22);}.cls-24{fill:url(#linear-gradient-23);}</style><linearGradient id="linear-gradient" x1="166.99" y1="38.89" x2="164.81" y2="35.11" gradientUnits="userSpaceOnUse"><stop offset="0" stop-color="#cce0f4"/><stop offset="0.08" stop-color="#c3dcf2"/><stop offset="0.22" stop-color="#a9d2ee"/><stop offset="0.39" stop-color="#80c2e7"/><stop offset="0.59" stop-color="#47acde"/><stop offset="0.73" stop-color="#1e9cd7"/><stop offset="0.99" stop-color="#005b97"/><stop offset="1" stop-color="#0075be"/></linearGradient><linearGradient id="linear-gradient-2" x1="154.46" y1="39.37" x2="152.85" y2="36.58" xlink:href="#linear-gradient"/><linearGradient id="linear-gradient-3" x1="149.35" y1="39.37" x2="147.74" y2="36.58" xlink:href="#linear-gradient"/><linearGradient id="linear-gradient-4" x1="144.23" y1="39.37" x2="142.62" y2="36.58" xlink:href="#linear-gradient"/><linearGradient id="linear-gradient-5" x1="139.12" y1="39.37" x2="137.51" y2="36.58" xlink:href="#linear-gradient"/><linearGradient id="linear-gradient-6" x1="134.4" y1="39.37" x2="132.78" y2="36.58" xlink:href="#linear-gradient"/><linearGradient id="linear-gradient-7" x1="129.28" y1="39.37" x2="127.67" y2="36.58" xlink:href="#linear-gradient"/><linearGradient id="linear-gradient-8" x1="124.17" y1="39.37" x2="122.55" y2="36.58" xlink:href="#linear-gradient"/><linearGradient id="linear-gradient-9" x1="119.05" y1="39.37" x2="117.44" y2="36.58" xlink:href="#linear-gradient"/><linearGradient id="linear-gradient-10" x1="113.94" y1="39.37" x2="112.32" y2="36.58" xlink:href="#linear-gradient"/><linearGradient id="linear-gradient-11" x1="108.82" y1="39.37" x2="107.21" y2="36.58" xlink:href="#linear-gradient"/><linearGradient id="linear-gradient-12" x1="103.7" y1="39.37" x2="102.09" y2="36.58" xlink:href="#linear-gradient"/><linearGradient id="linear-gradient-13" x1="98.59" y1="39.37" x2="96.98" y2="36.58" xlink:href="#linear-gradient"/><linearGradient id="linear-gradient-14" x1="93.87" y1="39.37" x2="92.25" y2="36.58" xlink:href="#linear-gradient"/><linearGradient id="linear-gradient-15" x1="88.75" y1="39.37" x2="87.14" y2="36.58" xlink:href="#linear-gradient"/><linearGradient id="linear-gradient-16" x1="83.64" y1="39.37" x2="82.02" y2="36.58" xlink:href="#linear-gradient"/><linearGradient id="linear-gradient-17" x1="78.52" y1="39.37" x2="76.91" y2="36.58" xlink:href="#linear-gradient"/><linearGradient id="linear-gradient-18" x1="73.41" y1="39.37" x2="71.79" y2="36.58" xlink:href="#linear-gradient"/><linearGradient id="linear-gradient-19" x1="68.29" y1="39.37" x2="66.68" y2="36.58" xlink:href="#linear-gradient"/><linearGradient id="linear-gradient-20" x1="63.57" y1="39.37" x2="61.96" y2="36.58" xlink:href="#linear-gradient"/><linearGradient id="linear-gradient-21" x1="58.45" y1="39.37" x2="56.84" y2="36.58" xlink:href="#linear-gradient"/><linearGradient id="linear-gradient-22" x1="53.34" y1="39.37" x2="51.72" y2="36.58" xlink:href="#linear-gradient"/><linearGradient id="linear-gradient-23" x1="48.22" y1="39.37" x2="46.61" y2="36.58" xlink:href="#linear-gradient"/><symbol id="plane" data-name="plane" viewBox="0 0 174.36 66.5"><path class="cls-1" d="M141.66,31.48h-23.9L91.68,21.64h-9.3l18.35,9.45H56.66s-13.77-3.15-17.31-6.3S16.92,0,16.92,0h-7l8.45,32.85L0,31.48l16.13,3.15s0,4.33,8.27,5.51c0,0,19.28,7.08,33.84,7.47s28.33.4,28.33.4L57.06,64.53l12.19,2,56.67-18.89,37.77-.39s11.41-2.36,10.63-5.51-4.73-4.33-4.73-4.33-5.5-5.11-11-5.11S141.66,31.48,141.66,31.48Z"/><path class="cls-2" d="M167.63,36.2h-4.71l2.74,2.36s3.15-.39,3.15-.78S167.63,36.2,167.63,36.2Z"/><polygon class="cls-3" points="152.48 39.15 154.84 39.15 154.84 36.79 152.48 36.79 152.48 39.15"/><polygon class="cls-4" points="147.36 39.15 149.72 39.15 149.72 36.79 147.36 36.79 147.36 39.15"/><polygon class="cls-5" points="142.25 39.15 144.61 39.15 144.61 36.79 142.25 36.79 142.25 39.15"/><polygon class="cls-6" points="137.13 39.15 139.49 39.15 139.49 36.79 137.13 36.79 137.13 39.15"/><polygon class="cls-7" points="132.41 39.15 134.77 39.15 134.77 36.79 132.41 36.79 132.41 39.15"/><polygon class="cls-8" points="127.29 39.15 129.66 39.15 129.66 36.79 127.29 36.79 127.29 39.15"/><polygon class="cls-9" points="122.18 39.15 124.54 39.15 124.54 36.79 122.18 36.79 122.18 39.15"/><polygon class="cls-10" points="117.06 39.15 119.42 39.15 119.42 36.79 117.06 36.79 117.06 39.15"/><polygon class="cls-11" points="111.95 39.15 114.31 39.15 114.31 36.79 111.95 36.79 111.95 39.15"/><polygon class="cls-12" points="106.83 39.15 109.19 39.15 109.19 36.79 106.83 36.79 106.83 39.15"/><polygon class="cls-13" points="101.72 39.15 104.08 39.15 104.08 36.79 101.72 36.79 101.72 39.15"/><polygon class="cls-14" points="96.6 39.15 98.96 39.15 98.96 36.79 96.6 36.79 96.6 39.15"/><polygon class="cls-15" points="91.88 39.15 94.24 39.15 94.24 36.79 91.88 36.79 91.88 39.15"/><polygon class="cls-16" points="86.77 39.15 89.13 39.15 89.13 36.79 86.77 36.79 86.77 39.15"/><polygon class="cls-17" points="81.65 39.15 84.01 39.15 84.01 36.79 81.65 36.79 81.65 39.15"/><polygon class="cls-18" points="76.53 39.15 78.89 39.15 78.89 36.79 76.53 36.79 76.53 39.15"/><polygon class="cls-19" points="71.42 39.15 73.78 39.15 73.78 36.79 71.42 36.79 71.42 39.15"/><polygon class="cls-20" points="66.3 39.15 68.66 39.15 68.66 36.79 66.3 36.79 66.3 39.15"/><polygon class="cls-21" points="61.58 39.15 63.94 39.15 63.94 36.79 61.58 36.79 61.58 39.15"/><polygon class="cls-22" points="56.47 39.15 58.83 39.15 58.83 36.79 56.47 36.79 56.47 39.15"/><polygon class="cls-23" points="51.35 39.15 53.71 39.15 53.71 36.79 51.35 36.79 51.35 39.15"/><polygon class="cls-24" points="46.23 39.15 48.6 39.15 48.6 36.79 46.23 36.79 46.23 39.15"/></symbol></defs><title>plane</title><g id="Layer_2" data-name="Layer 2"><g id="objects"><use width="174.36" height="66.5" xlink:href="#plane"/></g></g></svg>