<svg xmlns="http://www.w3.org/2000/svg" xmlns:xlink="http://www.w3.org/1999/xlink" viewBox="0 0 1366 768"><defs><style>.cls-1{fill:url(#linear-gradient);}.cls-2,.cls-3{fill:#131922;}.cls-3{opacity:0.8;}.cls-4{opacity:0.6;}.cls-5{opacity:0.45;}.cls-6{opacity:0.4;}</style><linearGradient id="linear-gradient" x1="683" y1="43.36" x2="683" y2="811.36" gradientTransform="translate(0 -43.36)" gradientUnits="userSpaceOnUse"><stop offset="0" stop-color="#214359"/><stop offset="0.05" stop-color="#204055"/><stop offset="0.48" stop-color="#162d38"/><stop offset="0.72" stop-color="#13262d"/></linearGradient></defs><title>projectPage</title><g id="bg"><rect id="sea" class="cls-1" width="1366" height="768"/><path class="cls-2" d="M324,318"/><path class="cls-2" d="M0,0H1366V208.72s-55,3.11-41-31.73-30,34.84-28,9.76-27,50.17-29,15.33-6,11.15-29,9.75-31-37.62-55-16.72-34,43.2-47,16.72-5-15.33-33,4.18-35,36.24-50,15.33-24,1.4-46,0,2,9.76-22-20.9-3-26.48-48-20.9-58-5.58-54-34.85,14,8.37-31-5.57-52-47.38-87-29.27-42,27.88-52,0-2-26.48-50-13.93-92,29.26-90,1.39,5-43.2-26-16.72-60,29.26-56,2.78S441,149.12,451,92s-97,41.81-76,0-65,13.94-34-8.36-62-1.39-34,11.15S265,131,254,86.41s42-30.66-16-26.48-99-44.6-94-9.76S91,85,89,50.17s-16-46-47-32S0,0,0,0Z"/><path class="cls-2" d="M0,768V678.91s49.54-21.65,74.89-19.33c55.53,5.08,43.7,1,83.29,2.54,104.59,4.18,40.26,7,35.34-19.48-8.24-44.34,13.88-11.86,45.43-23.72s32.81-13.55,80.77-5.08-73.2,26.26,0,37.27,25.24-11,89.6-1.69,22.53-75.82,90.68-53.8,38,52.1,67.06,31.77,20.19-46.58,69.41-18.63,55.24,21.33,85.53,4.39,4.07-35.73,52-6.93,59.31,47.43,97.17,26.26S891.47,559.84,947,581s70.59,65.87,98.35,44.69,15.14-33.88,111.05-15.25,39.12,23.72,113.58,11,54.24-22,74.43-9.32,21.59,20,21.59,20V768Z"/></g><g id="objects"><path class="cls-3" d="M1007.2,521l5.59-4.37L1026,534.14,1044.9,532l.36,3.23L1029.33,537l24.39,32.12,7.49-4.11,1,8.54,10.39-1.15s-13.21,15.73-12.56,15.19,21-4.45,21-4.45l-2.9,9.68,10.42,1.17s-30.42,18.6-34.48,20-39,10.44-51.09,1l-12-9.42,31-18.77-7.3-10.87L1002,584.4l-.26-2.31,11.78-7.63-8.68-10.72-8.26,5.6-1-2.24,7.8-5.54-9.6-12.72,10.26-.21,6.83,8.82,6.36-3.75.7,2-5.26,3.16,7.73,10.59,10.44-7,.31,2.77-8.65,6.34,7.32,11.11,16.85-10.3-25.65-32.91-13.8-.09-.8-2.95,10.57-1.65Z"/><path class="cls-3" d="M1160.54,537.49l-7.93,34.22-4.14-1.53-15.4,3.48,5.42,7.45-18.66,4.26,14.63,11.35-11.87,3.3,2.56,5.15,41.11,8.74s15.57-1.93,19.78-14,4.83-13.08,4.83-13.08l-30.58-13.77,6.15-31.41-.89-2.31-3.14,1.81Z"/><g class="cls-4"><path class="cls-2" d="M1259,580.88c-.39,9.45-.91,18.89-1.35,28.34s-1.47,18.92.28,27.83a35.65,35.65,0,0,0,1.92,6.41,37.13,37.13,0,0,0,3.13,5.9c2.41,3.81,5.25,7.56,7.86,11.53l3.86,6c1.25,2,2.54,4,3.75,6,2.45,4.06,4.83,8.17,7,12.43l-.41.29c-3.32-3.43-6.42-7-9.44-10.68-1.53-1.81-3-3.68-4.47-5.52l-4.35-5.61a99,99,0,0,1-8.06-11.92,41.22,41.22,0,0,1-4.72-14.14,68.14,68.14,0,0,1-.27-14.54c.36-4.79.94-9.47,1.44-14.17,1.12-9.39,2.17-18.79,3.35-28.18Z"/></g><g class="cls-4"><path class="cls-2" d="M1329.05,576.69a211.23,211.23,0,0,1,1.16,31.82c-.4,10.63-1.38,21.22-2.52,31.77L1326,656.11a100.14,100.14,0,0,1-3,15.85,57.72,57.72,0,0,1-6.53,15,32.84,32.84,0,0,1-11.69,11.27l-.3-.4a42.48,42.48,0,0,0,8.91-12.57,60.52,60.52,0,0,0,2.76-7.14c.41-1.2.73-2.46,1.1-3.68s.64-2.48.9-3.75c1.14-5,2-10.14,3-15.32s1.8-10.42,2.63-15.63c1.62-10.44,3.09-20.89,4-31.4a227.09,227.09,0,0,0,.84-31.63Z"/></g><g class="cls-4"><path class="cls-2" d="M1264.56,516.43c.14,13.92.15,27.84.23,41.77l0,20.87c0,6.95,0,14,0,20.84a69.71,69.71,0,0,0,.86,10.09,38.14,38.14,0,0,0,2.86,9.42c2.67,6.08,6.54,11.88,9.36,18.58a39.8,39.8,0,0,1,2.92,10.65,61.28,61.28,0,0,1,0,10.76,76.79,76.79,0,0,0-.3,10.24,19.27,19.27,0,0,0,2.88,9.56l-.39.32a18.63,18.63,0,0,1-4.76-9.57,62,62,0,0,1-1-10.61,70.71,70.71,0,0,0-.8-10.07,36.44,36.44,0,0,0-3.14-9.26c-2.81-6-6.7-11.91-9.36-18.72a43.66,43.66,0,0,1-2.67-10.65,74.54,74.54,0,0,1-.47-10.72c.16-7,.48-13.94.71-20.92l.77-20.86c.59-13.91,1.11-27.82,1.77-41.73Z"/></g><g class="cls-4"><path class="cls-2" d="M1314.5,511c-1.14,16,0,32,1.72,47.93s3.9,31.84,4.85,48a243,243,0,0,1,.3,24.3,124.88,124.88,0,0,1-3.35,24.21c-.55,2-1.08,4-1.67,5.91s-1.22,3.91-2,5.82a91.24,91.24,0,0,1-5.07,11.17l-1.47,2.69c-.5.89-1.07,1.74-1.62,2.6l-1.65,2.57c-.58.84-1.17,1.67-1.77,2.48-2.43,3.25-5,6.36-7.51,9.48l-.41-.28c1.91-3.55,4.06-7,6-10.44.49-.87,1-1.73,1.44-2.61l1.32-2.65c.43-.9.91-1.75,1.31-2.66l1.19-2.71a110.34,110.34,0,0,0,4.06-11.07c.6-1.87,1.07-3.79,1.61-5.67s.89-3.83,1.33-5.75a194.77,194.77,0,0,0,3.29-23.41,212.28,212.28,0,0,0,.64-23.81c-.44-15.93-2.18-31.9-3.34-47.93s-1.67-32.21.28-48.2Z"/></g><g class="cls-5"><path class="cls-2" d="M1107.94,523.25c.64,7.2,1,14.41,1.48,21.61l.27,5.4a24.28,24.28,0,0,0,.54,4.87,6.23,6.23,0,0,0,1.94,3.21,35.4,35.4,0,0,0,4,2.91,26,26,0,0,1,2.42,1.85l1.19,1.15c.38.39.72.82,1.08,1.24a20.3,20.3,0,0,1,3.12,5.69,28,28,0,0,1,1.32,12.35,30.94,30.94,0,0,1-1.28,6,49.16,49.16,0,0,1-2.1,5.52,110.32,110.32,0,0,1-5.24,9.94c-1.84,3.12-3.55,6.08-5.05,9.17a96.24,96.24,0,0,0-4.07,9.4,79.25,79.25,0,0,0-4.67,19.74c-.17,1.68-.27,3.36-.32,5.05,0,.73,0,1.58,0,2.49l.07,2.72c.08,3.67.08,7.38-.15,11.15-.11,1.89-.28,3.8-.58,5.75a27.67,27.67,0,0,1-1.6,6.11,15.52,15.52,0,0,1-.8,1.65,10.46,10.46,0,0,1-1.26,1.75l-.39.42c-.15.15-.33.29-.49.43a6.56,6.56,0,0,1-1.11.76,6.93,6.93,0,0,1-1.31.57,10.26,10.26,0,0,1-1.42.3,12.34,12.34,0,0,1-1.36,0,9.1,9.1,0,0,1-1.2-.21c-.19-.05-.39-.09-.57-.15l-.49-.19c-.33-.13-.63-.25-1-.41a6.18,6.18,0,0,1-2.35-2.12,9,9,0,0,1-1-2,16.29,16.29,0,0,1-.8-3.33,29.39,29.39,0,0,1-.29-3c-.11-2-.09-3.84,0-5.71.14-3.74.47-7.39.87-11,.81-7.26,1.93-14.42,3-21.53a78.48,78.48,0,0,0,1.26-10.26,6.62,6.62,0,0,0-.82-3.66,7.83,7.83,0,0,0-3.18-2.41,25.24,25.24,0,0,1-5.15-3.09,8.86,8.86,0,0,1-2.26-2.94,10.44,10.44,0,0,1-.9-3.39,41,41,0,0,1,.05-5.79c.12-1.84.28-3.68.51-5.51a91.11,91.11,0,0,1,5.39-21.38,94.26,94.26,0,0,1,4.6-10,97.31,97.31,0,0,0,4.8-9.5,19.77,19.77,0,0,0,1.57-9.93,39.31,39.31,0,0,0-3.06-10,76.06,76.06,0,0,1-3.77-10.24,17.74,17.74,0,0,1-.55-5.54,12.4,12.4,0,0,1,1.62-5.35l.79.44a11.22,11.22,0,0,0-1.26,5,16.66,16.66,0,0,0,.76,5.13,74.11,74.11,0,0,0,4.16,9.84,41.16,41.16,0,0,1,3.63,10.45,20,20,0,0,1,.07,5.73,26.93,26.93,0,0,1-1.37,5.51,98.64,98.64,0,0,1-4.53,10,88.44,88.44,0,0,0-4,9.79,86.89,86.89,0,0,0-4.33,20.61c-.16,1.75-.25,3.5-.31,5.25a38.33,38.33,0,0,0,.11,5,5.74,5.74,0,0,0,.52,1.8,3.92,3.92,0,0,0,1.07,1.26,22.46,22.46,0,0,0,4.21,2.24,20.29,20.29,0,0,1,2.71,1.51,10.55,10.55,0,0,1,2.62,2.52,12,12,0,0,1,2,6.62c0,1,0,2,0,3,0,.45-.06,1-.1,1.43l-.14,1.4-.65,5.42c-.92,7.14-1.82,14.24-2.4,21.32-.29,3.54-.51,7.07-.54,10.54,0,1.73,0,3.44.16,5.08.06.82.16,1.62.29,2.36a10,10,0,0,0,.5,1.89.25.25,0,1,1-.16.12,2.26,2.26,0,0,0,.61.16c-.14,0-.31.12-.12-.09a5.29,5.29,0,0,0,.29-.45,7.76,7.76,0,0,0,.33-.8,20.14,20.14,0,0,0,.94-4.37c.19-1.61.28-3.3.32-5,.08-3.42-.08-6.91-.31-10.44l-.19-2.67c-.06-.89-.15-1.84-.15-2.91,0-1.92,0-3.83.1-5.74a79.36,79.36,0,0,1,4.77-22.29,92.28,92.28,0,0,1,4.59-10.37c1.74-3.35,3.72-6.58,5.61-9.61s3.78-6,5.28-8.92a42.6,42.6,0,0,0,2-4.48,28,28,0,0,0,1.22-4.5,20.52,20.52,0,0,0-.29-9,14.28,14.28,0,0,0-1.76-3.89,13.59,13.59,0,0,0-3-3.24,38.64,38.64,0,0,1-4.38-3.92,12.37,12.37,0,0,1-2-2.91,11.56,11.56,0,0,1-1-3.33,28.49,28.49,0,0,1,0-5.9l.34-5.4c.51-7.2,1-14.4,1.73-21.6Z"/></g><g class="cls-5"><path class="cls-2" d="M940.51,631.77a67.46,67.46,0,0,1-2.33-10.44,39.58,39.58,0,0,1-.08-11,25.51,25.51,0,0,1,.55-2.82c.12-.48.24-1,.38-1.42l.52-1.39a23,23,0,0,1,1.25-2.73c.24-.45.54-.87.81-1.3a12,12,0,0,1,.88-1.27,17.4,17.4,0,0,1,2.09-2.28l1.16-1.05c.41-.32.81-.63,1.21-.91,1.58-1.12,3-2,4-2.89a6.68,6.68,0,0,0,1.21-1.26,4.11,4.11,0,0,0,.64-1.33,14,14,0,0,0,.51-4.07c.07-3.28-.09-6.69-.21-10.21a99.17,99.17,0,0,1,.1-10.88,33.27,33.27,0,0,1,2.67-11.18c.43-.89.88-1.77,1.38-2.62a27.47,27.47,0,0,1,1.65-2.4,44.28,44.28,0,0,1,3.68-4.18,82.16,82.16,0,0,0,7-7.46,33.24,33.24,0,0,0,4.47-8.8A49,49,0,0,1,978.6,518a29.3,29.3,0,0,1,7.66-8,37.81,37.81,0,0,1,9.66-4.92,55.39,55.39,0,0,1,21-2.75l0,.7a60.7,60.7,0,0,0-10.35,1.12,49.8,49.8,0,0,0-9.88,3c-6.29,2.61-11.92,6.9-15.1,12.67a46.49,46.49,0,0,0-3.72,9.41c-.55,1.68-1.13,3.4-1.85,5.11a27.58,27.58,0,0,1-2.71,5,86.18,86.18,0,0,1-7,8.26,26.81,26.81,0,0,0-5.28,8,27.35,27.35,0,0,0-1.62,9.29,93.36,93.36,0,0,0,.61,10.13,96.89,96.89,0,0,1,.58,10.81,19.66,19.66,0,0,1-1,6.29,11.41,11.41,0,0,1-1.82,3.28,14,14,0,0,1-2.52,2.43c-1.75,1.28-3.4,2.08-4.73,2.89l-1,.61-.84.66a15.42,15.42,0,0,0-1.59,1.44,19.37,19.37,0,0,0-4.31,8,44.7,44.7,0,0,0-1.53,9.9c-.24,3.43-.18,6.92-.18,10.46Z"/></g><path class="cls-2" d="M74.92,577.67a50,50,0,0,0-13.28,1.2,29.38,29.38,0,0,0-11.27,5.38C43.87,589.34,39.81,597,36.69,605c-.39,1-.73,2.05-1.1,3.06l-.54,1.54-.46,1.57c-.29,1-.65,2.07-1,3.12l-.83,3.18c-.59,2.11-1,4.27-1.55,6.41s-.95,4.32-1.28,6.51A142.34,142.34,0,0,0,27.55,657a263.24,263.24,0,0,0,1.81,27c.92,9.07,2,18.2,2.52,27.42a156.32,156.32,0,0,1-.72,27.7c-1.15,9.15-3.3,18.38-7.94,26.43l-.79-.43a54.83,54.83,0,0,0,4.22-12.83,93.17,93.17,0,0,0,1.75-13.42,154.06,154.06,0,0,0-1-27.07c-1-9-2.56-18-4-27a268.77,268.77,0,0,1-3.07-27.59,172.54,172.54,0,0,1,.81-28.09,96.24,96.24,0,0,1,7.21-27.52A66.9,66.9,0,0,1,35.75,589l2.37-2.87,2.67-2.66A33,33,0,0,1,46.87,579a32.38,32.38,0,0,1,6.91-3,35.35,35.35,0,0,1,7.28-1.2,39.74,39.74,0,0,1,14,2Z"/><path class="cls-2" d="M120.94,556.25c.64,7.2,1,14.41,1.48,21.61l.27,5.4a24.28,24.28,0,0,0,.54,4.87,6.23,6.23,0,0,0,1.94,3.21,35.4,35.4,0,0,0,4,2.91,26,26,0,0,1,2.42,1.85l1.19,1.15c.38.39.72.82,1.08,1.24a20.3,20.3,0,0,1,3.12,5.69,28,28,0,0,1,1.32,12.35,30.94,30.94,0,0,1-1.28,6,49.16,49.16,0,0,1-2.1,5.52,110.32,110.32,0,0,1-5.24,9.94c-1.84,3.12-3.55,6.08-5,9.17a96.24,96.24,0,0,0-4.07,9.4,79.25,79.25,0,0,0-4.67,19.74c-.17,1.68-.27,3.36-.32,5.05,0,.73,0,1.58,0,2.49l.07,2.72c.08,3.67.08,7.38-.15,11.15-.11,1.89-.28,3.8-.58,5.75a27.67,27.67,0,0,1-1.6,6.11,15.52,15.52,0,0,1-.8,1.65,10.46,10.46,0,0,1-1.26,1.75l-.39.42c-.15.15-.33.29-.49.43a6.56,6.56,0,0,1-1.11.76,6.93,6.93,0,0,1-1.31.57,10.26,10.26,0,0,1-1.42.3,12.34,12.34,0,0,1-1.36,0,9.1,9.1,0,0,1-1.2-.21c-.19-.05-.39-.09-.57-.15l-.49-.19c-.33-.13-.63-.25-1-.41a6.18,6.18,0,0,1-2.35-2.12,9,9,0,0,1-1-2,16.29,16.29,0,0,1-.8-3.33,29.39,29.39,0,0,1-.29-3c-.11-2-.09-3.84,0-5.71.14-3.74.47-7.39.87-11,.81-7.26,1.93-14.42,3-21.53a78.48,78.48,0,0,0,1.26-10.26,6.62,6.62,0,0,0-.82-3.66,7.83,7.83,0,0,0-3.18-2.41,25.24,25.24,0,0,1-5.15-3.09,8.86,8.86,0,0,1-2.26-2.94,10.44,10.44,0,0,1-.9-3.39,41,41,0,0,1,0-5.79c.12-1.84.28-3.68.51-5.51a91.11,91.11,0,0,1,5.39-21.38,94.26,94.26,0,0,1,4.6-10,97.31,97.31,0,0,0,4.8-9.5,19.77,19.77,0,0,0,1.57-9.93,39.31,39.31,0,0,0-3.06-10,76.06,76.06,0,0,1-3.77-10.24,17.74,17.74,0,0,1-.55-5.54,12.4,12.4,0,0,1,1.62-5.35l.79.44a11.22,11.22,0,0,0-1.26,5,16.66,16.66,0,0,0,.76,5.13,74.11,74.11,0,0,0,4.16,9.84,41.16,41.16,0,0,1,3.63,10.45,20,20,0,0,1,.07,5.73,26.93,26.93,0,0,1-1.37,5.51,98.64,98.64,0,0,1-4.53,10,88.44,88.44,0,0,0-4,9.79,86.89,86.89,0,0,0-4.33,20.61c-.16,1.75-.25,3.5-.31,5.25a38.33,38.33,0,0,0,.11,5,5.74,5.74,0,0,0,.52,1.8,3.92,3.92,0,0,0,1.07,1.26,22.46,22.46,0,0,0,4.21,2.24,20.29,20.29,0,0,1,2.71,1.51,10.55,10.55,0,0,1,2.62,2.52,12,12,0,0,1,2,6.62c0,1,0,2,0,3,0,.45-.06,1-.1,1.43l-.14,1.4-.65,5.42c-.92,7.14-1.82,14.24-2.4,21.32-.29,3.54-.51,7.07-.54,10.54,0,1.73,0,3.44.16,5.08.06.82.16,1.62.29,2.36a10,10,0,0,0,.5,1.89,1.28,1.28,0,0,0,.23.42,1.27,1.27,0,0,0-.39-.3,2.26,2.26,0,0,0,.61.16c-.14,0-.31.12-.12-.09a5.29,5.29,0,0,0,.29-.45,7.76,7.76,0,0,0,.33-.8,20.14,20.14,0,0,0,.94-4.37c.19-1.61.28-3.3.32-5,.08-3.42-.08-6.91-.31-10.44l-.19-2.67c-.06-.89-.15-1.84-.15-2.91,0-1.92,0-3.83.1-5.74a79.36,79.36,0,0,1,4.77-22.29A92.28,92.28,0,0,1,116.34,643c1.74-3.35,3.72-6.58,5.61-9.61s3.78-6,5.28-8.92a42.6,42.6,0,0,0,2-4.48,28,28,0,0,0,1.22-4.5,20.52,20.52,0,0,0-.29-9,14.28,14.28,0,0,0-1.76-3.89,13.59,13.59,0,0,0-3-3.24,38.64,38.64,0,0,1-4.38-3.92,12.37,12.37,0,0,1-2-2.91,11.56,11.56,0,0,1-1-3.33,28.49,28.49,0,0,1,0-5.9l.34-5.4c.51-7.2,1-14.4,1.73-21.6Z"/><path class="cls-2" d="M144.51,704.77a67.46,67.46,0,0,1-2.33-10.44,39.58,39.58,0,0,1-.08-11,25.51,25.51,0,0,1,.55-2.82c.12-.48.24-1,.38-1.42l.52-1.39a23,23,0,0,1,1.25-2.73c.24-.45.54-.87.81-1.3a12,12,0,0,1,.88-1.27,17.4,17.4,0,0,1,2.09-2.28l1.16-1.05c.41-.32.81-.63,1.21-.91,1.58-1.12,3-2,4.05-2.89a6.68,6.68,0,0,0,1.21-1.26,4.11,4.11,0,0,0,.64-1.33,14,14,0,0,0,.51-4.07c.07-3.28-.09-6.69-.21-10.21a99.17,99.17,0,0,1,.1-10.88,33.27,33.27,0,0,1,2.67-11.18c.43-.89.88-1.77,1.38-2.62a27.47,27.47,0,0,1,1.65-2.4,44.28,44.28,0,0,1,3.68-4.18,82.16,82.16,0,0,0,7-7.46,33.24,33.24,0,0,0,4.47-8.8A49,49,0,0,1,182.6,591a29.3,29.3,0,0,1,7.66-8,37.81,37.81,0,0,1,9.66-4.92,55.39,55.39,0,0,1,21-2.75l0,.7a60.7,60.7,0,0,0-10.35,1.12,49.8,49.8,0,0,0-9.88,3c-6.29,2.61-11.92,6.9-15.1,12.67a46.49,46.49,0,0,0-3.72,9.41c-.55,1.68-1.13,3.4-1.85,5.11a27.58,27.58,0,0,1-2.71,5,86.18,86.18,0,0,1-7,8.26,26.81,26.81,0,0,0-5.28,8,27.35,27.35,0,0,0-1.62,9.29,93.36,93.36,0,0,0,.61,10.13,96.89,96.89,0,0,1,.58,10.81,19.66,19.66,0,0,1-1,6.29,11.41,11.41,0,0,1-1.82,3.28,14,14,0,0,1-2.52,2.43c-1.75,1.28-3.4,2.08-4.73,2.89l-.95.61-.84.66a15.42,15.42,0,0,0-1.59,1.44,19.37,19.37,0,0,0-4.31,8,44.7,44.7,0,0,0-1.53,9.9c-.24,3.43-.18,6.92-.18,10.46Z"/><path class="cls-2" d="M94.57,745.22A90.5,90.5,0,0,0,75.5,679.3L72.69,676l-3-3.32c-2-2.23-4-4.54-5.9-7a44,44,0,0,1-5-8.06,21.54,21.54,0,0,1-2.23-9.79A17.45,17.45,0,0,1,60,638.16a29,29,0,0,1,7.3-6.4c2.6-1.69,5.2-3.14,7.6-4.73a25,25,0,0,0,6.21-5.45,17.08,17.08,0,0,0,2.11-3.44,19.61,19.61,0,0,0,1.35-3.86,32,32,0,0,0,.73-8.4c-.19-5.78-1.31-11.64-2.14-17.6a90.62,90.62,0,0,1-.89-9.08,40.57,40.57,0,0,1,.57-9.25,32.29,32.29,0,0,1,3-8.84,37.91,37.91,0,0,1,5.07-7.73,47.44,47.44,0,0,1,6.6-6.39,56.51,56.51,0,0,1,7.64-5,58.35,58.35,0,0,1,8.36-3.63,70.24,70.24,0,0,1,8.76-2.33c11.87-2.38,23.94-2.09,35.87-1.79v.5c-11.93,0-24,.09-35.54,2.75a68.49,68.49,0,0,0-8.49,2.52,55.19,55.19,0,0,0-8,3.73,53.59,53.59,0,0,0-7.18,5,45.44,45.44,0,0,0-6.1,6.23,34.82,34.82,0,0,0-4.58,7.32,29.75,29.75,0,0,0-2.54,8.16c-.94,5.64-.21,11.53.7,17.36S88.6,599.54,89,605.73a35.75,35.75,0,0,1-.65,9.41,22.69,22.69,0,0,1-1.51,4.62A21.43,21.43,0,0,1,84.32,624a29.26,29.26,0,0,1-7,6.52c-2.54,1.77-5.13,3.29-7.5,4.93a23.89,23.89,0,0,0-6,5.49,12.63,12.63,0,0,0-2.29,7,16.6,16.6,0,0,0,1.88,7.48,41.89,41.89,0,0,0,4.54,7.07c1.74,2.29,3.66,4.5,5.62,6.74l3,3.38,2.93,3.58a85.45,85.45,0,0,1,15.43,33.06A84.24,84.24,0,0,1,97,727.34a79.52,79.52,0,0,1-1.92,18Z"/><g class="cls-6"><path class="cls-2" d="M1141.88,527.78a100.79,100.79,0,0,1,32-2.16,72,72,0,0,1,16.12,3.49l2,.69,1.93.81c1.3.52,2.56,1.15,3.82,1.77s2.46,1.37,3.69,2.07a33.19,33.19,0,0,1,3.58,2.26,61.31,61.31,0,0,1,12.35,11.5,71,71,0,0,1,8.88,14.18,94.81,94.81,0,0,1,5.52,15.59,101.38,101.38,0,0,1,2.64,16.19c.16,1.36.15,2.72.23,4.08s.13,2.73.08,4.09l-.07,4.08-.31,4.08a129.13,129.13,0,0,1-2.47,15.93c-2.25,10.42-5.24,20.48-7.39,30.65a121.49,121.49,0,0,0-2.46,15.3,83,83,0,0,0,.06,15.44,56.46,56.46,0,0,0,3.49,15,43.6,43.6,0,0,0,7.91,13.25l-.66.62a45.22,45.22,0,0,1-9-13.13,58.53,58.53,0,0,1-4.48-15.38,85.83,85.83,0,0,1-.94-16,127.84,127.84,0,0,1,1.66-15.91c1.72-10.49,4.24-20.73,5.94-31a124.72,124.72,0,0,0,1.78-15.27l.14-3.79-.08-3.79c0-1.27-.12-2.53-.23-3.79s-.15-2.52-.35-3.77a94.67,94.67,0,0,0-3.16-14.75,84.35,84.35,0,0,0-5.81-13.76c-.55-1.11-1.23-2.14-1.84-3.21l-.94-1.6-1-1.52c-.7-1-1.35-2.06-2.08-3s-1.53-1.9-2.27-2.88l-.56-.72-.61-.68-1.23-1.35-1.23-1.35c-.4-.47-.87-.84-1.3-1.27l-2.64-2.52-2.84-2.27a28.89,28.89,0,0,0-2.94-2.13,34.25,34.25,0,0,0-3.07-2c-1.05-.61-2.11-1.24-3.22-1.76l-1.65-.82-1.69-.76a77.61,77.61,0,0,0-14.25-4.64c-9.92-2.22-20.33-2.92-30.87-3.19Z"/></g><g class="cls-6"><path class="cls-2" d="M1188.89,523.24c.72,7.2,1.21,14.4,1.73,21.6l.33,5.4a29.16,29.16,0,0,1,0,5.9,11.56,11.56,0,0,1-1,3.33,12.37,12.37,0,0,1-2,2.91,39.52,39.52,0,0,1-4.38,3.92,13.39,13.39,0,0,0-3,3.24,13.71,13.71,0,0,0-1.76,3.89,20.37,20.37,0,0,0-.29,9,28,28,0,0,0,1.22,4.5,42.5,42.5,0,0,0,2,4.48c1.5,3,3.35,5.89,5.28,8.92s3.88,6.26,5.62,9.61a92.21,92.21,0,0,1,4.58,10.37,78.67,78.67,0,0,1,4.77,22.29c.11,1.91.14,3.82.11,5.74,0,1.07-.1,2-.15,2.91l-.19,2.67c-.23,3.53-.39,7-.32,10.44,0,1.71.14,3.4.33,5a20.16,20.16,0,0,0,.93,4.37c.1.33.23.53.33.8a4.89,4.89,0,0,0,.3.45c.18.21,0,.07-.12.09a2.37,2.37,0,0,0,.61-.16,1.06,1.06,0,0,0-.39.3,1.35,1.35,0,0,0,.22-.42,9.21,9.21,0,0,0,.51-1.89c.13-.74.22-1.54.29-2.36.13-1.64.17-3.35.16-5.08,0-3.47-.25-7-.54-10.54-.59-7.08-1.49-14.18-2.41-21.32l-.64-5.42-.14-1.4c0-.48-.08-1-.1-1.43-.06-.94-.09-1.93-.06-3a12.05,12.05,0,0,1,2-6.62,10.35,10.35,0,0,1,2.61-2.52,20.93,20.93,0,0,1,2.71-1.51,22.15,22.15,0,0,0,4.21-2.24,3.8,3.8,0,0,0,1.07-1.26,5.48,5.48,0,0,0,.53-1.8,36.75,36.75,0,0,0,.1-5c0-1.75-.14-3.5-.3-5.25a86.9,86.9,0,0,0-4.34-20.61,88.44,88.44,0,0,0-4-9.79,103.27,103.27,0,0,1-4.53-10,27.59,27.59,0,0,1-1.37-5.51,19.65,19.65,0,0,1,.08-5.73,40.76,40.76,0,0,1,3.62-10.45,74.17,74.17,0,0,0,4.17-9.84,16.66,16.66,0,0,0,.76-5.13,11.37,11.37,0,0,0-1.27-5l.79-.44a12.42,12.42,0,0,1,1.63,5.35,17.74,17.74,0,0,1-.56,5.54,74.72,74.72,0,0,1-3.77,10.24,39.28,39.28,0,0,0-3,10,19.77,19.77,0,0,0,1.57,9.93,99.47,99.47,0,0,0,4.79,9.5,92.31,92.31,0,0,1,4.6,10,90.62,90.62,0,0,1,5.39,21.38c.23,1.83.39,3.67.51,5.51a39.54,39.54,0,0,1,0,5.79,10.41,10.41,0,0,1-.89,3.39,9,9,0,0,1-2.26,2.94,25.78,25.78,0,0,1-5.15,3.09,7.88,7.88,0,0,0-3.19,2.41,6.63,6.63,0,0,0-.81,3.66,78.38,78.38,0,0,0,1.25,10.26c1.12,7.11,2.23,14.27,3,21.53.4,3.63.73,7.28.87,11,.07,1.87.09,3.75,0,5.71,0,1-.14,2-.29,3a16.36,16.36,0,0,1-.81,3.33,8.9,8.9,0,0,1-1,2,6.22,6.22,0,0,1-2.36,2.12c-.34.16-.64.28-1,.41l-.49.19c-.18.06-.38.1-.58.15a8.82,8.82,0,0,1-1.2.21,12.34,12.34,0,0,1-1.36,0,10.58,10.58,0,0,1-1.42-.3,7.22,7.22,0,0,1-1.31-.57,6.09,6.09,0,0,1-1.1-.76,5.19,5.19,0,0,1-.49-.43l-.39-.42a10.55,10.55,0,0,1-1.27-1.75,15.52,15.52,0,0,1-.8-1.65,27.62,27.62,0,0,1-1.59-6.11c-.3-2-.48-3.86-.59-5.75-.22-3.77-.22-7.48-.14-11.15l.07-2.72c0-.91.06-1.76,0-2.49-.05-1.69-.15-3.37-.32-5.05a79.27,79.27,0,0,0-4.68-19.74,91.62,91.62,0,0,0-4.07-9.4c-1.5-3.09-3.2-6-5-9.17a110.35,110.35,0,0,1-5.25-9.94,49.16,49.16,0,0,1-2.1-5.52,31.69,31.69,0,0,1-1.27-6,27.81,27.81,0,0,1,1.32-12.35,20.53,20.53,0,0,1,3.11-5.69c.36-.42.71-.85,1.09-1.24l1.18-1.15a26.12,26.12,0,0,1,2.43-1.85,35.19,35.19,0,0,0,4-2.91,6.25,6.25,0,0,0,2-3.21,24.34,24.34,0,0,0,.53-4.87l.28-5.4c.43-7.2.84-14.41,1.48-21.61Z"/></g><g class="cls-6"><path class="cls-2" d="M1240.86,718.31a79,79,0,0,1-1.92-18,84.23,84.23,0,0,1,2.12-18.07A86.81,86.81,0,0,1,1247,665a85.89,85.89,0,0,1,9.52-15.74l2.92-3.58,3-3.38c1.95-2.24,3.88-4.45,5.62-6.74a42.52,42.52,0,0,0,4.54-7.07,16.59,16.59,0,0,0,1.87-7.48,12.62,12.62,0,0,0-2.28-7,23.94,23.94,0,0,0-6-5.49c-2.37-1.64-5-3.16-7.5-4.93a29.22,29.22,0,0,1-7-6.52,21.48,21.48,0,0,1-2.48-4.24,22.66,22.66,0,0,1-1.5-4.62,34.92,34.92,0,0,1-.65-9.41c.35-6.19,1.62-12.08,2.55-17.93s1.64-11.72.7-17.36a29.08,29.08,0,0,0-2.54-8.16,34.82,34.82,0,0,0-4.58-7.32,45.37,45.37,0,0,0-6.09-6.23,54.34,54.34,0,0,0-7.19-5,55.57,55.57,0,0,0-8-3.73,69,69,0,0,0-8.49-2.52c-11.57-2.66-23.62-2.72-35.54-2.75v-.5c11.92-.3,24-.59,35.87,1.79a70.09,70.09,0,0,1,8.75,2.33,57.86,57.86,0,0,1,8.36,3.63,56.51,56.51,0,0,1,7.64,5,46.9,46.9,0,0,1,6.6,6.39,37.54,37.54,0,0,1,5.08,7.73,32.27,32.27,0,0,1,2.94,8.84,40,40,0,0,1,.57,9.25,90.62,90.62,0,0,1-.89,9.08c-.82,6-1.94,11.82-2.14,17.6a32,32,0,0,0,.74,8.4,19,19,0,0,0,1.35,3.86,17.08,17.08,0,0,0,2.11,3.44A24.86,24.86,0,0,0,1261,600c2.4,1.59,5,3,7.59,4.73a29.05,29.05,0,0,1,7.31,6.4,17.51,17.51,0,0,1,3.45,9.66,21.53,21.53,0,0,1-2.22,9.79,44.06,44.06,0,0,1-5,8.06c-1.89,2.46-3.88,4.77-5.89,7l-3,3.32-2.81,3.31a90.59,90.59,0,0,0-19.07,65.92Z"/></g><g class="cls-4"><path class="cls-2" d="M1291.6,491.73a258,258,0,0,1,2.6,86.84c-.66,4.8-1.45,9.49-2.11,14.13s-1.38,9.2-1.81,13.7a120.79,120.79,0,0,0-.78,13.39c-.08,4.48.16,9,.42,13.65s.69,9.29,1,14,.67,9.3,1.38,13.52a45.82,45.82,0,0,0,1.4,6,27.55,27.55,0,0,0,2.3,5.31,18.11,18.11,0,0,0,1.6,2.39l2.33,2.87a22.06,22.06,0,0,1,2.53,3.86,12.6,12.6,0,0,1,1,2.64,9,9,0,0,1,.22,3.16,9.2,9.2,0,0,1-.83,3,11,11,0,0,1-1.48,2.27c-1,1.21-2,2-2.64,2.67a16.62,16.62,0,0,0-3.37,5,17.64,17.64,0,0,0-1.5,6.26,18.41,18.41,0,0,0,.77,6.77l-.8.41a19.83,19.83,0,0,1-1.47-14.27,18.72,18.72,0,0,1,3.19-6.6c.73-1,1.56-1.86,2.2-2.78a5.27,5.27,0,0,0,1.08-3,5.52,5.52,0,0,0-.86-3,16,16,0,0,0-2.08-2.71c-.79-.86-1.64-1.69-2.48-2.56a29,29,0,0,1-2.37-2.8,36.75,36.75,0,0,1-5.72-13.32,133.19,133.19,0,0,1-2.29-14.2c-.59-4.73-1.17-9.47-1.61-14.24s-.75-9.55-.8-14.35a125.36,125.36,0,0,1,.69-14.37c1-9.55,2.86-18.93,4.45-28.32s2.83-18.82,3.64-28.3,1.29-19,1.45-28.52.12-19.05-.17-28.58Z"/></g><g class="cls-4"><path class="cls-2" d="M1310.37,482.21c3.09,9.56,4.37,19.67,5,29.74.24,5,.2,10.07.14,15.1s-.4,10-.78,15c-.72,9.93-1.81,19.71-2.69,29.37-.42,4.83-.89,9.62-1.14,14.4s-.51,9.55-.63,14.34a379.75,379.75,0,0,0,3.06,57.42l1,7.18,1.11,7.17c.39,2.41.76,4.76,1.21,7.26a65.62,65.62,0,0,1,1,7.86,30.15,30.15,0,0,1-.73,8.45,23.48,23.48,0,0,1-1.41,4c-.52,1.2-1.12,2.32-1.67,3.4a35.05,35.05,0,0,0-2.77,6.43,6.61,6.61,0,0,0-.28,3.09,4.52,4.52,0,0,0,1.64,2.66l-.42.8a5.67,5.67,0,0,1-2.64-2.92,8.11,8.11,0,0,1-.39-3.86,34.39,34.39,0,0,1,1.92-7.25,39.64,39.64,0,0,0,2.06-7,25.42,25.42,0,0,0-.12-7.18c-.7-4.79-2.23-9.51-3.36-14.32-.61-2.39-1.13-4.8-1.7-7.21s-1-4.83-1.48-7.26a283.11,283.11,0,0,1-5-59c.25-9.89,1.08-19.75,2.29-29.55s2.7-19.54,4-29.29,2.47-19.53,2.92-29.35a158.61,158.61,0,0,0-1-29.39Z"/></g><path class="cls-2" d="M839.86,486.57H694.24s-7.52-39.13-17.48-46.59c-15.57-11.69-77.66-5.83-77.66-5.83s-5.83,5.83,0,15.53,11.65,23.3,9.71,27.19-5.83,9.7-5.83,9.7H494.25s-25.24,3.89-34.94,7.77-33,15.53-38.84,21.36S403,537.05,403,540.94s7.77,33,11.65,36.89,15.25,8.76,20.94,9.71c96.83,16.07,392.62,0,392.62,0s42.71-7.77,56.3-23.3l5.83-1.94,5.82,19.41,44.66-1.94L921.4,542.88l7.77-1.94v-5.83H968v-7.76H927.23V515.7h-7.77l29.12-36.89H898.1l-13.59,19.41a40.14,40.14,0,0,0-21.36-9.7A181.68,181.68,0,0,0,839.86,486.57Z"/></g></svg>