<svg xmlns="http://www.w3.org/2000/svg" viewBox="0 0 391.05 154.15"><defs><style>.cls-1{fill:#131922;}</style></defs><title>shark1</title><g id="Layer_2" data-name="Layer 2"><g id="objects"><path class="cls-1" d="M0,82.3s-.29-2.37,4.45-5,76.85-37.09,127-37.38,49.25,1.18,53.41-1.19,8.6-6.53,13.64-13.35,21.37-22,27.6-23.74,4.45-2.07,5.34-.89S227,23.26,227.87,30.09s1.48,13.05,3,16.31-.59,11-.89,11.57,10.69,7.13,16.92,9.2,9.19,4.16,12.16,3.56,5.93-2.37,10.39-5,10.38-3.86,12.46-3.56,1.78,1.48,1.78,1.48-1.78,4.75,0,8.31,0,8.31.89,9.49,8.3,4.45,17.21,5.64,13.35-.3,16-2.37S367.32,36,391.05,30.09a23.69,23.69,0,0,1-3.26,6.82c-2.67,4.15-26.11,39.16-30.86,47.47s-11.87,14.24-11.87,32.34-1.48,17.8,1.78,25.81,5.64,8.9,5.05,11-6.53-1.48-8-2.67-17.81-19.58-24.33-29.37-10.68-17.21-16.91-17.8-13.95-1.78-16.32,0-8,8-8.31,10.68.89,7.41-2.37,6.23S262,106,251,105.74s-27.59,1.19-28.19,3.86,2.38,10.38.6,11.87-24.63-3.86-31.75-8.9-38.87,1.18-38.87,1.18,7.12,8.61,6.23,10.09-8.9,3.56-14.53-1.19-9.2-6.82-12.47-6.82-41.53.3-62-5.34a325.86,325.86,0,0,1-37.68-13l2.08-.6.3-1.78.59,1.78H36.5l.29-2.67.89,2.38.89-.3.6-2.37L40.35,96l1.19-.29.3-2.08,1.48,2.08h.59l.6-2.38.89,2.08h1.48l.6-2.08.89,2.08,8-1.48-5.94-1.79-.89,1.79L48.37,91.8H46.59l-.89,2.08L44.51,91.5l-.6.3L43,93.88,41.84,91.8H41l-.89,1.78L38.57,91.5l-2.37.3-.3,2.67-2.07-2.38H32.34l-.89,2.68L30,93H28.49l-1.78,2.07-.89-1.48-5.05.3S.3,87.35,0,82.3Z"/></g></g></svg>