<svg xmlns="http://www.w3.org/2000/svg" xmlns:xlink="http://www.w3.org/1999/xlink" viewBox="0 0 348.4 135.44"><defs><style>.cls-1{fill:#ddd;}.cls-2{fill:#8e8e8e;}.cls-3{fill:#333;}.cls-4{fill:#8fffff;}.cls-5{fill:#444;}.cls-6{fill:#92d8e9;}.cls-7{fill:#db4444;}.cls-8{fill:#ab4444;}.cls-9{fill:#555;}.cls-10{fill:#f93;}.cls-11{fill:#fff;}.cls-12{fill:#138808;}.cls-13,.cls-15{fill:none;stroke:navy;stroke-miterlimit:10;}.cls-13{stroke-width:0.25px;}.cls-14{fill:navy;}.cls-15{stroke-width:0.05px;}</style><symbol id="ship" data-name="ship" viewBox="0 0 391.08 152.03"><path class="cls-1" d="M152.08,62s6,0,6,5V96.56l-13,.44.16-30.42S146.08,62,152.08,62Z"/><path class="cls-2" d="M176.08,79h17.41s3.59,0,3.59,3V97l-39-.44V79Z"/><path class="cls-3" d="M191.08,0h6.16l2.84,5h7.18s3.18,2,0,3H203l2.06,4h7.06s3.07,1.17,0,3.08h-4.88L210.08,19h6.69s2.69,1.28,0,2.64l-4.69.36,2,3h8l10,15H253.4V33.33A4.49,4.49,0,0,1,258.08,30c4,0,5,3,5,3v7h7.42s3.58,3-.42,4h-2.67l-5.33,10h23.2s3.8,0,.8,2-4,2-4,2h-5l8,9H299s3-.58,0,2.71L296.08,73l9,8L203.89,83.33,204.08,73l-13,.13s-2-.13-2-3.13,2-3,2-3h11V58h-12s-1-.36-1-2.18,4-1.82,4-1.82h7l-6-10h-3s-1.87-.67-1.44-2.34S191.08,40,191.08,40h16V25l-2-3h-3a3.49,3.49,0,0,1-1-2c0-1,2-1,2-1l-2-4h-3a1,1,0,0,1-1-1,3.49,3.49,0,0,1,1-2h1l-2-4h-4s-2,0-2-1,2-2,2-2h1Z"/><rect class="cls-4" x="24.08" y="108" width="6" height="5" rx="2.5"/><path class="cls-5" d="M9.08,102h123s11-4,12-5,55.58,0,55.58,0l.42-8s0-6,6-6,182-5,182-5,3-1,3,3-22,26-22,26-4,7,2,8H380s12.07,4,2.07,15-19,12-26,13-339,1-339,1V126h-4s-3,0-6-5-7-12-7-12-1-7,4-7Z"/><rect class="cls-6" x="42.08" y="108" width="6" height="5" rx="2.5"/><rect class="cls-6" x="61.08" y="108" width="6" height="5" rx="2.5"/><rect class="cls-4" x="80.08" y="108" width="6" height="5" rx="2.5"/><rect class="cls-6" x="98.08" y="108" width="6" height="5" rx="2.5"/><path class="cls-7" d="M7.08,120l379,1s2,18-30,23l-339,1V127S10.13,128.4,7.08,120Z"/><rect class="cls-6" x="117.08" y="108" width="6" height="5" rx="2.5"/><rect class="cls-4" x="137.08" y="108" width="6" height="5" rx="2.5"/><rect class="cls-6" x="155.08" y="108" width="6" height="5" rx="2.5"/><rect class="cls-6" x="174.08" y="108" width="6" height="5" rx="2.5"/><path class="cls-8" d="M17.08,127H40.44a1.72,1.72,0,0,1,.39,0l63.25,14.5a1.75,1.75,0,0,1-.39,3.46H18.84a1.76,1.76,0,0,1-1.76-1.75Z"/><rect class="cls-6" x="193.08" y="108" width="6" height="5" rx="2.5"/><rect class="cls-6" x="237.08" y="102" width="6" height="5" rx="2.5"/><rect class="cls-6" x="256.08" y="102" width="6" height="5" rx="2.5"/><path class="cls-9" d="M18,133.82l2.32,4.25a1.61,1.61,0,0,0,.66.66l4.25,2.32a1.66,1.66,0,0,1,0,2.9L21,146.27a1.61,1.61,0,0,0-.66.66L18,151.18a1.65,1.65,0,0,1-2.89,0l-2.33-4.25a1.65,1.65,0,0,0-.65-.66L7.91,144a1.65,1.65,0,0,1,0-2.9l4.25-2.32a1.65,1.65,0,0,0,.65-.66l2.33-4.25A1.65,1.65,0,0,1,18,133.82Z"/><rect class="cls-6" x="275.08" y="102" width="6" height="5" rx="2.5"/><rect class="cls-6" x="274.08" y="87" width="6" height="5" rx="2.5"/><rect class="cls-6" x="215.08" y="75" width="6" height="5" rx="2.5"/><rect class="cls-6" x="234.08" y="75" width="6" height="5" rx="2.5"/><rect class="cls-6" x="253.08" y="74" width="6" height="5" rx="2.5"/><rect class="cls-6" x="272.08" y="73" width="6" height="5" rx="2.5"/><rect class="cls-6" x="293.08" y="87" width="6" height="5" rx="2.5"/><rect class="cls-6" x="313.08" y="87" width="6" height="5" rx="2.5"/><g id="flag"><rect class="cls-10" x="342.08" y="86" width="19.72" height="4.33"/><rect class="cls-11" x="342.08" y="90.33" width="19.72" height="4.33"/><rect class="cls-12" x="342.08" y="94.67" width="19.72" height="4.33"/><circle class="cls-13" cx="351.83" cy="92.5" r="1.63"/><circle class="cls-14" cx="351.83" cy="92.5" r="0.33"/><line class="cls-15" x1="351.83" y1="91.2" x2="351.83" y2="93.8"/><line class="cls-15" x1="352.05" y1="91.22" x2="351.61" y2="93.78"/><line class="cls-15" x1="352.23" y1="91.26" x2="351.43" y2="93.74"/><line class="cls-15" x1="351.43" y1="91.26" x2="352.23" y2="93.74"/><line class="cls-15" x1="351.61" y1="91.22" x2="352.05" y2="93.78"/><line class="cls-15" x1="353.13" y1="92.5" x2="350.53" y2="92.5"/><line class="cls-15" x1="353.11" y1="92.28" x2="350.55" y2="92.72"/><line class="cls-15" x1="353.07" y1="92.1" x2="350.6" y2="92.9"/><line class="cls-15" x1="353.07" y1="92.9" x2="350.6" y2="92.1"/><line class="cls-15" x1="353.11" y1="92.72" x2="350.55" y2="92.28"/><line class="cls-15" x1="352.75" y1="93.42" x2="350.91" y2="91.58"/><line class="cls-15" x1="352.89" y1="93.25" x2="350.77" y2="91.75"/><line class="cls-15" x1="352.99" y1="93.09" x2="350.67" y2="91.91"/><line class="cls-15" x1="352.42" y1="93.66" x2="351.24" y2="91.34"/><line class="cls-15" x1="352.58" y1="93.56" x2="351.08" y2="91.44"/><line class="cls-15" x1="350.91" y1="93.42" x2="352.75" y2="91.58"/><line class="cls-15" x1="351.08" y1="93.56" x2="352.58" y2="91.44"/><line class="cls-15" x1="351.24" y1="93.66" x2="352.42" y2="91.34"/><line class="cls-15" x1="350.67" y1="93.09" x2="352.99" y2="91.91"/><line class="cls-15" x1="350.77" y1="93.25" x2="352.89" y2="91.75"/></g></symbol></defs><title>ship1</title><g id="Layer_2" data-name="Layer 2"><g id="objects"><use width="391.08" height="152.03" transform="scale(0.89 0.89)" xlink:href="#ship"/></g></g></svg>