<svg xmlns="http://www.w3.org/2000/svg" xmlns:xlink="http://www.w3.org/1999/xlink" viewBox="0 0 134.84 54.91"><defs><style>.cls-1{fill:#ca3322;}.cls-2{fill:#db4344;}.cls-3{fill:#444;}.cls-4{fill:#f93;}.cls-5{fill:#fff;}.cls-6{fill:#138808;}.cls-7,.cls-9{fill:none;stroke:navy;stroke-miterlimit:10;}.cls-7{stroke-width:0.25px;}.cls-8{fill:navy;}.cls-9{stroke-width:0.05px;}.cls-10{fill:#333;}.cls-11{fill:#dce7c8;}.cls-12{fill:url(#linear-gradient);}</style><linearGradient id="linear-gradient" x1="140.27" y1="50.86" x2="197.69" y2="50.86" gradientUnits="userSpaceOnUse"><stop offset="0" stop-color="#ffd815"/><stop offset="0.03" stop-color="#ffff75" stop-opacity="0.96"/><stop offset="0.09" stop-color="#ffff84" stop-opacity="0.85"/><stop offset="0.23" stop-color="#ffffa4" stop-opacity="0.63"/><stop offset="0.37" stop-color="#ffffc0" stop-opacity="0.44"/><stop offset="0.51" stop-color="#ffffd7" stop-opacity="0.28"/><stop offset="0.64" stop-color="#ffffe8" stop-opacity="0.16"/><stop offset="0.77" stop-color="#fffff5" stop-opacity="0.07"/><stop offset="0.89" stop-color="#fffffc" stop-opacity="0.02"/><stop offset="1" stop-color="#fff" stop-opacity="0"/></linearGradient><symbol id="sub" data-name="sub" viewBox="0 0 197.69 80.5"><path class="cls-1" d="M11.37,78.53H6.71s-.91.23-.91-1.11V59.55L19,65,16.28,77.2s-.44,1.14-1,1.35A23.71,23.71,0,0,1,11.37,78.53Z"/><path class="cls-2" d="M11.37,26.87H6.71S5.8,26.65,5.8,28V45.86L19,40.43,16.28,28.21s-.44-1.14-1-1.35A23.87,23.87,0,0,0,11.37,26.87Z"/><path class="cls-3" d="M117.3,32.67h-18V17.35a4.2,4.2,0,0,0-3-2.3c-2-.22-14.6,0-14.6,0V8.16a2.77,2.77,0,0,1,2.55-2h4.8V0H83.17a1.89,1.89,0,0,0-.81.19C81,.89,76.46,3.4,76.27,6.8c-.23,4,0,8.2,0,8.2l-4,.05s-1.56-.22-3.12,1.79S58.45,32.67,58.45,32.67H54.37S-.22,40,0,52.74,55.3,73.26,55.3,73.26h64.23s21-2.68,20.74-20.3S120,32.67,120,32.67Z"/><rect class="cls-4" x="72.54" y="21.22" width="17.28" height="3.8"/><rect class="cls-5" x="72.54" y="25.02" width="17.28" height="3.8"/><rect class="cls-6" x="72.54" y="28.82" width="17.28" height="3.8"/><circle class="cls-7" cx="81.09" cy="26.92" r="1.42"/><circle class="cls-8" cx="81.09" cy="26.92" r="0.28"/><line class="cls-9" x1="81.09" y1="25.78" x2="81.09" y2="28.06"/><line class="cls-9" x1="81.28" y1="25.8" x2="80.9" y2="28.04"/><line class="cls-9" x1="81.44" y1="25.84" x2="80.74" y2="28"/><line class="cls-9" x1="80.74" y1="25.84" x2="81.44" y2="28"/><line class="cls-9" x1="80.9" y1="25.8" x2="81.28" y2="28.04"/><line class="cls-9" x1="82.23" y1="26.92" x2="79.95" y2="26.92"/><line class="cls-9" x1="82.21" y1="26.73" x2="79.97" y2="27.11"/><line class="cls-9" x1="82.17" y1="26.57" x2="80.01" y2="27.27"/><line class="cls-9" x1="82.17" y1="27.27" x2="80.01" y2="26.57"/><line class="cls-9" x1="82.21" y1="27.11" x2="79.97" y2="26.73"/><line class="cls-9" x1="81.9" y1="27.73" x2="80.28" y2="26.11"/><line class="cls-9" x1="82.02" y1="27.58" x2="80.16" y2="26.26"/><line class="cls-9" x1="82.11" y1="27.44" x2="80.07" y2="26.4"/><line class="cls-9" x1="81.61" y1="27.94" x2="80.57" y2="25.9"/><line class="cls-9" x1="81.75" y1="27.85" x2="80.43" y2="25.99"/><line class="cls-9" x1="80.28" y1="27.73" x2="81.9" y2="26.11"/><line class="cls-9" x1="80.43" y1="27.85" x2="81.75" y2="25.99"/><line class="cls-9" x1="80.57" y1="27.94" x2="81.61" y2="25.9"/><line class="cls-9" x1="80.07" y1="27.44" x2="82.11" y2="26.4"/><line class="cls-9" x1="80.16" y1="27.58" x2="82.02" y2="26.26"/><path class="cls-10" d="M0,52.74H140.27s1,15.77-20.74,20.52H55.3S1.23,65.48,0,52.74Z"/><circle class="cls-11" cx="119.53" cy="52.29" r="7.02"/><path class="cls-12" d="M140.27,52.74l42-31.52s15,8.76,15.38,31.52S185.06,80.5,185.06,80.5Z"/></symbol></defs><g id="Layer_2" data-name="Layer 2"><g id="objects"><use width="197.69" height="80.5" transform="scale(0.68 0.68)" xlink:href="#sub"/></g></g></svg>