<?xml version="1.0" encoding="utf-8"?>
<!-- Generator: Adobe Illustrator 24.1.0, SVG Export Plug-In . SVG Version: 6.00 Build 0)  -->
<svg version="1.1" id="Layer_1" xmlns="http://www.w3.org/2000/svg" xmlns:xlink="http://www.w3.org/1999/xlink" x="0px" y="0px"
	 viewBox="0 0 1920 1080" style="enable-background:new 0 0 1920 1080;" xml:space="preserve">
<style type="text/css">
	.st0{fill:#131B28;}
	.st1{fill:#0868AC;}
</style>
<path class="st0" d="M820.1,417.7L820.1,417.7l-12.3,43.5L820.1,417.7L820.1,417.7z"/>
<path class="st0" d="M883.3,512.1l-13.5-0.1L883.3,512.1z"/>
<path class="st0" d="M879.8,577.1L879.8,577.1l-81,0.3L879.8,577.1L879.8,577.1z"/>
<path class="st0" d="M896.8,512.2l-13.5-0.1L896.8,512.2z"/>
<path class="st0" d="M886.9,571.6l14.1-53.9L886.9,571.6L886.9,571.6L886.9,571.6z"/>
<path class="st0" d="M1185.4,323.6l-26.3,123.7C1159.1,447.3,1185.4,323.6,1185.4,323.6z"/>
<path class="st0" d="M1117.7,323.6l-20,92.4L1117.7,323.6L1117.7,323.6z"/>
<path class="st0" d="M1180.9,318h-56.2c-3.1,0-6.2,2.5-6.9,5.6l-20,92.4l-20,92.4c-0.7,3-3.8,5.5-6.9,5.5h-34.1h-5.7
	c-39.4,0-34.8-27.2-26.8-64.6c0.1-0.4,0.2-0.7,0.2-1.1l0.9-4.7c0.1-0.3,0.1-0.6,0.2-0.9l1.8-9.6l1.9-10.3c0.6-3.1,1.5-7.6,2.1-10.5
	l9.1-44.4l9.1-44.4c0.6-3.1-1.4-5.6-4.5-5.6h-57.7c-3.1,0-6.2,2.5-6.8,5.6L948,382.5l-12.4,58.9c0,0,0,0.1,0,0.1l-1.2,5.5
	c-14.3,65.3-10.5,127.5,67.2,129.5c1.3,0,2.3,0,2.3,0h122c3.1,0,6.2-2.5,6.9-5.6l26.3-123.6l26.3-123.7
	C1186,320.6,1184,318,1180.9,318L1180.9,318z"/>
<path class="st0" d="M1405.2,514.6c3.1,0,5.2,2.5,4.5,5.6l-5.5,26.7"/>
<path class="st0" d="M1398.9,573.5l5.5-26.7L1398.9,573.5C1398.9,573.5,1398.9,573.5,1398.9,573.5L1398.9,573.5z"/>
<path class="st0" d="M1392,579.1C1392,579.1,1392,579.1,1392,579.1c-16.5,0.1-66.3,0.5-103.7,0.5
	C1333.9,579.6,1392,579.1,1392,579.1L1392,579.1z"/>
<path class="st0" d="M1254.8,480.2c0-2.9,3.3-8,6.4-8l-7-0.1C1251,503.9,1254.8,480.2,1254.8,480.2L1254.8,480.2z"/>
<path class="st0" d="M1293.5,579.6c-0.4,0-0.7,0-1.1,0C1292.8,579.6,1293.1,579.6,1293.5,579.6z"/>
<path class="st0" d="M1405.2,514.6c3.1,0,5.2,2.5,4.5,5.6l-5.5,26.7l-0.9,4.4"/>
<path class="st0" d="M1320.1,579.6h-0.2H1320.1z"/>
<path class="st0" d="M1306.3,579.6h-0.8H1306.3z"/>
<path class="st0" d="M1302.1,579.6c-0.4,0-0.9,0-1.3,0C1301.2,579.6,1301.6,579.6,1302.1,579.6z"/>
<path class="st0" d="M1297.8,579.6h-1.2H1297.8z"/>
<path class="st0" d="M1305.5,579.6c-1.1,0-2.3,0-3.4,0C1303.2,579.6,1304.4,579.6,1305.5,579.6z"/>
<path class="st0" d="M1319.9,579.6c-4.6,0-9.1,0-13.6,0C1310.8,579.6,1315.3,579.6,1319.9,579.6z"/>
<path class="st0" d="M1392.1,579.1L1392.1,579.1c-12.1,0.1-42.1,0.3-72,0.4C1350,579.5,1379.9,579.2,1392.1,579.1z"/>
<path class="st0" d="M1398.9,573.5l4.6-22.4L1398.9,573.5C1398.9,573.5,1398.9,573.5,1398.9,573.5L1398.9,573.5z"/>
<path class="st0" d="M1300.8,579.6h-3H1300.8z"/>
<path class="st0" d="M1292.4,579.6h-4H1292.4z"/>
<path class="st0" d="M1296.6,579.6h-3.2H1296.6z"/>
<path class="st0" d="M473.8,480.8l8.7-38.7l-10,44.3l-9.6,45.1l8.4-39.5C472,488.9,473.1,483.9,473.8,480.8L473.8,480.8z"/>
<path class="st0" d="M578.4,317.4h-61.8c-3.1,0-6.2,2.5-6.9,5.5l-5.9,25.9l-5.9,25.9c-0.7,3,1.3,5.5,4.4,5.5h62.3
	c3.1,0,6.2-2.5,6.9-5.5l5.7-25.9l5.7-25.8v0C583.5,319.9,581.5,317.4,578.4,317.4L578.4,317.4z"/>
<path class="st0" d="M565,403.4L565,403.4l-18.1,83.8L565,403.4z"/>
<path class="st0" d="M385.5,681.1c0,0,31.1,0.4,50.9,0.4C421.4,681.5,396.6,681.2,385.5,681.1C385.5,681.1,385.5,681.1,385.5,681.1
	L385.5,681.1z"/>
<path class="st0" d="M491.3,403.4l-8.7,38.7L491.3,403.4z"/>
<path class="st0" d="M560.5,397.8h-62.3c-3.1,0-6.2,2.5-6.9,5.5l-8.7,38.7l-8.7,38.7c-0.7,3-1.8,8-2.4,11.1l-8.4,39.5l-8.4,39.5
	c-0.7,3-2,8-3,10.9c0,0-11.6,34.6-31.2,34.2c-0.8,0-1.6,0-2.4,0c-9.5-0.2-16.9-0.3-16.9-0.3h0c-3.1,0-6.3,2.4-7,5.4l-6.5,27.1
	l-6.4,27.1c-0.7,3,1.2,5.5,4.3,5.6c11.1,0.1,35.9,0.4,51,0.4c48.8,0,74.6-27.1,91.1-104.9l19.3-89.4l18.1-83.8
	C565.6,400.3,563.6,397.8,560.5,397.8L560.5,397.8z"/>
<path class="st0" d="M1444.9,576.5c-3.1,0-5.1-2.5-4.5-5.6l46.8-219.4"/>
<path class="st0" d="M1510,570.9l18.9-93.6L1510,570.9z"/>
<path class="st0" d="M1441.1,573.7c-0.4-1.5-0.2-5.3,0.5-8.3l22.2-104.1l-23.4,109.7c-0.7,3.1,1.4,5.6,4.5,5.6h5.7
	C1447.5,576.5,1441.5,575.2,1441.1,573.7L1441.1,573.7z"/>
<path class="st0" d="M1506.3,575.2c-1.7,0.7-5.7,1.3-8.8,1.3h5.7c3.1,0,6.2-2.5,6.8-5.6l1.1-5.6
	C1510.5,568.4,1508,574.5,1506.3,575.2L1506.3,575.2z"/>
<path class="st0" d="M1519.5,524.1l8.4-41.3c0,0,0,0.1,0,0.1L1519.5,524.1L1519.5,524.1z"/>
<path class="st0" d="M1704.3,366.2l2.6,10.7c0.7,3-1.3,5.5-4.4,5.5"/>
<path class="st0" d="M1511.1,565.3l8.3-41.3L1511.1,565.3z"/>
<path class="st0" d="M1701.7,355.3l2.6,10.9L1701.7,355.3z"/>
<path class="st0" d="M1527.8,482.8c0.6-3.1,1.6-8,2.3-11l8.9-41.8l-10.1,47.4L1527.8,482.8L1527.8,482.8z"/>
<path class="st0" d="M1488,347.9c-0.6,3-1.4,6.7-1.9,9.1l-22.2,104.1l23.4-109.7L1488,347.9L1488,347.9z"/>
<path class="st0" d="M1706.8,376.9l-2.6-10.7l-2.6-10.9l-1.3-5.5c-5.1-19.6-19.9-31-52.1-31l-50.2-0.1l-46.2-0.1h-4h-48
	c-3.1,0-6.2,2.5-6.9,5.6h0l-2.3,10.9l-2.7,12.8l-0.8,3.6l-23.4,109.7l-22.2,104.1c-0.7,3.1-0.9,6.8-0.5,8.3c0.4,1.5,6.4,2.8,9.5,2.8
	h46.9c3.1,0,7.1-0.6,8.8-1.3c1.7-0.7,4.2-6.8,4.8-9.9l8.3-41.3l8.3-41.2c0,0,0-0.1,0-0.1l1.1-5.5l10.1-47.4l8.9-41.9
	c0.7-3,3.7-5.5,6.9-5.5l147.6-0.1C1705.6,382.4,1707.6,379.9,1706.8,376.9L1706.8,376.9z"/>
<path class="st0" d="M1896.9,280.5c-3.1,0-8.2,0-11.4,0h-47.2c-3.1,0-7.1,2.1-8.9,4.7l-104.5,153.1c-1.8,2.6-3.8,2.2-4.5-0.8
	l-7.7-33.7c-0.7-3-3.8-5.5-6.9-5.5h-67.2c-3.1,0-5,2.5-4.1,5.5l30.1,105.4c0.9,3,0.9,7.9,0.1,11l-13.1,51c-0.8,3,1.1,5.5,4.3,5.5
	h66.4c3.1,0,6.3-2.5,7.1-5.5l13.1-51c0.8-3,2.9-7.5,4.8-10l169.6-225.1c1.9-2.5,0.9-4.5-2.3-4.5L1896.9,280.5L1896.9,280.5z"/>
<path class="st0" d="M1363.3,412.6L1363.3,412.6c-0.4,3.3-3.5,5.8-6.6,5.8h-85.2c-2.9,0-4.4-2-4-4.5c0-0.1,0-0.1,0.1-0.2
	c0,0,0,0-0.1,0c0-0.1,0-0.2,0-0.3c0,0,0.2-0.6,0.4-1.4c8.1-21.6,24.7-35.8,55.8-35.8C1358.8,376.2,1365.6,393.3,1363.3,412.6
	L1363.3,412.6z M1338.3,314.3c-109.3,0-135.2,66.3-149.7,133.3c-14.5,68.3-13.3,132.1,99.8,132.1h4c0.4,0,0.7,0,1.1,0h3.2h1.2h3
	c0.4,0,0.9,0,1.3,0c1.1,0,2.3,0,3.4,0h0.8c4.5,0,9,0,13.6,0h0.2c29.9-0.1,59.8-0.3,72-0.4c3.1,0,6.1-2.5,6.8-5.6l4.6-22.4l0.9-4.4
	l5.5-26.7c0.6-3.1-1.4-5.6-4.5-5.6h-101.7c-40.4,0-52.5-10.7-48-42.3h162.5l0,0c0,0,0.1,0,0.1,0c2.6,0,5-1.8,5.9-4.2
	c0.2-0.5,0.3-0.9,0.4-1.4l0,0C1448.6,375.6,1441.7,314.3,1338.3,314.3L1338.3,314.3z"/>
<path class="st0" d="M821.7,412.2l-1.5,5.4c0,0,0,0,0,0l-12.3,43.5l-12.3,43.5c-0.8,3-4.1,5.5-7.2,5.5h-65
	c-49.3,0-61.3-38.5-49.3-95.4c12-58.1,35.5-94.3,84-98C824.4,311.8,837.7,358.4,821.7,412.2L821.7,412.2z M866.2,506.8
	c0,0,30.6-74.4,37.6-117.3c9.5-57.5-19.3-140.9-130.5-140.9c-110.6,0-158.6,79.6-176.9,166.2c-18.3,87.2,5.7,163.6,115.6,163
	l86.7-0.3l81.1-0.3c3.1,0,6.3-2.5,7.1-5.5l14.1-53.9c0.8-3-1.1-5.5-4.2-5.5l-13.5-0.1l-13.5-0.1c-2.7,0-4.2-1.7-3.9-4
	C865.9,507.6,866,507.2,866.2,506.8L866.2,506.8z"/>
<path class="st0" d="M1413.6,457c0,2.1-1.7,3.7-3.7,3.7c-2.1,0-3.7-1.7-3.7-3.7c0-2.1,1.7-3.7,3.7-3.7
	C1411.9,453.3,1413.6,454.9,1413.6,457z"/>
<path class="st1" d="M21.9,360.3c-30.5,43.9-26.7,101-3.4,147.6c0.6,1.1,1.1,2.2,1.7,3.3c0.4,0.7,0.7,1.4,1.1,2.1
	c0.2,0.4,0.5,0.8,0.7,1.2c0.4,0.7,0.8,1.4,1.2,2.2c0.7,1.3,1.5,2.5,2.2,3.8c0.4,0.7,0.8,1.4,1.3,2.1c0.8,1.4,1.7,2.7,2.6,4
	c0.4,0.6,0.7,1.1,1.1,1.7c1.2,1.8,2.5,3.6,3.7,5.4c0,0,0.1,0.1,0.1,0.1c0.2,0.3,0.4,0.6,0.6,0.8c1.1,1.5,2.3,3,3.4,4.5
	c0.4,0.5,0.9,1.1,1.3,1.6c1,1.3,2.1,2.6,3.2,3.9c0.4,0.5,0.8,1,1.2,1.4c1.4,1.7,2.9,3.4,4.4,5c0,0,0.1,0.1,0.1,0.1
	c0.1,0.1,0.1,0.1,0.2,0.2c1.5,1.6,3,3.1,4.5,4.7c0.5,0.5,0.9,1,1.4,1.4c1.2,1.2,2.4,2.3,3.6,3.5c0.5,0.5,1,0.9,1.5,1.4
	c1.6,1.5,3.2,3,4.9,4.4c0,0,0,0,0.1,0.1c0.3,0.3,0.6,0.5,0.8,0.7c1.5,1.3,2.9,2.5,4.4,3.7c0.6,0.5,1.2,1,1.8,1.5
	c1.2,1,2.5,1.9,3.7,2.9c0.7,0.5,1.3,1,2,1.5c1.4,1,2.8,2,4.1,3c0.5,0.4,1,0.7,1.5,1.1c0.1,0.1,0.3,0.2,0.4,0.3
	c1.3,0.9,2.7,1.8,4,2.7c0.6,0.4,1.2,0.8,1.7,1.2c2.1,1.3,4.2,2.6,6.3,3.9c0.6,0.3,1.2,0.7,1.7,1c1.6,0.9,3.1,1.8,4.7,2.7
	c0.9,0.5,1.7,0.9,2.6,1.4c1.1,0.6,2.2,1.2,3.4,1.8c0.3,0.1,0.5,0.3,0.8,0.4c0.5,0.2,0.9,0.4,1.4,0.7c1.8,0.8,3.6,1.7,5.4,2.5
	c0.4,0.2,0.8,0.3,1.1,0.5c2.1,0.9,4.2,1.8,6.3,2.6c0.5,0.2,1,0.4,1.5,0.6c1.9,0.8,3.9,1.5,5.9,2.2c0.3,0.1,0.5,0.2,0.7,0.3
	c2.2,0.8,4.4,1.5,6.6,2.2c0.5,0.2,1.1,0.3,1.6,0.5c2.3,0.7,4.5,1.5,6.8,1.9c147.7,26.9,190.5-88.7,190.5-88.7
	c-36,46.9-100,59.3-160.5,45.5c-2.3-0.5-4.5-1.2-6.8-1.9c-0.6-0.2-1.1-0.3-1.7-0.5c-2.2-0.7-4.4-1.4-6.5-2.1
	c-0.3-0.1-0.6-0.2-0.9-0.3c-1.9-0.7-3.8-1.4-5.7-2.1c-0.5-0.2-1.1-0.4-1.6-0.6c-2.1-0.8-4.2-1.7-6.2-2.6c-0.4-0.2-0.8-0.4-1.2-0.5
	c-1.8-0.8-3.5-1.6-5.2-2.4c-0.5-0.2-1-0.5-1.5-0.7c-1.4-0.7-2.7-1.4-4-2.1c-0.9-0.5-1.8-0.9-2.7-1.4c-1.6-0.9-3.2-1.8-4.8-2.7
	c-0.5-0.3-1.1-0.6-1.6-0.9c-2.1-1.3-4.2-2.5-6.3-3.9c-0.6-0.4-1.1-0.8-1.7-1.1c-1.5-1-3-2-4.5-3c-0.5-0.3-1-0.7-1.4-1
	c-1.4-1-2.8-2-4.2-3.1c-0.6-0.5-1.3-0.9-1.9-1.4c-1.3-1-2.6-2-3.8-3c-0.6-0.5-1.1-0.9-1.7-1.4c-1.6-1.3-3.2-2.7-4.8-4
	c-0.2-0.1-0.3-0.3-0.5-0.4c-1.7-1.5-3.4-3-5-4.6c-0.5-0.5-0.9-0.9-1.4-1.4c-1.2-1.2-2.4-2.3-3.6-3.5c-0.5-0.5-0.9-0.9-1.4-1.4
	c-1.5-1.5-3-3.1-4.4-4.7c-0.1-0.1-0.1-0.2-0.2-0.2c-1.5-1.7-3-3.4-4.5-5.1c-0.4-0.5-0.8-0.9-1.2-1.4c-1.1-1.3-2.2-2.6-3.2-4
	c-0.4-0.5-0.8-1-1.2-1.5c-1.3-1.6-2.5-3.3-3.7-5C30.9,445.3,18.8,382,45.7,330.1"/>
<path class="st1" d="M116.7,323.3c-22.1,31.8-20.9,74.3-3.7,107.9c2.9,5.6,6.1,11.1,9.8,16.3c3.3,4.7,7,10.4,11.4,14.2
	c1.6,1.8,3.3,3.5,5,5.1c0.4,0.4,0.9,0.9,1.3,1.3c1.6,1.6,3.3,3.2,5.1,4.7c0.1,0.1,0.1,0.1,0.2,0.2c0,0,0,0,0,0
	c1.9,1.7,3.9,3.3,5.9,4.9c0.4,0.3,0.9,0.7,1.3,1c2,1.5,4.1,3.1,6.2,4.5c0.1,0,0.1,0.1,0.2,0.1c0.9,0.6,1.9,1.2,2.8,1.9
	c0.5,0.3,0.9,0.6,1.3,0.9c1.5,1,3,1.9,4.6,2.8c0.2,0.1,0.4,0.3,0.6,0.4c1.3,0.8,2.7,1.5,4.1,2.3c0.5,0.3,1,0.5,1.4,0.8
	c0.9,0.5,1.9,1,2.8,1.5c0.1,0.1,0.3,0.1,0.4,0.2c1.9,1,3.9,1.9,5.9,2.8c0.4,0.2,0.9,0.4,1.3,0.5c1.6,0.7,3.2,1.3,4.8,2
	c0.7,0.3,1.4,0.5,2.1,0.8c1.5,0.5,3,1,4.4,1.5c0.7,0.2,1.3,0.4,2,0.6c2.1,0.7,4.2,1.5,6.4,1.9c114,18.9,140.3-68.9,140.3-68.9
	c-23.7,34.2-69.7,50.5-118.7,37.7c-2.2-0.6-4.3-1.2-6.5-1.9c-0.7-0.2-1.3-0.4-1.9-0.6c-1.5-0.5-3-1-4.5-1.6c-0.7-0.3-1.4-0.5-2-0.8
	c-1.6-0.6-3.3-1.3-4.9-2c-0.4-0.2-0.9-0.4-1.3-0.6c-2-0.9-4-1.8-5.9-2.8c-1-0.5-2-1-3-1.5c-0.6-0.3-1.1-0.6-1.7-0.9
	c-1.3-0.7-2.5-1.4-3.8-2.1c-0.3-0.2-0.6-0.3-0.9-0.5c-1.5-0.9-3.1-1.8-4.6-2.8c-0.5-0.3-0.9-0.6-1.4-0.9c-1-0.6-2-1.3-3-2
	c-2.1-1.4-4.1-3-6.2-4.5c-0.5-0.4-0.9-0.7-1.4-1.1c-21.5-16.9-38.5-40.1-46.6-66.4c-8.5-27.2-6.6-57.8,8-82.6"/>
<path class="st1" d="M196.4,295.7c-13,19.2-14.3,42.9-5.3,64.1c9.5,22.5,29,40.1,51.8,48.4c0.9,0.3,1.9,0.7,2.8,1
	c0.4,0.1,0.8,0.3,1.2,0.4c1.3,0.4,2.7,0.9,4.1,1.2c62.9,12.2,80-32.3,84.6-38.8c-15,21.5-40.1,26.7-70.9,19.2
	c-2.4-0.6-5.1-1.5-7.5-2.3c-3-1.1-6-2.3-8.9-3.7c-5.5-2.6-10.7-5.8-15.5-9.5c-27.6-20.9-44.7-60.9-26.7-93.4"/>
<path class="st1" d="M905.3,668.8l-18.1,41.3h-20l1.6-37.5L854,710.1h-19.4l-0.5-41.3l2.1-10.2H850l-2.6,40.8l15.2-40.8h19.2
	l-1.4,41.3l15.1-41.3h12L905.3,668.8L905.3,668.8z"/>
<path class="st1" d="M936.9,681c1.8-8.1,1.3-9.6-2.9-9.6h-6.3l-4,18.9l-6.2,19.8h-11.7l9.6-44.8l1.4-6.6h10.7l1.4,3
	c0,0,6.2-3.6,12.2-3.6c12.9,0,11.8,9.7,9.1,22.9L936.9,681L936.9,681z"/>
<path class="st1" d="M975,652.2c-5.2,0-8.4-1.5-7.2-7.8c1.4-6.3,5.4-7.8,10.5-7.8c5,0,8.4,1.5,7.1,7.8
	C984.1,650.5,980,652.2,975,652.2L975,652.2z M969.5,710.1h-11.6l2.3-20.2l4-18.6l-8.1-1.8l2.3-11h22L969.5,710.1L969.5,710.1z"/>
<path class="st1" d="M1019.7,669.5l-14.5,1.8l-4.2,19.7c-1.1,5.4-1.1,6.9,3.7,6.9h9.7l-2,10.3c0,0-8.8,2.6-12.6,2.6
	c-14.9,0-14.7-8.2-12.1-20.4l4-19.3l-8.1-1.8l2.4-11h8.4l4.8-13h11.5l-2.8,13h14.1L1019.7,669.5L1019.7,669.5z"/>
<path class="st1" d="M1049.8,670.2c-6.8,0-10.3,3.5-11.7,9.8l19.4-1.6C1058.4,674.1,1057.5,670.2,1049.8,670.2L1049.8,670.2z
	 M1036.2,689.3c-0.9,6.3,1.5,8.4,9.6,8.4h20.3l-2,9.6c0,0-12.2,3.4-21.3,3.4c-22.6,0-22.8-12.7-19.9-26.3
	c2.9-13.4,8.1-26.6,29.9-26.6c21,0,22.1,12.7,16.9,31.5L1036.2,689.3L1036.2,689.3z"/>
<path class="st1" d="M1115.8,710.1h-11.6l2.3-20.2l8.2-38.3l-8.1-1.9l2.4-11h22.1L1115.8,710.1L1115.8,710.1z"/>
<path class="st1" d="M1157.7,670.2c-6.8,0-10.3,3.5-11.7,9.8l19.4-1.6C1166.3,674.1,1165.4,670.2,1157.7,670.2L1157.7,670.2z
	 M1144.1,689.3c-0.9,6.3,1.5,8.4,9.6,8.4h20.3l-2,9.6c0,0-12.2,3.4-21.3,3.4c-22.6,0-22.8-12.7-19.9-26.3
	c2.9-13.4,8.1-26.6,29.9-26.6c21,0,22,12.7,16.9,31.5L1144.1,689.3L1144.1,689.3z"/>
<path class="st1" d="M1230.6,670.8c0,0-14.7,0.1-18.8,0.1c-8.6,0-9.5,2.6-10.1,5.4l-0.5,2.5l27.2,2c0,0,0.1,8.7-1,13.6
	c-1.6,8.2-10.1,16.5-25.3,16.5c-7.6,0-19.8-2.9-19.8-2.9l2.1-10h18.8c8.3,0,9.5-2.3,10-4.5l0.6-3.3l-26.7-2c0,0-1-6.7,0.4-13.4
	c2-9.1,10.3-16.9,25.6-16.9c7.6,0,19.8,2.8,19.8,2.8L1230.6,670.8L1230.6,670.8z"/>
<path class="st1" d="M1281.3,670.8c0,0-14.7,0.1-18.8,0.1c-8.6,0-9.4,2.6-10.1,5.4l-0.5,2.5l27.2,2c0,0,0.1,8.7-1,13.6
	c-1.6,8.2-10.1,16.5-25.3,16.5c-7.6,0-19.8-2.9-19.8-2.9l2.1-10h18.8c8.3,0,9.4-2.3,10-4.5l0.6-3.3l-26.7-2c0,0-1-6.7,0.4-13.4
	c2-9.1,10.3-16.9,25.6-16.9c7.6,0,19.8,2.8,19.8,2.8L1281.3,670.8L1281.3,670.8z"/>
<path class="st1" d="M1297.1,718.3h-10.1l0.4-7.6c-3.7-0.2-5.5-2.9-4.7-7.3c1.4-6.3,5.3-7.8,10.5-7.8c5,0,8.4,1.5,7.1,7.8
	L1297.1,718.3L1297.1,718.3z"/>
<path class="st1" d="M1364.5,671.3c-7.6,0-10.2,4.5-12,12.9s-1.3,13.2,6.3,13.2h10.5l5.8-26.1H1364.5z M1381.8,703.5l-1.4,6.7
	l-10.6-0.1l-1.5-3.3c0,0-9.3,4-15.6,4c-16.1,0-16.9-13.2-14-26.6c2.9-13.6,9.2-26.5,25.2-26.5c5.8,0,13.6,2.9,13.6,2.9l6.4-21.8
	h11.6L1381.8,703.5L1381.8,703.5z"/>
<path class="st1" d="M1423.5,670.8c-9.8,0-13,5.5-14.7,13.6c-1.6,8.2-0.9,13.7,8.8,13.7c10.1,0,13.1-5.4,14.9-13.7
	C1434.2,676.6,1433.7,670.8,1423.5,670.8L1423.5,670.8z M1415,710.9c-20.8,0-22.4-13-19.7-26.5c2.9-13.5,10.2-26.3,31-26.3
	c20.7,0,22.6,12.9,19.6,26.3C1443,698.2,1435.7,710.9,1415,710.9z"/>
<path class="st1" d="M1532.9,710.1l2.3-19.9l1.1-5.7c1.6-7.6,2.6-13.1-5.3-13.1h-6.2c0.3,3.9-0.5,8.3-1.5,13l-5.4,25.7h-11.7
	l2.3-19.9l1.1-5.7c1.6-7.6,2.6-13.1-5.3-13.1h-5l-8.3,38.7h-13.5l11-51.5h10.6l1.6,3.1c0,0,7.2-3.8,13-3.8c4.4,0,7.7,2,8.8,4.5
	c2.5-1.4,9.7-4.5,14.9-4.5c16.1,0,15.6,13.1,12.7,26.5l-5.4,25.7L1532.9,710.1L1532.9,710.1z"/>
<path class="st1" d="M1586.4,670.8c-9.8,0-13,5.5-14.7,13.6c-1.6,8.2-0.9,13.7,8.8,13.7c10.1,0,13.1-5.4,14.9-13.7
	C1597.2,676.6,1596.6,670.8,1586.4,670.8z M1577.9,710.9c-20.8,0-22.4-13-19.7-26.5c2.9-13.5,10.2-26.3,31-26.3
	c20.7,0,22.6,12.9,19.7,26.3C1606,698.2,1598.7,710.9,1577.9,710.9z"/>
<path class="st1" d="M1643.9,681c1.8-8.1,1.3-9.6-2.9-9.6h-6.3l-4,18.9l-6.2,19.8h-11.7l9.6-44.8l1.4-6.6h10.7l1.4,3
	c0,0,6.2-3.6,12.2-3.6c12.8,0,11.8,9.7,9.1,22.9L1643.9,681L1643.9,681z"/>
<path class="st1" d="M1689,670.2c-6.8,0-10.3,3.5-11.7,9.8l19.4-1.6C1697.6,674.1,1696.7,670.2,1689,670.2L1689,670.2z
	 M1675.4,689.3c-0.9,6.3,1.5,8.4,9.6,8.4h20.3l-2,9.6c0,0-12.2,3.4-21.3,3.4c-22.6,0-22.8-12.7-19.9-26.3
	c2.9-13.4,8.1-26.6,29.9-26.6c21,0,22.1,12.7,16.9,31.5L1675.4,689.3L1675.4,689.3z"/>
<path class="st1" d="M1720.1,710.9c-5.3,0-8.6-1.5-7.2-7.7c1.3-6.3,5.2-7.8,10.5-7.8c4.9,0,8.3,1.5,7.1,7.8
	C1729,709.3,1725,710.9,1720.1,710.9z"/>
</svg>
