<?xml version="1.0" encoding="utf-8"?>
<!-- Generator: Adobe Illustrator 24.0.1, SVG Export Plug-In . SVG Version: 6.00 Build 0)  -->
<svg version="1.1" id="Layer_1" xmlns="http://www.w3.org/2000/svg" xmlns:xlink="http://www.w3.org/1999/xlink" x="0px" y="0px"
	 viewBox="0 0 500 500" style="enable-background:new 0 0 500 500;" xml:space="preserve">
<style type="text/css">
	.st0{fill:#6A7E91;}
	.st1{fill:#FA8A3B;}
	.st2{fill-rule:evenodd;clip-rule:evenodd;fill:#FA8A3B;}
	.st3{fill-rule:evenodd;clip-rule:evenodd;fill:#6A7E91;}
</style>
<g id="XMLID_1_">
	<path id="XMLID_4_" class="st0" d="M123.1,382.5h-19c-0.7-32-2.6-62-5.5-90.2h-0.1l-28.8,90.2H55.3l-28.6-90.2h-0.1
		c-2.2,27-3.5,57.1-4,90.2H5c1.1-40.2,3.9-78,8.3-113.1h23.5l27.3,83.1h0.1l27.4-83.1h22.4C119.2,310.6,122.1,348.4,123.1,382.5"/>
	<path id="XMLID_18_" class="st0" d="M205.1,299c-7.7,41.8-17.9,72.2-30.5,91.1c-9.8,14.7-20.6,21.9-32.4,21.9
		c-3.1,0-7-0.9-11.6-2.8v-10.1c2.3,0.3,4.8,0.5,7.9,0.5c5.5,0,9.9-1.5,13.2-4.6c4-3.6,6-7.8,6-12.4c0-3.1-1.6-9.5-4.7-19.2
		L132.2,299h18.6l14.9,48.3c3.4,11,4.7,18.6,4.2,23c8.2-21.8,13.8-45.6,17.1-71.2L205.1,299L205.1,299z"/>
	<polygon id="XMLID_19_" class="st1" points="457.1,382.5 403.4,382.5 403.4,269.3 421.5,269.3 421.5,368.5 457.1,368.5 	"/>
	<path id="XMLID_25_" class="st2" d="M389.2,385.2L368.4,375c1.9-1.5,3.6-3.1,5.2-5.1c8.9-10.4,13.3-25.7,13.3-46.1
		c0-37.4-14.7-56.2-44.1-56.2c-14.4,0-25.7,4.7-33.7,14.2c-8.9,10.4-13.2,25.7-13.2,46c0,19.9,3.9,34.4,11.7,43.7
		c7.1,8.3,17.9,12.5,32.4,12.5c5.4,0,10.4-0.7,14.8-2l27,15.7L389.2,385.2z M321.9,359.8c-4.6-7.4-6.9-19.2-6.9-35.5
		c0-28.5,8.6-42.7,25.9-42.7c9,0,15.7,3.4,19.9,10.2c4.6,7.4,6.9,19.1,6.9,35.2c0,28.8-8.6,43-25.9,43
		C332.8,370.1,326.2,366.6,321.9,359.8"/>
	<path id="XMLID_26_" class="st1" d="M288,351.2c0,9.5-3.5,17.5-10.5,23.7c-7,6.2-16.5,9.3-28.4,9.3c-11,0-21.8-3.5-32.1-10.6
		l4.8-9.7c8.9,4.4,17.1,6.7,24.3,6.7c6.9,0,12.1-1.5,16-4.6c3.9-3,6.2-7.3,6.2-12.5c0-6.7-4.7-12.5-13.3-17.2
		c-7.9-4.3-23.8-13.4-23.8-13.4c-8.6-6.3-12.9-13-12.9-24.1c0-9.1,3.2-16.5,9.7-22.2s14.8-8.5,24.9-8.5c10.5,0,20,2.8,28.6,8.3
		l-4.4,9.7c-7.4-3.1-14.7-4.7-21.8-4.7c-5.8,0-10.2,1.3-13.4,4.2c-3.1,2.8-5.1,6.3-5.1,10.8c0,6.7,4.8,12.5,13.6,17.5
		c8.1,4.3,24.3,13.6,24.3,13.6C283.7,333.4,288,340.2,288,351.2"/>
	<path id="XMLID_27_" class="st3" d="M479.8,231.5c-10.9-0.3-19.4,0.8-26.5,3.8c-2,0.8-5.4,0.8-5.6,3.4c1.1,1.1,1.2,2.8,2.2,4.4
		c1.6,2.7,4.4,6.5,7.1,8.3c2.8,2.2,5.8,4.3,8.7,6.3c5.4,3.4,11.3,5.2,16.5,8.5c3,1.9,6,4.3,9,6.5c1.5,1.1,2.4,2.8,4.3,3.5v-0.4
		c-0.9-1.2-1.2-3-2.2-4.4c-1.3-1.3-2.7-2.6-4.2-3.9c-4-5.4-8.9-9.9-14.2-13.8c-4.4-3-14-7.1-15.7-12.1l-0.3-0.3
		c3-0.3,6.6-1.3,9.4-2.2c4.7-1.2,8.9-0.9,13.7-2.2c2.2-0.5,4.4-1.2,6.6-1.9v-1.2c-2.4-2.4-4.3-5.8-6.9-8.1c-7-6-14.7-11.8-22.6-16.8
		c-4.3-2.7-9.7-4.4-14.2-6.9c-1.6-0.8-4.3-1.2-5.4-2.6c-2.4-3-3.9-7-5.6-10.5c-3.9-7.5-7.8-15.9-11.2-23.8c-2.4-5.4-3.9-10.6-7-15.6
		c-14.1-23.3-29.4-37.4-52.8-51.1c-5.1-2.8-11-4.2-17.5-5.6c-3.4-0.1-6.9-0.4-10.2-0.5c-2.2-0.9-4.4-3.5-6.3-4.8
		c-7.8-5-27.8-15.6-33.6-1.5c-3.6,8.9,5.5,17.6,8.6,22.2c2.3,3.1,5.4,6.7,7,10.2c0.9,2.3,1.2,4.8,2.2,7.3c2.2,6,4.2,12.8,7.1,18.3
		c1.5,2.8,3.1,5.9,5.1,8.5c1.1,1.5,3,2.2,3.4,4.7c-1.9,2.7-2,6.9-3.1,10.2c-5,15.5-3,34.5,4,46c2.2,3.4,7.4,10.9,14.4,8.1
		c6.2-2.4,4.8-10.2,6.6-17.1c0.4-1.6,0.1-2.7,0.9-3.8v0.3c1.9,3.8,3.8,7.5,5.6,11.3c4.3,6.7,11.6,13.7,17.7,18.3
		c3.2,2.4,5.9,6.7,9.9,8.2v-0.4h-0.3c-0.8-1.2-2-1.7-3.1-2.7c-2.4-2.4-5.2-5.5-7.1-8.2c-5.8-7.7-10.8-16.1-15.3-24.9
		c-2.2-4.3-4.2-8.9-5.9-13.2c-0.8-1.6-0.8-4-2.2-5c-2,3-5.1,5.6-6.6,9.3c-2.6,5.9-2.8,13.2-3.9,20.7c-0.5,0.1-0.3,0-0.5,0.3
		c-4.3-1.1-5.9-5.6-7.5-9.4c-4-9.7-4.8-25.3-1.2-36.6c0.9-2.8,5.1-11.8,3.4-14.7c-0.8-2.6-3.5-4-5.1-6.2c-1.7-2.6-3.8-5.9-5-8.7
		c-3.2-7.7-5-16.1-8.5-23.8c-1.6-3.5-4.6-7.3-6.9-10.5c-2.6-3.6-5.5-6.3-7.5-10.6c-0.7-1.5-1.6-4-0.5-5.6c0.3-1.1,0.8-1.5,1.9-1.7
		c1.7-1.5,6.9,0.4,8.6,1.2c5.1,2,9.3,4,13.6,6.9c1.9,1.3,4,3.9,6.5,4.7h2.8c4.4,0.9,9.3,0.3,13.4,1.5c7.3,2.3,13.8,5.8,19.6,9.4
		c17.9,11.3,32.7,27.4,42.6,46.8c1.6,3.1,2.3,6,3.9,9.3c2.8,6.7,6.5,13.6,9.3,20.2c2.8,6.5,5.6,13,9.7,18.3c2,2.8,10.2,4.3,14,5.9
		c2.7,1.2,7,2.3,9.4,3.8c4.7,2.8,9.3,6.2,13.7,9.3C472.6,225.4,479.4,228.7,479.8,231.5"/>
	<path id="XMLID_28_" class="st3" d="M340.4,112.7c-2.3,0-3.9,0.3-5.6,0.7v0.3h0.3c1.1,2.2,3,3.6,4.4,5.6c1.1,2.2,2,4.3,3.1,6.6
		l0.3-0.3c1.9-1.3,2.8-3.5,2.8-6.9c-0.8-0.9-0.9-1.9-1.6-2.8C343.3,114.4,341.5,113.8,340.4,112.7"/>
	<path id="XMLID_31_" class="st1" d="M492.9,382.5h2.8v-13.8h-4.3l-3.5,9.4l-3.8-9.4h-4v13.8h2.7v-10.6h0.1l3.9,10.5h2l3.9-10.5
		v10.6H492.9z M470,382.5h3v-11.6h3.9v-2.4h-11v2.4h4v11.6H470z"/>
</g>
</svg>
