<?xml version="1.0" encoding="utf-8"?>
<!-- Generator: Adobe Illustrator 24.0.1, SVG Export Plug-In . SVG Version: 6.00 Build 0)  -->
<svg version="1.1" id="Layer_1" xmlns="http://www.w3.org/2000/svg" xmlns:xlink="http://www.w3.org/1999/xlink" x="0px" y="0px"
	 viewBox="0 0 193.9 148.6" style="enable-background:new 0 0 193.9 148.6;" xml:space="preserve">
<style type="text/css">
	.st0{fill:url(#SVGID_1_);}
	.st1{fill:#494036;}
	.st2{fill:#938373;}
	.st3{fill:#EFD3D7;}
</style>
<title>blast1</title>
<g id="Layer_2_1_">
	<g id="background">
		<g id="blast">
			<linearGradient id="SVGID_1_" gradientUnits="userSpaceOnUse" x1="96.91" y1="148.65" x2="96.91" y2="-9.094947e-13">
				<stop  offset="3.409785e-07" style="stop-color:#494036"/>
				<stop  offset="1" style="stop-color:#000000"/>
			</linearGradient>
			<path class="st0" d="M120.6,0c-5.1,5.9-5.8,11.8-1.5,17.6c19-7.9,16.9,5.3,14.1,9.2c-8.8-5.9,7.2-17.7,9.4-6.8
				c3.5,3.8,2.5,7-7.3,8.9c7.5,0.8,8.1,9.1,8.5,8.9c16.8-10.6,30.3-17.3,39.2-18.3c-8.4,15-25.3,28.1-45.4,40.3
				c19.7-11.5,38.5-17.5,56.1-15.5c-17.1,7.7-34.5,19.1-52.2,32.8c18.3-1.4,35.4-0.3,48.4,9.2c-11.3-1.3-31.6,3.2-52.4,8.2
				c16.6,2.7,31.2,7.2,42.1,15c-13.7-3.2-32.4-2.9-53.2-1.1c18.4,7.5,35.1,18.7,48.9,32.9c-16.7-5.9-34.1-9.9-51.7-12.1
				c-4.6-1.1-9.3,1.5-11,5.9c2.8,4.7-1,9.2-5.2,13.8c-0.4-7-2.3-13.6-8.6-18.9c-2.2-4.9-8.1-7.1-13-4.9c-1.2,0.6-2.4,1.4-3.3,2.4
				c1.3,4-3,6.9-8.5,9.6c2.5-5,3-10.7,1.5-16.1c0.3-3.6-2.3-6.8-5.9-7.2c-1.4-0.1-2.7,0.2-3.9,0.8c-3,7.4-15.4,12.5-29.9,17
				c8.9-8,16.7-15.9,18.5-23.1c1.8-2.3,1.5-5.5-0.8-7.4c-1.4-1.1-3.3-1.5-5-0.9c-1.7,8.4-15.7,8.8-28.9,9.8
				c12.1-5.2,23.6-10.4,23.2-18.1c-17.1-17-1.8-25.4-1-28.1c-4.3,14.5-24-4.2-42.2-19.5c13.9,9.4,27.7,18.3,36.4,8.6
				c-0.9-1.6-37-29.4,14.3-19.2C30.5,48.9,27,42,39.3,14C79.5,24.5,63.9,63.1,62,33.2c4.5,8.5,14.9,5.7,20.5-6.1l4.1-13.7l2,8
				c1.6,6.4,8.1,10.3,14.6,8.7c1.4-0.3,2.7-0.9,3.8-1.7C101.8,18.8,108,9.3,120.6,0z"/>
			<path class="st1" d="M105.7,27.8L104.8,39c-0.4,4.8,4.3,8.2,8.1,5.8l2.6-1.6l-1.4,2.9c-1.6,3.5,1.7,7.3,4.9,5.6l22.4-11.7
				l-26,25.6l32.1-9.9l-29.8,20.9l27.7,5.8l-30,5.2l24.1,9.5l-30.5-0.7l28,20.9l-29.6-7.7c-2.8-0.6-5.5,1-6.3,3.8l-3,8.7l-4.9-12
				c-1.7-4.1-6.6-5-9.3-1.6l-4.9,6.1l0.9-10.3c0.3-3.3-3-5.7-5.6-4l-17.1,10.8l10.6-14.7c1.9-2.6-0.5-6.3-3.3-5.2L48,97.6l13.3-11.5
				c5.3-4.6,5-13.6-0.5-17.8L36.6,55.8l20.8,5.5c6.4,1.7,11.5-5.9,8.2-12.2l-6.5-12.4l13,12.2c4,3.8,10.2,1.7,11.7-3.9l2.4-8.7
				l1.2,5.1c1.2,5.1,6.6,7.4,10.5,4.4L105.7,27.8z"/>
			<path class="st2" d="M97.7,48.1l-0.4,6.2c-0.2,2.7,2.2,4.6,4.1,3.3l1.3-0.9l-0.7,1.6c-0.8,2,0.8,4.1,2.5,3.1l11.4-6.5l-13.2,14.2
				l16.4-5.5l-15.2,11.6l14.1,3.2l-15.3,2.9l12.3,5.3l-15.5-0.4L113.7,98l-15.1-4.3c-1.5-0.3-2.9,0.6-3.2,2.1c0,0,0,0,0,0l-1.5,4.9
				L91.4,94c-0.9-2.3-3.4-2.8-4.8-0.9l-2.5,3.4l0.4-5.7c0.1-1.9-1.5-3.2-2.8-2.2l-8.7,6l5.4-8.2c1-1.4-0.2-3.5-1.7-2.9L68.3,87
				l6.7-6.4c2.7-2.8,2.6-7.2-0.2-9.9c0,0-0.1-0.1-0.1-0.1l-12.3-6.9l10.6,3c3.3,0.9,5.8-3.3,4.2-6.8L73.9,53l6.6,6.8
				c2,2.1,5.2,1,6-2.1l1.2-4.8l0.6,2.8c0.6,2.9,3.4,4.1,5.4,2.5L97.7,48.1z"/>
			<path class="st3" d="M93.4,66.6L93.2,69c-0.1,0.6,0.3,1.2,1,1.4c0.3,0,0.5,0,0.7-0.1l0.6-0.3l-0.3,0.6c-0.3,0.7,0.3,1.6,1,1.2
				l4.8-2.5l-5.6,5.4l6.9-2.1L95.9,77l5.9,1.2l-6.4,1.1l5.2,2l-6.5-0.2l6,4.4L93.8,84c-0.6-0.1-1.2,0.2-1.3,0.8l-0.6,1.8l-1.1-2.6
				c-0.2-0.6-0.9-0.9-1.5-0.7c-0.2,0.1-0.4,0.2-0.5,0.4l-1,1.3l0.2-2.2c0.1-0.4-0.2-0.9-0.6-0.9c-0.2,0-0.4,0-0.6,0.1L83,84.4
				l2.3-3.1c0.4-0.6-0.1-1.3-0.7-1.1L81,81.5l2.9-2.5c1-0.9,1.1-2.5,0.2-3.5c-0.1-0.1-0.2-0.2-0.3-0.3l-5.2-2.6l4.4,1.2
				c0.9,0.1,1.8-0.5,2-1.4c0.1-0.4,0-0.8-0.2-1.2l-1.4-2.6l2.8,2.6c0.6,0.6,1.6,0.5,2.1-0.1c0.2-0.2,0.3-0.4,0.4-0.7l0.5-1.8
				l0.3,1.1c0.1,0.8,0.8,1.3,1.6,1.2c0.2,0,0.4-0.1,0.6-0.3L93.4,66.6z"/>
		</g>
	</g>
</g>
</svg>
