<svg xmlns="http://www.w3.org/2000/svg" xmlns:xlink="http://www.w3.org/1999/xlink" viewBox="0 0 201.78 134.66"><defs><style>.cls-1{fill:#ddd;}.cls-2{fill:#bbb;opacity:0.5;}</style><symbol id="cloud" data-name="cloud" viewBox="0 0 201.78 134.66"><path class="cls-1" d="M104.12,66.34c-.66,38.82-58.4,38.82-59.06,0C45.72,27.52,103.46,27.53,104.12,66.34Z"/><path class="cls-1" d="M143.33,51.21C142.62,93,80.51,93,79.8,51.2,80.52,9.45,142.62,9.46,143.33,51.21Z"/><path class="cls-1" d="M71.86,98.85a35.81,35.81,0,0,1-35.73,35.74C4.38,135.72-11.81,93.06,11.81,72.68h0C33.43,51.41,72.68,68.35,71.86,98.85Z"/><path class="cls-1" d="M111.57,92.15c-.3,30.52-45.71,32.23-48.1,1.55C62.06,61.05,110.92,59.56,111.57,92.15Z"/><path class="cls-1" d="M147.3,83.22c.3,24.15-35,29.65-42.11,6.7C96.21,58.27,145.92,50.18,147.3,83.22Z"/><path class="cls-1" d="M80.3,60.64c-.77,45-67.73,45-68.49,0C12.57,15.62,79.54,15.63,80.3,60.64Z"/><path class="cls-1" d="M104.12,28.62c-.65,38.17-57.42,38.16-58.07,0C46.7-9.54,103.48-9.54,104.12,28.62Z"/><path class="cls-1" d="M164.67,68.08c-.49,28.71-43.19,28.7-43.67,0C121.49,39.37,164.19,39.38,164.67,68.08Z"/><path class="cls-1" d="M195.94,86.94c-.6,38.1-64,38.93-65,0C132.1,47.81,195.4,49,195.94,86.94Z"/><path class="cls-2" d="M195.94,87.2c.25,29.52-44.86,39.29-60.17,15.13-7.82,4.39-19,2.69-25.11-3.63-4,17.19-28.37,23.49-40.29,10.38-21.52,56.55-99.78,8-58.56-36.4,0,1.14,23.65,42.27,51.61,19.47,11.1,6.76,34.5,17.95,41.77-2.23,8.63,8.34,28.72,14.66,37.65,0C152.47,99.16,179.11,107.36,195.94,87.2Z"/><path class="cls-1" d="M196.68,86.56l-.74.38S208.58,76.22,196.68,86.56Z"/></symbol></defs><title>cloud1</title><g id="Layer_2" data-name="Layer 2"><g id="objects"><use width="201.78" height="134.66" xlink:href="#cloud"/></g></g></svg>