<svg xmlns="http://www.w3.org/2000/svg" viewBox="0 0 291 83.44"><defs><style>.cls-1{fill:#222;}</style></defs><title>enemySub</title><g id="Layer_2" data-name="Layer 2"><g id="objects"><path class="cls-1" d="M225,27.76H150s-3.87-20.16-9-24c-8-6-40-3-40-3s-3,3,0,8,6,12,5,14-3,5-3,5H47s-13,2-18,4-17,8-20,11-9,11-9,13,4,17,6,19,7.85,4.51,10.79,5C66.66,88,219,79.76,219,79.76s22-4,29-12l3-1,3,10,23-1-10-19,4-1v-3h20v-4H270v-6h-4l15-19H255l-7,10a20.68,20.68,0,0,0-11-5A94,94,0,0,0,225,27.76Z"/></g></g></svg>