<?xml version="1.0" encoding="utf-8"?>
<!-- Generator: Adobe Illustrator 24.0.1, SVG Export Plug-In . SVG Version: 6.00 Build 0)  -->
<svg version="1.1" id="Layer_1" xmlns="http://www.w3.org/2000/svg" xmlns:xlink="http://www.w3.org/1999/xlink" x="0px" y="0px"
	 viewBox="0 0 484.5 162.3" style="enable-background:new 0 0 484.5 162.3;" xml:space="preserve">
<style type="text/css">
	.st0{fill:#4B5320;stroke:#000000;stroke-miterlimit:10;}
	.st1{fill:#1F210D;stroke:#000000;stroke-miterlimit:10;}
	.st2{fill:url(#SVGID_1_);stroke:#000000;stroke-miterlimit:10;}
	.st3{fill:none;stroke:#000000;stroke-width:2;stroke-miterlimit:10;}
	.st4{fill:#F41C1C;stroke:#000000;stroke-miterlimit:10;}
	.st5{fill:none;stroke:#000000;stroke-width:5;stroke-linecap:round;stroke-miterlimit:10;}
</style>
<title>fighterPlane</title>
<g id="Layer_2_1_">
	<g id="master">
		<g id="fighterPlane">
			<path class="st0" d="M72,56.2c0,0,39.9,10.5,56.7,12.6s65.2-6.3,65.2-6.3s46.2-23.1,69.4-23.1s42,6.3,48.4,14.7
				S484,60.4,484,79.3s-40,25.2-40,25.2v12.6c0,0-119.8,23.1-166,16.8c0,0-2.1,12.6-10.5,12.6s-69.4,6.3-128.2-29.4
				c0,0-109.3-14.7-121.9-16.8S0.7,80.1,0.5,68.8C0.3,57.3,6,6.7,11,7.8c12.7-8.9,24.6-8.7,35.7,0L72,56.2z"/>
			<path class="st1" d="M208.6,123.4c0,0,33.6-12.6,61-25.2s71.5,8.4,77.8,12.6s5.3,20.4,5.3,20.4c-26.9,4.1-51.5,5-72.5,0.6
				L208.6,123.4z"/>
			
				<linearGradient id="SVGID_1_" gradientUnits="userSpaceOnUse" x1="275.662" y1="658.3378" x2="243.9569" y2="713.252" gradientTransform="matrix(1 0 0 1 0 -628)">
				<stop  offset="0" style="stop-color:#CCE0F4"/>
				<stop  offset="0.11" style="stop-color:#D5E6F6"/>
				<stop  offset="0.26" style="stop-color:#EBF4FA"/>
				<stop  offset="0.37" style="stop-color:#CDD9DF"/>
				<stop  offset="0.62" style="stop-color:#829299"/>
				<stop  offset="0.97" style="stop-color:#122A32"/>
			</linearGradient>
			<path class="st2" d="M199.7,59.7c0,0,19.4,11.2,59.4,11.2s60.2-14.3,60.2-14.3c3.6,0.3-29.8-21.2-60.2-17.2
				C233.8,42.7,199.8,58.5,199.7,59.7z"/>
			<line class="st3" x1="299.3" y1="45.9" x2="299.3" y2="65.3"/>
			<path class="st4" d="M8.9,10h39c0,0,0.4-4.9-17.2-8.8S8.9,10,8.9,10z"/>
			<path class="st4" d="M444,104.5V66.6c0,0,42,4.3,39.9,12.7S479.8,98.2,444,104.5z"/>
			<path class="st1" d="M26.8,74.1L79.3,72c0,0,18.9,4.2,8.4,8.4s-52.5,4.2-58.9,2.1S26.8,74.1,26.8,74.1z"/>
			<line class="st5" x1="458" y1="21.8" x2="458" y2="159.8"/>
		</g>
	</g>
</g>
</svg>
