<svg xmlns="http://www.w3.org/2000/svg" viewBox="0 0 106.56 63.01"><defs><style>.cls-1{fill:#131922;}</style></defs><g id="Layer_2" data-name="Layer 2"><g id="objects"><path class="cls-1" d="M.06,37.63S-.3,32,.77,30.89s8.52-9.94,11-11,7.46-5,34.44-6.39c0,0,0-7.81,22.36-13.49,0,0-18.46,9.59-14.2,13.14s20.59,16,22.72,16,1.78,1.07,4.62-.35S103,8.17,106.56,9.59c0,0-16.33,17-15.27,22s13.85,20.84,15.27,21.07c0,0-16.15-5.63-23.61-15.93,0,0-6.74-2.84-7.81-.71s3.91-.71,1.78,1.42S55.23,50.85,55.24,52.67s2.5,8.92,5.7,10.34c0,0-7.46-.35-13.14-9.58,0,0-5.15-2.84-8.61-3s-9.14-.89-9.85-.89S2.25,46.22,0,40.77c0,0,3.07.23,1.65-1.54S.06,37.63.06,37.63Z"/></g></g></svg>