<svg xmlns="http://www.w3.org/2000/svg" viewBox="0 0 179.6 106.21"><defs><style>.cls-1{fill:#131922;}</style></defs><g id="Layer_2" data-name="Layer 2"><g id="objects"><path class="cls-1" d="M.1,63.43s-.6-9.58,1.19-11.37S15.65,35.3,19.84,33.51s12.57-8.38,58-10.77c0,0,0-13.17,37.7-22.74,0,0-31.12,16.16-23.93,22.14s34.7,26.93,38.29,26.93,3,1.79,7.78-.6,35.9-34.71,41.88-32.31c0,0-27.52,28.72-25.73,37.09S177.21,88.4,179.6,88.78c0,0-27.22-9.5-39.79-26.85,0,0-11.37-4.79-13.16-1.2s6.58-1.19,3,2.4S93.09,85.7,93.11,88.78s4.22,15,9.6,17.43c0,0-12.56-.6-22.13-16.16,0,0-8.7-4.78-14.52-5.08s-15.4-1.5-16.6-1.5S3.79,77.91,0,68.72c0,0,5.18.39,2.79-2.6S.1,63.43.1,63.43Z"/></g></g></svg>