<svg xmlns="http://www.w3.org/2000/svg" viewBox="0 0 265.12 107.5"><defs><style>.cls-1{fill:#131922;}</style></defs><g id="Layer_2" data-name="Layer 2"><g id="objects"><path class="cls-1" d="M7.13,57.24c2.94-2.94,12.75-3.87,17.38-6.71S60,32.29,65.84,29.35s11.74-5.13,17.61-5.13S104,22,104,22,117.2,2.2,123.07,0c0,0,12.48,23.48,12.48,26.42l18.33,2.2s21.29-22,25.69-22,7.34,7.34,5.14,12.48,11.53,3.67,10.9,9.54-9.43,5.13-10.9,7.34,23.48,5.13,30.09,3.66S242.68,8.81,249.28,8.07s11,1.47,6.61,10.27-11,19.08-9.54,21.28S261,49.9,262.49,54.3s7,15-4.56,13S233.8,58,224.48,58.17s-35,3.1-35,6,11-.59,11.73,3.37-5.86,8.37-3.66,12.77,5.87,10.27,1.47,10.27-24-19.81-26.31-18.71-22.12.37-25.79,3.3-32.29-1.46-32.29,2.2,5.14,3.67,2.94,11-11.74,19.08-11.74,19.08-16.14-22-15.41-28.62c0,0,.73-5.13-.73-5.13S29.51,76.68,1.63,60.54c0,0-3.67-4,0-3.46s6.6,5.66,8.81,5.66,0-2.2,0-2.2Z"/></g></g></svg>