<svg xmlns="http://www.w3.org/2000/svg" viewBox="0 0 256 411.05"><defs><style>.cls-1{fill:#2e8888;}.cls-2{fill:#3db5b4;}.cls-3{fill:#fcd821;}</style></defs><title>jellyFish1</title><g id="Layer_2" data-name="Layer 2"><g id="objects"><g id="jellyFish"><path class="cls-1" d="M233,103c0,28.64-206,28.64-206,0a103,103,0,0,1,206,0Z"/><ellipse class="cls-2" cx="96" cy="85.75" rx="51" ry="51.25"/><path class="cls-1" d="M46,125.4c-4.71,4.36-6.86,10.31-8,16.51-.56,3.12-1.24,6.44-.92,9.62.41,4,2.49,6.62,4.89,9.66,9.06,11.47-5.1,19.38-12.8,25.74-8.64,7.16-15.66,21.32-2.25,27.86,2.82,1.38,6.92,1.52,9.22,3.72,1.83,1.75,2.12,4.69,2,7.08-.31,6.85-4.81,12.85-7.45,19-3,6.88-5.09,15.45,2.05,20.49,3,2.14,6.88,3.27,10.29,4.66l7.06,2.91c1.84.75,5.22,1.46,6.56,3L55,271.41c.15,3-6.1,7.43-8.08,9.16a97.14,97.14,0,0,0-10.43,9.85c-5.77,6.78-9.7,15.21-8.28,24.3a22.59,22.59,0,0,0,4.92,10.71c1.76,2.22,5.67,5.16,6.08,8.13.46,3.4-3.26,7.47-3.67,11-.46,3.93.63,8,3.8,10.51,5.93,4.73,14.41-3.64,8.42-8.42-1.35-1.08,2.83-8.35,3.16-10.6a15.68,15.68,0,0,0-3.15-11.58c-2.33-3.26-6.08-6.06-7.44-9.92-1.62-4.61.32-9.72,2.92-13.56,5.62-8.27,15-13,20.74-21.24,2.46-3.55,4.32-8,1.64-12-2.85-4.19-9.61-5.56-14-7.38l-7.06-2.9c-2.19-.9-4.4-1.09-4.51-3.43-.11-2.16,1.93-5.5,2.81-7.33,1.26-2.58,2.64-5.1,3.82-7.73,3.4-7.52,5.17-16.37,1.36-24.14a17,17,0,0,0-8.06-8c-2.2-1.06-4.62-1.46-6.86-2.39-2.43-1-2-1.51-.72-3.62,3.92-6.23,11.54-9.5,16.66-14.61,6.72-6.69,9.82-16.19,6.46-25.35-1.81-4.94-7-8.3-6.27-13.69.64-4.82,1.54-10,5.24-13.39,5.64-5.23-2.8-13.63-8.41-8.42Z"/><path class="cls-1" d="M95,126.8c-9.66,6.62-14.39,18.59-9.89,29.78A25.06,25.06,0,0,0,94.24,168a44.38,44.38,0,0,0,6.87,3.5c1.72.77,5,1.71,6,3.37,2.2,3.71-4.5,11.55-6.39,14.63-3.18,5.21-6.43,10.39-9.19,15.83-5.33,10.47-9.54,22.73-7,34.57a20.74,20.74,0,0,0,8.17,12.73c2.74,2,10.76,4.1,9.88,8.2-.54,2.47-3.71,5.32-5.22,7.23a69.25,69.25,0,0,0-5.42,7.66c-3.17,5.37-5.29,11.58-5,17.88.52,11.58,8.65,16.77,16.38,23.81,4.36,4,4.87,7.28,3.2,12.91a71.31,71.31,0,0,1-8.81,18.37C94.25,354,91,359.37,91.4,365.85c.39,6.64,4.59,11.21,10.46,13.82a35.62,35.62,0,0,1,3.41,1.5,6.12,6.12,0,0,1,2.37,1.75c.36-1,0-.77-1.07.74a80.07,80.07,0,0,0-6.43,5.78c-4.35,4.33-7.67,9.52-7.25,15.88.51,7.61,12.42,7.66,11.91,0-.34-5,4.69-8.37,8.07-11.36,4.21-3.73,8.16-8.31,6.27-14.35-1.59-5.07-6-7.88-10.59-9.93-2.08-.93-4.61-1.57-5.23-4-.73-2.82,1.42-6,2.82-8.24,5.94-9.62,13.52-21.11,13.29-32.94-.21-10.63-8.49-15.56-15.53-21.94-9.94-9-2.8-20.25,4-28.79,3.75-4.71,7.47-9.7,6.57-16.07-.71-5-4-8.48-8.25-11-3.72-2.23-8-3.36-9.72-7.75-2-5.28-.65-11.79.89-17,3.39-11.39,10.57-21.29,16.57-31.4,3.25-5.48,6.87-11.5,5-18.12-1.42-5.07-5.64-8.21-10.16-10.41-4.93-2.39-10-3.87-12.46-9.32a12.69,12.69,0,0,1,4.67-15.6c6.28-4.31.33-14.63-6-10.28Z"/><path class="cls-1" d="M151,127.17a32.31,32.31,0,0,0-14.12,26.38c0,11.75,7.42,19.53,13.32,28.85,7.4,11.68,1.62,23.69,1.09,36.33-.49,11.43,3.68,21.83,14.27,27.14,1.48.75,3,1.34,4.56,2l1.53.66c1.52,1.08,1.71.81.59-.8a49.5,49.5,0,0,1-5,6.52c-3.85,4.41-8,8.66-11,13.73-5.53,9.4-6.51,21.63,1.41,29.95,2.22,2.33,4.87,3.87,5.57,7.23a15.08,15.08,0,0,1-.74,7.38c-1.78,5.69-5.7,10.47-8.48,15.69-4.75,8.87-6.92,20.38-.11,28.88a17.25,17.25,0,0,0,5.94,4.71c1.07.53,2.73.79,3.64,1.58,1.41.45,1.47.75.19.87a22.3,22.3,0,0,1-1.61,2.86c-3.59,5.44-9.06,9.38-12.7,14.83-6.5,9.73-5.48,25.18,7.49,28.77,7.39,2.05,10.55-9.44,3.16-11.48-4.44-1.23-2.89-7.07-1.24-9.91,2.87-5,7.68-8.59,11.22-13,3-3.71,5.93-8.34,6-13.28.05-5.37-3.87-8.75-8.37-10.75-3.77-1.68-5.76-3.16-6.14-7.51-.46-5.44,2.63-10.32,5.31-14.78,5.26-8.75,10.95-18.84,7.56-29.4-1.67-5.21-5.48-7.61-8.74-11.64s-1.85-9.51.24-13.67c4.57-9.08,15.94-15.26,18.44-25.37,3.11-12.59-15.14-11.81-19.34-20.24-4.73-9.49.46-21.64,1.15-31.46a34.71,34.71,0,0,0-4-19.28c-2.62-4.85-6.33-9-9.26-13.62-5.78-9.14-5.17-21.26,4.27-27.87,6.23-4.36.28-14.69-6-10.28Z"/><circle class="cls-3" cx="24.5" cy="120.5" r="24.5"/><path class="cls-1" d="M222.11,122.87c-16.06,6.28-30,23.12-28.2,41.26a13.75,13.75,0,0,0,6.58,10.65c3.9,2.37,8.71,2.72,11.94,6.18,6.44,6.88,4.88,17.24,1.31,25.09-4.32,9.51-12.54,17.37-13.31,28.26a20.25,20.25,0,0,0,2.64,11.9c2.62,4.32,6.76,6.2,10.87,8.76,8.95,5.6,1.76,17.2-1.33,24.29a39.28,39.28,0,0,0-3.7,13.92c-.23,5.16,1.11,10.27,2.11,15.29,1.22,6.22.91,10.37-2.86,15.57-3.12,4.3-5.52,8.81-4.65,14.3a11.85,11.85,0,0,0,2.65,6c.8.93,4.37,4.2,5.62,3.55l-1.25-3.72-.84,1.53c-1.11,1.06-1.82,3.14-2.67,4.48a92.75,92.75,0,0,1-6.2,8.66c-4.78,5.91,3.6,14.38,8.41,8.42a115.56,115.56,0,0,0,9-12.55c2.43-4,5.63-8.81,3.23-13.56a8.93,8.93,0,0,0-3.86-3.69c-2.46-1.31-2.46-.12-2.25-2.5.18-1.86,2.52-4.1,3.58-5.6a26.33,26.33,0,0,0,3.74-7c3.09-9.38-1.67-18.31-1.86-27.64-.19-9.65,7.21-17.64,8.81-27,1.5-8.76-.71-17.22-8.38-22.32-3.54-2.35-8.25-3.46-8.93-8.28s2.39-9.52,4.86-13.43c9.61-15.2,18-35.11,4.14-50.72-3.27-3.68-7.33-5.48-11.81-7.23-2.48-1-3.71-1.12-3.77-3.9a23.79,23.79,0,0,1,1.07-6.86,31.62,31.62,0,0,1,18.49-20.71c7.06-2.76,4-14.28-3.17-11.48Z"/><circle class="cls-3" cx="65.5" cy="120.5" r="24.5"/><circle class="cls-3" cx="104.5" cy="120.5" r="24.5"/><circle class="cls-3" cx="148.5" cy="120.5" r="24.5"/><circle class="cls-3" cx="191.5" cy="120.5" r="24.5"/><circle class="cls-3" cx="231.5" cy="120.5" r="24.5"/></g></g></g></svg>