<?xml version="1.0" encoding="utf-8"?>
<!-- Generator: Adobe Illustrator 24.0.1, SVG Export Plug-In . SVG Version: 6.00 Build 0)  -->
<svg version="1.1" id="Layer_1" xmlns="http://www.w3.org/2000/svg" xmlns:xlink="http://www.w3.org/1999/xlink" x="0px" y="0px"
	 viewBox="0 0 1366 768" style="enable-background:new 0 0 1366 768;" xml:space="preserve">
<style type="text/css">
	.st0{fill:url(#sea_1_);}
	.st1{fill:#131922;}
	.st2{opacity:0.8;fill:#131922;enable-background:new    ;}
	.st3{opacity:0.6;}
	.st4{opacity:0.45;}
	.st5{opacity:0.4;}
</style>
<title>projectPage</title>
<g id="bg">
	
		<linearGradient id="sea_1_" gradientUnits="userSpaceOnUse" x1="683" y1="724.64" x2="683" y2="-43.36" gradientTransform="matrix(1 0 0 -1 0 724.64)">
		<stop  offset="0" style="stop-color:#214359"/>
		<stop  offset="5.000000e-02" style="stop-color:#204055"/>
		<stop  offset="0.48" style="stop-color:#162D38"/>
		<stop  offset="0.72" style="stop-color:#13262D"/>
	</linearGradient>
	<rect id="sea" class="st0" width="1366" height="768"/>
	<path class="st1" d="M324,318"/>
	<path class="st1" d="M0,0h1366v208.7c0,0-55,3.1-41-31.7s-30,34.8-28,9.8s-27,50.2-29,15.3s-6,11.1-29,9.8s-31-37.6-55-16.7
		s-34,43.2-47,16.7s-5-15.3-33,4.2s-35,36.2-50,15.3s-24,1.4-46,0s2,9.8-22-20.9s-3-26.5-48-20.9s-58-5.6-54-34.9s14,8.4-31-5.6
		s-52-47.4-87-29.3s-42,27.9-52,0s-2-26.5-50-13.9s-92,29.3-90,1.4s5-43.2-26-16.7s-60,29.3-56,2.8s-51,55.8-41-1.4s-97,41.8-76,0
		s-65,13.9-34-8.4s-62-1.4-34,11.2s-42,36.2-53-8.4s42-30.7-16-26.5s-99-44.6-94-9.8s-53,34.8-55,0s-16-46-47-32S0,0,0,0z"/>
	<path class="st1" d="M0,768v-89.1c0,0,49.5-21.7,74.9-19.3c55.5,5.1,43.7,1,83.3,2.5c104.6,4.2,40.3,7,35.3-19.5
		c-8.2-44.3,13.9-11.9,45.4-23.7s32.8-13.5,80.8-5.1s-73.2,26.3,0,37.3s25.2-11,89.6-1.7s22.5-75.8,90.7-53.8s38,52.1,67.1,31.8
		s20.2-46.6,69.4-18.6s55.2,21.3,85.5,4.4s4.1-35.7,52-6.9s59.3,47.4,97.2,26.3s20.3-72.6,75.8-51.5s70.6,65.9,98.3,44.7
		s15.1-33.9,111.1-15.3s39.1,23.7,113.6,11s54.2-22,74.4-9.3s21.6,20,21.6,20V768H0z"/>
</g>
<g id="objects">
	<path class="st2" d="M1007.2,521l5.6-4.4l13.2,17.5l18.9-2.1l0.4,3.2l-15.9,1.8l24.4,32.1l7.5-4.1l1,8.5l10.4-1.2
		c0,0-13.2,15.7-12.6,15.2s21-4.5,21-4.5l-2.9,9.7l10.4,1.2c0,0-30.4,18.6-34.5,20s-39,10.4-51.1,1l-12-9.4l31-18.8l-7.3-10.9
		l-12.7,8.5l-0.3-2.3l11.8-7.6l-8.7-10.7l-8.3,5.6l-1-2.2l7.8-5.5l-9.6-12.7l10.3-0.2l6.8,8.8l6.4-3.8l0.7,2l-5.3,3.2l7.7,10.6
		l10.4-7l0.3,2.8l-8.7,6.3l7.3,11.1l16.8-10.3l-25.7-32.9l-13.8-0.1l-0.8-3l10.6-1.7L1007.2,521z"/>
	<path class="st2" d="M1160.5,537.5l-7.9,34.2l-4.1-1.5l-15.4,3.5l5.4,7.5l-18.7,4.3l14.6,11.3l-11.9,3.3l2.6,5.2l41.1,8.7
		c0,0,15.6-1.9,19.8-14s4.8-13.1,4.8-13.1l-30.6-13.8l6.2-31.4l-0.9-2.3l-3.1,1.8L1160.5,537.5z"/>
	<g class="st3">
		<path class="st1" d="M1259,580.9c-0.4,9.5-0.9,18.9-1.3,28.3s-1.5,18.9,0.3,27.8c0.4,2.2,1.1,4.3,1.9,6.4c0.9,2.1,1.9,4,3.1,5.9
			c2.4,3.8,5.3,7.6,7.9,11.5l3.9,6c1.3,2,2.5,4,3.8,6c2.4,4.1,4.8,8.2,7,12.4l-0.4,0.3c-3.3-3.4-6.4-7-9.4-10.7
			c-1.5-1.8-3-3.7-4.5-5.5l-4.3-5.6c-3-3.8-5.7-7.8-8.1-11.9c-2.4-4.4-4-9.2-4.7-14.1c-0.6-4.8-0.7-9.7-0.3-14.5
			c0.4-4.8,0.9-9.5,1.4-14.2c1.1-9.4,2.2-18.8,3.3-28.2L1259,580.9z"/>
	</g>
	<g class="st3">
		<path class="st1" d="M1329.1,576.7c1.2,10.6,1.6,21.2,1.2,31.8c-0.4,10.6-1.4,21.2-2.5,31.8l-1.7,15.8c-0.6,5.4-1.6,10.7-3,15.8
			c-1.5,5.3-3.7,10.3-6.5,15c-2.9,4.7-6.9,8.6-11.7,11.3l-0.3-0.4c3.7-3.6,6.7-7.9,8.9-12.6c1.1-2.3,2-4.7,2.8-7.1
			c0.4-1.2,0.7-2.5,1.1-3.7s0.6-2.5,0.9-3.8c1.1-5,2-10.1,3-15.3s1.8-10.4,2.6-15.6c1.6-10.4,3.1-20.9,4-31.4
			c1-10.5,1.3-21.1,0.8-31.6L1329.1,576.7z"/>
	</g>
	<g class="st3">
		<path class="st1" d="M1264.6,516.4c0.1,13.9,0.2,27.8,0.2,41.8v20.9c0,7,0,14,0,20.8c0,3.4,0.3,6.8,0.9,10.1
			c0.5,3.3,1.5,6.4,2.9,9.4c2.7,6.1,6.5,11.9,9.4,18.6c1.5,3.4,2.4,7,2.9,10.7c0.3,3.6,0.3,7.2,0,10.8c-0.3,3.4-0.4,6.8-0.3,10.2
			c0.1,3.4,1.1,6.7,2.9,9.6l-0.4,0.3c-2.5-2.7-4.1-6-4.8-9.6c-0.6-3.5-1-7.1-1-10.6c0-3.4-0.3-6.7-0.8-10.1
			c-0.6-3.2-1.7-6.3-3.1-9.3c-2.8-6-6.7-11.9-9.4-18.7c-1.3-3.4-2.2-7-2.7-10.7c-0.4-3.6-0.6-7.1-0.5-10.7c0.2-7,0.5-13.9,0.7-20.9
			l0.8-20.9c0.6-13.9,1.1-27.8,1.8-41.7L1264.6,516.4z"/>
	</g>
	<g class="st3">
		<path class="st1" d="M1314.5,511c-1.1,16,0,32,1.7,47.9s3.9,31.8,4.8,48c0.5,8.1,0.6,16.2,0.3,24.3c-0.3,8.2-1.4,16.3-3.3,24.2
			c-0.6,2-1.1,4-1.7,5.9s-1.2,3.9-2,5.8c-1.4,3.8-3.1,7.6-5.1,11.2l-1.5,2.7c-0.5,0.9-1.1,1.7-1.6,2.6l-1.7,2.6
			c-0.6,0.8-1.2,1.7-1.8,2.5c-2.4,3.3-5,6.4-7.5,9.5l-0.4-0.3c1.9-3.5,4.1-7,6-10.4c0.5-0.9,1-1.7,1.4-2.6l1.3-2.7
			c0.4-0.9,0.9-1.8,1.3-2.7l1.2-2.7c1.5-3.6,2.9-7.3,4.1-11.1c0.6-1.9,1.1-3.8,1.6-5.7s0.9-3.8,1.3-5.8c1.6-7.7,2.7-15.5,3.3-23.4
			c0.7-7.9,0.9-15.9,0.6-23.8c-0.4-15.9-2.2-31.9-3.3-47.9S1312,527,1314,511L1314.5,511z"/>
	</g>
	<g class="st4">
		<path class="st1" d="M1107.9,523.3c0.6,7.2,1,14.4,1.5,21.6l0.3,5.4c0,1.6,0.2,3.3,0.5,4.9c0.3,1.2,1,2.4,1.9,3.2
			c1.3,1.1,2.6,2,4,2.9c0.8,0.6,1.7,1.2,2.4,1.8l1.2,1.2c0.4,0.4,0.7,0.8,1.1,1.2c1.3,1.7,2.4,3.6,3.1,5.7c1.4,4,1.8,8.2,1.3,12.3
			c-0.2,2-0.7,4-1.3,6c-0.6,1.9-1.3,3.7-2.1,5.5c-1.6,3.4-3.3,6.7-5.2,9.9c-1.8,3.1-3.6,6.1-5.1,9.2c-1.5,3.1-2.9,6.2-4.1,9.4
			c-2.4,6.4-4,13-4.7,19.7c-0.2,1.7-0.3,3.4-0.3,5c0,0.7,0,1.6,0,2.5l0.1,2.7c0.1,3.7,0.1,7.4-0.2,11.2c-0.1,1.9-0.3,3.8-0.6,5.8
			c-0.3,2.1-0.8,4.1-1.6,6.1c-0.2,0.6-0.5,1.1-0.8,1.7c-0.4,0.6-0.8,1.2-1.3,1.8l-0.4,0.4c-0.2,0.2-0.3,0.3-0.5,0.4
			c-0.3,0.3-0.7,0.5-1.1,0.8c-0.4,0.2-0.9,0.4-1.3,0.6c-0.5,0.1-0.9,0.2-1.4,0.3c-0.5,0-0.9,0-1.4,0c-0.4,0-0.8-0.1-1.2-0.2
			c-0.2,0-0.4-0.1-0.6-0.2l-0.5-0.2c-0.3-0.1-0.6-0.3-1-0.4c-1-0.5-1.8-1.2-2.3-2.1c-0.4-0.6-0.8-1.3-1-2c-0.4-1.1-0.7-2.2-0.8-3.3
			c-0.1-1-0.2-2-0.3-3c-0.1-2-0.1-3.8,0-5.7c0.1-3.7,0.5-7.4,0.9-11c0.8-7.3,1.9-14.4,3-21.5c0.6-3.4,1.1-6.8,1.3-10.3
			c0.1-1.3-0.2-2.5-0.8-3.7c-0.8-1.1-1.9-1.9-3.2-2.4c-1.8-0.8-3.6-1.9-5.2-3.1c-1-0.8-1.7-1.8-2.3-2.9c-0.5-1.1-0.8-2.2-0.9-3.4
			c-0.1-1.9-0.1-3.9,0.1-5.8c0.1-1.8,0.3-3.7,0.5-5.5c0.9-7.3,2.7-14.5,5.4-21.4c1.3-3.4,2.9-6.8,4.6-10c1.8-3.1,3.4-6.2,4.8-9.5
			c1.4-3.1,1.9-6.5,1.6-9.9c-0.6-3.5-1.6-6.8-3.1-10c-1.5-3.3-2.8-6.7-3.8-10.2c-0.5-1.8-0.7-3.7-0.6-5.5c0.1-1.9,0.7-3.7,1.6-5.3
			l0.8,0.4c-0.8,1.5-1.2,3.3-1.3,5c0,1.7,0.2,3.5,0.8,5.1c1.1,3.4,2.5,6.7,4.2,9.8c1.7,3.3,2.9,6.8,3.6,10.5
			c0.3,1.9,0.3,3.8,0.1,5.7c-0.3,1.9-0.7,3.7-1.4,5.5c-1.3,3.4-2.8,6.8-4.5,10c-1.5,3.2-2.9,6.4-4,9.8c-2.3,6.7-3.7,13.6-4.3,20.6
			c-0.2,1.8-0.3,3.5-0.3,5.3c-0.1,1.7,0,3.3,0.1,5c0.1,0.6,0.2,1.2,0.5,1.8c0.3,0.5,0.6,0.9,1.1,1.3c1.3,0.9,2.7,1.6,4.2,2.2
			c0.9,0.4,1.8,0.9,2.7,1.5c1,0.7,1.9,1.5,2.6,2.5c1.3,2,2,4.3,2,6.6c0,1,0,2,0,3c0,0.5-0.1,1-0.1,1.4l-0.1,1.4l-0.7,5.4
			c-0.9,7.1-1.8,14.2-2.4,21.3c-0.3,3.5-0.5,7.1-0.5,10.5c0,1.7,0,3.4,0.2,5.1c0.1,0.8,0.2,1.6,0.3,2.4c0.1,0.6,0.3,1.3,0.5,1.9
			c0.1,0,0.3,0.1,0.3,0.2c0,0.1-0.1,0.3-0.2,0.3s-0.3-0.1-0.3-0.2c0-0.1,0-0.1,0-0.2c0.2,0.1,0.4,0.1,0.6,0.2
			c-0.1,0-0.3,0.1-0.1-0.1c0.1-0.1,0.2-0.3,0.3-0.5c0.1-0.3,0.2-0.5,0.3-0.8c0.5-1.4,0.8-2.9,0.9-4.4c0.2-1.6,0.3-3.3,0.3-5
			c0.1-3.4-0.1-6.9-0.3-10.4l-0.2-2.7c-0.1-0.9-0.2-1.8-0.2-2.9c0-1.9,0-3.8,0.1-5.7c0.5-7.6,2.1-15.1,4.8-22.3
			c1.3-3.5,2.8-7,4.6-10.4c1.7-3.3,3.7-6.6,5.6-9.6s3.8-6,5.3-8.9c0.8-1.5,1.4-2.9,2-4.5c0.5-1.5,0.9-3,1.2-4.5c0.6-3,0.5-6.1-0.3-9
			c-0.4-1.4-1-2.7-1.8-3.9c-0.8-1.2-1.8-2.3-3-3.2c-1.6-1.2-3-2.5-4.4-3.9c-0.8-0.9-1.5-1.8-2-2.9c-0.5-1.1-0.8-2.2-1-3.3
			c-0.2-2-0.2-3.9,0-5.9l0.3-5.4c0.5-7.2,1-14.4,1.7-21.6L1107.9,523.3z"/>
	</g>
	<g class="st4">
		<path class="st1" d="M940.5,631.8c-1.1-3.4-1.8-6.9-2.3-10.4c-0.5-3.6-0.6-7.3-0.1-11c0.1-0.9,0.3-1.9,0.5-2.8
			c0.1-0.5,0.2-1,0.4-1.4l0.5-1.4c0.4-0.9,0.8-1.8,1.3-2.7c0.2-0.5,0.5-0.9,0.8-1.3c0.3-0.4,0.6-0.9,0.9-1.3
			c0.6-0.8,1.3-1.6,2.1-2.3l1.2-1c0.4-0.3,0.8-0.6,1.2-0.9c1.6-1.1,3-2,4-2.9c0.5-0.4,0.9-0.8,1.2-1.3c0.3-0.4,0.5-0.9,0.6-1.3
			c0.4-1.3,0.5-2.7,0.5-4.1c0.1-3.3-0.1-6.7-0.2-10.2c-0.2-3.6-0.1-7.3,0.1-10.9c0.2-3.9,1.1-7.6,2.7-11.2c0.4-0.9,0.9-1.8,1.4-2.6
			c0.5-0.8,1.1-1.6,1.7-2.4c1.1-1.5,2.4-2.9,3.7-4.2c2.5-2.3,4.8-4.8,7-7.5c1.9-2.7,3.4-5.7,4.5-8.8c1.1-3.5,2.7-6.8,4.5-9.9
			c2-3.1,4.6-5.8,7.7-8c3-2.1,6.2-3.8,9.7-4.9c6.8-2.3,13.9-3.2,21-2.8v0.7c-3.5,0.1-6.9,0.5-10.3,1.1c-3.4,0.7-6.7,1.7-9.9,3
			c-6.3,2.6-11.9,6.9-15.1,12.7c-1.6,3-2.8,6.1-3.7,9.4c-0.5,1.7-1.1,3.4-1.8,5.1c-0.7,1.8-1.6,3.4-2.7,5c-2.2,2.9-4.5,5.7-7,8.3
			c-2.2,2.3-4,5-5.3,8c-1.1,3-1.6,6.1-1.6,9.3c0,3.4,0.2,6.8,0.6,10.1c0.4,3.6,0.6,7.2,0.6,10.8c0,2.1-0.3,4.3-1,6.3
			c-0.4,1.2-1,2.3-1.8,3.3c-0.7,0.9-1.6,1.7-2.5,2.4c-1.8,1.3-3.4,2.1-4.7,2.9l-1,0.6l-0.8,0.7c-0.6,0.4-1.1,0.9-1.6,1.4
			c-2.1,2.3-3.5,5-4.3,8c-0.9,3.2-1.4,6.6-1.5,9.9c-0.2,3.4-0.2,6.9-0.2,10.5L940.5,631.8z"/>
	</g>
	<path class="st1" d="M74.9,577.7c-4.5-0.2-8.9,0.2-13.3,1.2c-4.1,1-7.9,2.8-11.3,5.4c-6.5,5.1-10.6,12.8-13.7,20.8
		c-0.4,1-0.7,2-1.1,3.1l-0.5,1.5l-0.5,1.6c-0.3,1-0.7,2.1-1,3.1l-0.8,3.2c-0.6,2.1-1,4.3-1.5,6.4s-1,4.3-1.3,6.5
		c-1.6,8.8-2.4,17.7-2.4,26.6c0.1,9,0.7,18,1.8,27c0.9,9.1,2,18.2,2.5,27.4c0.6,9.2,0.3,18.5-0.7,27.7c-1.1,9.2-3.3,18.4-7.9,26.4
		l-0.8-0.4c1.9-4.1,3.3-8.4,4.2-12.8c0.9-4.4,1.5-8.9,1.8-13.4c0.5-9,0.1-18.1-1-27.1c-1-9-2.6-18-4-27c-1.5-9.1-2.5-18.3-3.1-27.6
		c-0.5-9.4-0.2-18.8,0.8-28.1c1-9.5,3.5-18.8,7.2-27.5c2-4.5,4.5-8.7,7.4-12.6l2.4-2.9l2.7-2.7c1.8-1.7,3.9-3.2,6.1-4.5
		c2.2-1.3,4.5-2.3,6.9-3c2.4-0.7,4.8-1.1,7.3-1.2c4.7-0.2,9.5,0.5,14,2L74.9,577.7z"/>
	<path class="st1" d="M120.9,556.3c0.6,7.2,1,14.4,1.5,21.6l0.3,5.4c0,1.6,0.2,3.3,0.5,4.9c0.3,1.2,1,2.4,1.9,3.2
		c1.3,1.1,2.6,2,4,2.9c0.8,0.6,1.7,1.2,2.4,1.8l1.2,1.2c0.4,0.4,0.7,0.8,1.1,1.2c1.3,1.7,2.4,3.6,3.1,5.7c1.4,4,1.8,8.2,1.3,12.3
		c-0.2,2-0.7,4-1.3,6c-0.6,1.9-1.3,3.7-2.1,5.5c-1.6,3.4-3.3,6.7-5.2,9.9c-1.8,3.1-3.6,6.1-5,9.2c-1.5,3.1-2.9,6.2-4.1,9.4
		c-2.4,6.4-4,13-4.7,19.7c-0.2,1.7-0.3,3.4-0.3,5c0,0.7,0,1.6,0,2.5l0.1,2.7c0.1,3.7,0.1,7.4-0.2,11.2c-0.1,1.9-0.3,3.8-0.6,5.8
		c-0.3,2.1-0.8,4.1-1.6,6.1c-0.2,0.6-0.5,1.1-0.8,1.7c-0.4,0.6-0.8,1.2-1.3,1.8l-0.4,0.4c-0.2,0.2-0.3,0.3-0.5,0.4
		c-0.3,0.3-0.7,0.5-1.1,0.8c-0.4,0.2-0.9,0.4-1.3,0.6c-0.5,0.1-0.9,0.2-1.4,0.3c-0.5,0-0.9,0-1.4,0c-0.4,0-0.8-0.1-1.2-0.2
		c-0.2,0-0.4-0.1-0.6-0.2l-0.5-0.2c-0.3-0.1-0.6-0.3-1-0.4c-1-0.5-1.8-1.2-2.3-2.1c-0.4-0.6-0.8-1.3-1-2c-0.4-1.1-0.7-2.2-0.8-3.3
		c-0.1-1-0.2-2-0.3-3c-0.1-2-0.1-3.8,0-5.7c0.1-3.7,0.5-7.4,0.9-11c0.8-7.3,1.9-14.4,3-21.5c0.6-3.4,1.1-6.8,1.3-10.3
		c0.1-1.3-0.2-2.5-0.8-3.7c-0.8-1.1-1.9-1.9-3.2-2.4c-1.8-0.8-3.6-1.9-5.2-3.1c-1-0.8-1.7-1.8-2.3-2.9c-0.5-1.1-0.8-2.2-0.9-3.4
		c-0.1-1.9-0.1-3.9,0-5.8c0.1-1.8,0.3-3.7,0.5-5.5c0.9-7.3,2.7-14.5,5.4-21.4c1.3-3.4,2.9-6.8,4.6-10c1.8-3.1,3.4-6.2,4.8-9.5
		c1.4-3.1,1.9-6.5,1.6-9.9c-0.6-3.5-1.6-6.8-3.1-10c-1.5-3.3-2.8-6.7-3.8-10.2c-0.5-1.8-0.7-3.7-0.6-5.5c0.1-1.9,0.7-3.7,1.6-5.3
		l0.8,0.4c-0.8,1.5-1.2,3.3-1.3,5c0,1.7,0.2,3.5,0.8,5.1c1.1,3.4,2.5,6.7,4.2,9.8c1.7,3.3,2.9,6.8,3.6,10.5c0.3,1.9,0.3,3.8,0.1,5.7
		c-0.3,1.9-0.7,3.7-1.4,5.5c-1.3,3.4-2.8,6.8-4.5,10c-1.5,3.2-2.9,6.4-4,9.8c-2.3,6.7-3.7,13.6-4.3,20.6c-0.2,1.8-0.3,3.5-0.3,5.3
		c-0.1,1.7,0,3.3,0.1,5c0.1,0.6,0.2,1.2,0.5,1.8c0.3,0.5,0.6,0.9,1.1,1.3c1.3,0.9,2.7,1.6,4.2,2.2c0.9,0.4,1.8,0.9,2.7,1.5
		c1,0.7,1.9,1.5,2.6,2.5c1.3,2,2,4.3,2,6.6c0,1,0,2,0,3c0,0.5-0.1,1-0.1,1.4l-0.1,1.4l-0.7,5.4c-0.9,7.1-1.8,14.2-2.4,21.3
		c-0.3,3.5-0.5,7.1-0.5,10.5c0,1.7,0,3.4,0.2,5.1c0.1,0.8,0.2,1.6,0.3,2.4c0.1,0.6,0.3,1.3,0.5,1.9c0,0.2,0.1,0.3,0.2,0.4
		c-0.1-0.1-0.2-0.2-0.4-0.3c0.2,0.1,0.4,0.1,0.6,0.2c-0.1,0-0.3,0.1-0.1-0.1c0.1-0.1,0.2-0.3,0.3-0.5c0.1-0.3,0.2-0.5,0.3-0.8
		c0.5-1.4,0.8-2.9,0.9-4.4c0.2-1.6,0.3-3.3,0.3-5c0.1-3.4-0.1-6.9-0.3-10.4l-0.2-2.7c-0.1-0.9-0.2-1.8-0.2-2.9c0-1.9,0-3.8,0.1-5.7
		c0.5-7.6,2.1-15.1,4.8-22.3c1.3-3.6,2.8-7.1,4.5-10.5c1.7-3.3,3.7-6.6,5.6-9.6s3.8-6,5.3-8.9c0.8-1.5,1.4-2.9,2-4.5
		c0.5-1.5,0.9-3,1.2-4.5c0.6-3,0.5-6.1-0.3-9c-0.4-1.4-1-2.7-1.8-3.9c-0.8-1.2-1.8-2.3-3-3.2c-1.6-1.2-3-2.5-4.4-3.9
		c-0.8-0.9-1.5-1.8-2-2.9c-0.5-1.1-0.8-2.2-1-3.3c-0.2-2-0.2-3.9,0-5.9l0.3-5.4c0.5-7.2,1-14.4,1.7-21.6L120.9,556.3z"/>
	<path class="st1" d="M144.5,704.8c-1.1-3.4-1.8-6.9-2.3-10.4c-0.5-3.6-0.6-7.3-0.1-11c0.1-0.9,0.3-1.9,0.6-2.8
		c0.1-0.5,0.2-1,0.4-1.4l0.5-1.4c0.4-0.9,0.8-1.8,1.3-2.7c0.2-0.5,0.5-0.9,0.8-1.3c0.3-0.4,0.6-0.9,0.9-1.3c0.6-0.8,1.3-1.6,2.1-2.3
		l1.2-1c0.4-0.3,0.8-0.6,1.2-0.9c1.6-1.1,3-2,4.1-2.9c0.5-0.4,0.9-0.8,1.2-1.3c0.3-0.4,0.5-0.9,0.6-1.3c0.4-1.3,0.5-2.7,0.5-4.1
		c0.1-3.3-0.1-6.7-0.2-10.2c-0.2-3.6-0.1-7.3,0.1-10.9c0.2-3.9,1.1-7.6,2.7-11.2c0.4-0.9,0.9-1.8,1.4-2.6c0.5-0.8,1.1-1.6,1.6-2.4
		c1.1-1.5,2.4-2.9,3.7-4.2c2.5-2.3,4.8-4.8,7-7.5c1.9-2.7,3.4-5.7,4.5-8.8c1.1-3.4,2.6-6.8,4.5-9.9c2-3.1,4.6-5.8,7.7-8
		c3-2.1,6.2-3.8,9.7-4.9c6.8-2.3,13.9-3.2,21-2.8v0.7c-3.5,0.1-6.9,0.5-10.4,1.1c-3.4,0.7-6.7,1.7-9.9,3
		c-6.3,2.6-11.9,6.9-15.1,12.7c-1.6,3-2.8,6.1-3.7,9.4c-0.6,1.7-1.1,3.4-1.9,5.1c-0.7,1.8-1.6,3.4-2.7,5c-2.2,2.9-4.5,5.7-7,8.3
		c-2.2,2.3-4,5-5.3,8c-1.1,3-1.6,6.1-1.6,9.3c0,3.4,0.2,6.8,0.6,10.1c0.4,3.6,0.6,7.2,0.6,10.8c0,2.1-0.3,4.3-1,6.3
		c-0.4,1.2-1,2.3-1.8,3.3c-0.7,0.9-1.6,1.7-2.5,2.4c-1.8,1.3-3.4,2.1-4.7,2.9l-0.9,0.6l-0.8,0.7c-0.6,0.4-1.1,0.9-1.6,1.4
		c-2.1,2.3-3.5,5-4.3,8c-0.9,3.2-1.4,6.6-1.5,9.9c-0.2,3.4-0.2,6.9-0.2,10.5L144.5,704.8z"/>
	<path class="st1" d="M94.6,745.2c2.5-23.6-4.3-47.3-19.1-65.9l-2.8-3.3l-3-3.3c-2-2.2-4-4.5-5.9-7c-2-2.5-3.6-5.2-5-8.1
		c-1.5-3-2.3-6.4-2.2-9.8c0.2-3.5,1.3-6.9,3.4-9.7c2.1-2.5,4.5-4.7,7.3-6.4c2.6-1.7,5.2-3.1,7.6-4.7c2.4-1.5,4.5-3.3,6.2-5.5
		c0.8-1.1,1.5-2.2,2.1-3.4c0.6-1.2,1-2.5,1.3-3.9c0.6-2.8,0.9-5.6,0.7-8.4c-0.2-5.8-1.3-11.6-2.1-17.6c-0.4-3-0.7-6-0.9-9.1
		c-0.2-3.1,0-6.2,0.6-9.3c0.6-3.1,1.6-6.1,3-8.8c1.4-2.8,3.1-5.4,5.1-7.7c2-2.3,4.2-4.5,6.6-6.4c2.4-1.9,5-3.5,7.6-5
		c2.7-1.4,5.5-2.6,8.4-3.6c2.9-1,5.8-1.7,8.8-2.3c11.9-2.4,23.9-2.1,35.9-1.8v0.5c-11.9,0-24,0.1-35.5,2.8c-2.9,0.7-5.7,1.5-8.5,2.5
		c-2.8,1-5.4,2.3-8,3.7c-2.5,1.5-4.9,3.1-7.2,5c-2.2,1.9-4.3,4-6.1,6.2c-1.8,2.2-3.4,4.7-4.6,7.3c-1.2,2.6-2.1,5.3-2.5,8.2
		c-0.9,5.6-0.2,11.5,0.7,17.4s2.2,11.7,2.6,17.9c0.2,3.2,0,6.3-0.7,9.4c-0.3,1.6-0.8,3.1-1.5,4.6c-0.7,1.5-1.5,2.9-2.5,4.2
		c-2,2.5-4.3,4.7-7,6.5c-2.5,1.8-5.1,3.3-7.5,4.9c-2.3,1.5-4.3,3.3-6,5.5c-1.4,2.1-2.2,4.5-2.3,7c0,2.6,0.7,5.2,1.9,7.5
		c1.3,2.5,2.8,4.9,4.5,7.1c1.7,2.3,3.7,4.5,5.6,6.7l3,3.4l2.9,3.6c7.5,9.8,12.7,21.1,15.4,33.1c1.3,5.9,2,12,2.1,18.1
		c0,6.1-0.6,12.1-1.9,18L94.6,745.2z"/>
	<g class="st5">
		<path class="st1" d="M1141.9,527.8c10.5-2.4,21.3-3.2,32-2.2c5.5,0.5,10.9,1.7,16.1,3.5l2,0.7l1.9,0.8c1.3,0.5,2.6,1.2,3.8,1.8
			s2.5,1.4,3.7,2.1c1.2,0.7,2.4,1.4,3.6,2.3c4.6,3.2,8.8,7.1,12.3,11.5c3.5,4.4,6.5,9.1,8.9,14.2c2.3,5,4.1,10.2,5.5,15.6
			c1.3,5.3,2.2,10.7,2.6,16.2c0.2,1.4,0.2,2.7,0.2,4.1s0.1,2.7,0.1,4.1l-0.1,4.1l-0.3,4.1c-0.5,5.4-1.3,10.7-2.5,15.9
			c-2.3,10.4-5.2,20.5-7.4,30.7c-1.1,5-2,10.2-2.5,15.3c-0.5,5.1-0.4,10.3,0.1,15.4c0.5,5.1,1.6,10.2,3.5,15
			c1.8,4.9,4.5,9.3,7.9,13.3l-0.7,0.6c-3.8-3.8-6.8-8.3-9-13.1c-2.2-4.9-3.7-10.1-4.5-15.4c-0.8-5.3-1.1-10.6-0.9-16
			c0.2-5.3,0.8-10.6,1.7-15.9c1.7-10.5,4.2-20.7,5.9-31c0.9-5,1.5-10.1,1.8-15.3l0.1-3.8l-0.1-3.8c0-1.3-0.1-2.5-0.2-3.8
			s-0.2-2.5-0.3-3.8c-0.7-5-1.7-9.9-3.2-14.8c-1.5-4.7-3.5-9.4-5.8-13.8c-0.6-1.1-1.2-2.1-1.8-3.2l-0.9-1.6l-1-1.5
			c-0.7-1-1.3-2.1-2.1-3s-1.5-1.9-2.3-2.9l-0.6-0.7l-0.6-0.7l-1.2-1.3l-1.2-1.3c-0.4-0.5-0.9-0.8-1.3-1.3l-2.6-2.5l-2.8-2.3
			c-0.9-0.8-1.9-1.5-2.9-2.1c-1-0.7-2-1.4-3.1-2c-1.1-0.6-2.1-1.2-3.2-1.8l-1.7-0.8l-1.7-0.8c-4.6-2-9.4-3.6-14.3-4.6
			c-9.9-2.2-20.3-2.9-30.9-3.2L1141.9,527.8z"/>
	</g>
	<g class="st5">
		<path class="st1" d="M1188.9,523.2c0.7,7.2,1.2,14.4,1.7,21.6l0.3,5.4c0.2,2,0.2,3.9,0,5.9c-0.2,1.2-0.5,2.3-1,3.3
			c-0.5,1.1-1.2,2-2,2.9c-1.4,1.4-2.8,2.7-4.4,3.9c-1.2,0.9-2.2,2-3,3.2c-0.8,1.2-1.4,2.5-1.8,3.9c-0.8,2.9-0.9,6-0.3,9
			c0.3,1.5,0.7,3,1.2,4.5c0.6,1.5,1.2,3,2,4.5c1.5,3,3.3,5.9,5.3,8.9s3.9,6.3,5.6,9.6c1.7,3.4,3.3,6.8,4.6,10.4
			c2.7,7.2,4.3,14.7,4.8,22.3c0.1,1.9,0.1,3.8,0.1,5.7c0,1.1-0.1,2-0.2,2.9l-0.2,2.7c-0.2,3.5-0.4,7-0.3,10.4c0,1.7,0.1,3.4,0.3,5
			c0.1,1.5,0.5,3,0.9,4.4c0.1,0.3,0.2,0.5,0.3,0.8c0.1,0.2,0.2,0.3,0.3,0.5c0.2,0.2,0,0.1-0.1,0.1c0.2,0,0.4-0.1,0.6-0.2
			c-0.2,0.1-0.3,0.2-0.4,0.3c0.1-0.1,0.2-0.3,0.2-0.4c0.2-0.6,0.4-1.2,0.5-1.9c0.1-0.7,0.2-1.5,0.3-2.4c0.1-1.6,0.2-3.3,0.2-5.1
			c0-3.5-0.3-7-0.5-10.5c-0.6-7.1-1.5-14.2-2.4-21.3l-0.6-5.4l-0.1-1.4c0-0.5-0.1-1-0.1-1.4c-0.1-0.9-0.1-1.9-0.1-3
			c0-2.4,0.7-4.7,2-6.6c0.7-1,1.6-1.8,2.6-2.5c0.9-0.6,1.8-1.1,2.7-1.5c1.5-0.6,2.9-1.3,4.2-2.2c0.4-0.3,0.8-0.8,1.1-1.3
			c0.3-0.6,0.5-1.2,0.5-1.8c0.1-1.7,0.2-3.3,0.1-5c0-1.8-0.1-3.5-0.3-5.3c-0.6-7-2.1-13.9-4.3-20.6c-1.1-3.3-2.5-6.6-4-9.8
			c-1.7-3.3-3.2-6.6-4.5-10c-0.6-1.8-1.1-3.6-1.4-5.5c-0.3-1.9-0.2-3.8,0.1-5.7c0.7-3.6,1.9-7.1,3.6-10.5c1.6-3.2,3-6.5,4.2-9.8
			c0.5-1.7,0.8-3.4,0.8-5.1c0-1.7-0.5-3.5-1.3-5l0.8-0.4c0.9,1.6,1.5,3.5,1.6,5.3c0.1,1.9-0.1,3.7-0.6,5.5c-1,3.5-2.3,6.9-3.8,10.2
			c-1.4,3.2-2.4,6.5-3,10c-0.3,3.4,0.2,6.8,1.6,9.9c1.4,3.2,3,6.4,4.8,9.5c1.7,3.2,3.3,6.6,4.6,10c2.7,6.9,4.5,14.1,5.4,21.4
			c0.2,1.8,0.4,3.7,0.5,5.5c0.1,1.9,0.1,3.9,0,5.8c-0.1,1.2-0.4,2.3-0.9,3.4c-0.5,1.1-1.3,2.1-2.3,2.9c-1.6,1.2-3.3,2.3-5.2,3.1
			c-1.3,0.5-2.4,1.3-3.2,2.4c-0.6,1.1-0.9,2.4-0.8,3.7c0.2,3.4,0.6,6.9,1.3,10.3c1.1,7.1,2.2,14.3,3,21.5c0.4,3.6,0.7,7.3,0.9,11
			c0.1,1.9,0.1,3.8,0,5.7c0,1-0.1,2-0.3,3c-0.2,1.1-0.4,2.3-0.8,3.3c-0.2,0.7-0.6,1.4-1,2c-0.6,0.9-1.4,1.6-2.4,2.1
			c-0.3,0.2-0.6,0.3-1,0.4l-0.5,0.2c-0.2,0.1-0.4,0.1-0.6,0.2c-0.4,0.1-0.8,0.2-1.2,0.2c-0.5,0-0.9,0-1.4,0c-0.5-0.1-1-0.2-1.4-0.3
			c-0.5-0.1-0.9-0.3-1.3-0.6c-0.4-0.2-0.8-0.5-1.1-0.8c-0.2-0.1-0.3-0.3-0.5-0.4l-0.4-0.4c-0.5-0.5-0.9-1.1-1.3-1.8
			c-0.3-0.5-0.6-1.1-0.8-1.7c-0.8-2-1.3-4-1.6-6.1c-0.3-2-0.5-3.9-0.6-5.8c-0.2-3.8-0.2-7.5-0.1-11.2l0.1-2.7c0-0.9,0.1-1.8,0-2.5
			c-0.1-1.7-0.2-3.4-0.3-5c-0.7-6.8-2.3-13.4-4.7-19.7c-1.2-3.2-2.5-6.3-4.1-9.4c-1.5-3.1-3.2-6-5-9.2c-1.9-3.2-3.7-6.5-5.3-9.9
			c-0.8-1.8-1.5-3.6-2.1-5.5c-0.6-2-1-4-1.3-6c-0.5-4.2,0-8.4,1.3-12.3c0.7-2,1.8-4,3.1-5.7c0.4-0.4,0.7-0.8,1.1-1.2l1.2-1.2
			c0.8-0.7,1.6-1.3,2.4-1.8c1.4-0.9,2.7-1.8,4-2.9c1-0.8,1.7-2,2-3.2c0.3-1.6,0.5-3.2,0.5-4.9l0.3-5.4c0.4-7.2,0.8-14.4,1.5-21.6
			L1188.9,523.2z"/>
	</g>
	<g class="st5">
		<path class="st1" d="M1240.9,718.3c-1.3-5.9-2-11.9-1.9-18c0.1-6.1,0.8-12.1,2.1-18.1c1.4-5.9,3.4-11.7,5.9-17.2
			c2.6-5.6,5.8-10.8,9.5-15.7l2.9-3.6l3-3.4c1.9-2.2,3.9-4.5,5.6-6.7c1.7-2.2,3.3-4.6,4.5-7.1c1.2-2.3,1.8-4.9,1.9-7.5
			c0-2.5-0.8-4.9-2.3-7c-1.7-2.2-3.7-4-6-5.5c-2.4-1.6-5-3.2-7.5-4.9c-2.7-1.8-5-4-7-6.5c-1-1.3-1.8-2.7-2.5-4.2
			c-0.7-1.5-1.2-3-1.5-4.6c-0.6-3.1-0.9-6.3-0.7-9.4c0.3-6.2,1.6-12.1,2.6-17.9s1.6-11.7,0.7-17.4c-0.4-2.8-1.3-5.6-2.5-8.2
			c-1.2-2.6-2.8-5.1-4.6-7.3c-1.8-2.3-3.9-4.4-6.1-6.2c-2.3-1.9-4.7-3.5-7.2-5c-2.6-1.5-5.2-2.7-8-3.7c-2.8-1-5.6-1.9-8.5-2.5
			c-11.6-2.7-23.6-2.7-35.5-2.8v-0.5c11.9-0.3,24-0.6,35.9,1.8c3,0.6,5.9,1.4,8.8,2.3c2.9,1,5.7,2.2,8.4,3.6c2.7,1.5,5.2,3.1,7.6,5
			c2.4,1.9,4.6,4,6.6,6.4c2,2.4,3.7,5,5.1,7.7c1.4,2.8,2.4,5.8,2.9,8.8c0.5,3.1,0.7,6.2,0.6,9.3c-0.1,3-0.4,6.1-0.9,9.1
			c-0.8,6-1.9,11.8-2.1,17.6c-0.1,2.8,0.1,5.6,0.7,8.4c0.3,1.3,0.8,2.6,1.3,3.9c0.6,1.2,1.3,2.4,2.1,3.4c1.7,2.1,3.8,3.9,6.1,5.4
			c2.4,1.6,5,3,7.6,4.7c2.8,1.7,5.2,3.9,7.3,6.4c2.1,2.8,3.3,6.2,3.4,9.7c0,3.4-0.7,6.7-2.2,9.8c-1.4,2.9-3,5.6-5,8.1
			c-1.9,2.5-3.9,4.8-5.9,7l-3,3.3l-2.8,3.3c-14.8,18.6-21.6,42.3-19.1,65.9L1240.9,718.3z"/>
	</g>
	<g class="st3">
		<path class="st1" d="M1291.6,491.7c5.8,28.6,6.6,58,2.6,86.8c-0.7,4.8-1.4,9.5-2.1,14.1s-1.4,9.2-1.8,13.7
			c-0.5,4.4-0.8,8.9-0.8,13.4c-0.1,4.5,0.2,9,0.4,13.7s0.7,9.3,1,14s0.7,9.3,1.4,13.5c0.3,2,0.8,4,1.4,6c0.6,1.8,1.3,3.6,2.3,5.3
			c0.5,0.8,1,1.6,1.6,2.4l2.3,2.9c1,1.2,1.8,2.5,2.5,3.9c0.4,0.8,0.8,1.7,1,2.6c0.3,1,0.3,2.1,0.2,3.2c-0.1,1-0.4,2.1-0.8,3
			c-0.4,0.8-0.9,1.6-1.5,2.3c-1,1.2-2,2-2.6,2.7c-1.4,1.4-2.6,3.1-3.4,5c-0.9,2-1.4,4.1-1.5,6.3c-0.2,2.3,0.1,4.6,0.8,6.8l-0.8,0.4
			c-2.3-4.4-2.8-9.5-1.5-14.3c0.6-2.4,1.7-4.6,3.2-6.6c0.7-1,1.6-1.9,2.2-2.8c0.7-0.9,1-1.9,1.1-3c0-1.1-0.3-2.1-0.9-3
			c-0.6-1-1.3-1.9-2.1-2.7c-0.8-0.9-1.6-1.7-2.5-2.6c-0.8-0.9-1.6-1.8-2.4-2.8c-2.8-4-4.7-8.5-5.7-13.3c-1-4.7-1.8-9.4-2.3-14.2
			c-0.6-4.7-1.2-9.5-1.6-14.2s-0.8-9.5-0.8-14.3c0-4.8,0.2-9.6,0.7-14.4c1-9.5,2.9-18.9,4.4-28.3s2.8-18.8,3.6-28.3s1.3-19,1.4-28.5
			s0.1-19-0.2-28.6L1291.6,491.7z"/>
	</g>
	<g class="st3">
		<path class="st1" d="M1310.4,482.2c3.1,9.6,4.4,19.7,5,29.7c0.2,5,0.2,10.1,0.1,15.1s-0.4,10-0.8,15c-0.7,9.9-1.8,19.7-2.7,29.4
			c-0.4,4.8-0.9,9.6-1.1,14.4s-0.5,9.5-0.6,14.3c-0.4,19.2,0.6,38.4,3.1,57.4l1,7.2l1.1,7.2c0.4,2.4,0.8,4.8,1.2,7.3
			c0.5,2.6,0.8,5.2,1,7.9c0.2,2.8-0.1,5.7-0.7,8.5c-0.3,1.4-0.8,2.7-1.4,4c-0.5,1.2-1.1,2.3-1.7,3.4c-1.1,2-2.1,4.2-2.8,6.4
			c-0.3,1-0.4,2.1-0.3,3.1c0.2,1.1,0.8,2,1.6,2.7l-0.4,0.8c-1.2-0.6-2.1-1.7-2.6-2.9c-0.4-1.2-0.6-2.6-0.4-3.9
			c0.4-2.5,1-4.9,1.9-7.3c0.9-2.3,1.6-4.6,2.1-7c0.3-2.4,0.3-4.8-0.1-7.2c-0.7-4.8-2.2-9.5-3.4-14.3c-0.6-2.4-1.1-4.8-1.7-7.2
			s-1-4.8-1.5-7.3c-3.7-19.4-5.4-39.2-5-59c0.3-9.9,1.1-19.8,2.3-29.5s2.7-19.5,4-29.3s2.5-19.5,2.9-29.4c0.6-9.8,0.2-19.6-1-29.4
			L1310.4,482.2z"/>
	</g>
</g>
</svg>
