<?xml version="1.0" encoding="utf-8"?>
<!-- Generator: Adobe Illustrator 24.0.1, SVG Export Plug-In . SVG Version: 6.00 Build 0)  -->
<svg version="1.1" id="background" xmlns="http://www.w3.org/2000/svg" xmlns:xlink="http://www.w3.org/1999/xlink" x="0px" y="0px"
	 viewBox="0 0 1366 768" style="enable-background:new 0 0 1366 768;" xml:space="preserve">
<style type="text/css">
	.st0{fill:url(#sky_1_);}
	.st1{fill:#02C2D1;}
	.st2{fill:url(#SVGID_1_);}
	.st3{fill:none;stroke:#A8D4E1;stroke-width:8;stroke-linecap:round;stroke-miterlimit:10;}
</style>
<title>projects_heroPage_copy</title>
<g id="bg">
	
		<linearGradient id="sky_1_" gradientUnits="userSpaceOnUse" x1="683" y1="2" x2="683" y2="770" gradientTransform="matrix(1 0 0 -1 0 770)">
		<stop  offset="0" style="stop-color:#FFFFFF"/>
		<stop  offset="1" style="stop-color:#A8D4E1"/>
	</linearGradient>
	<rect id="sky" class="st0" width="1366" height="768"/>
</g>
<path class="st1" d="M1362,465.6c-5.2-1.6-9.7-5.3-13-10.4c-4.7,7.7-12.1,12.8-19.7,12.8c-7.9,0-14.6-4.7-19-11.9
	c-4.7,6.3-11.3,10.3-18.1,10.3c-8.5,0-15.7-5.5-20-13.8c-4.7,6.5-11.4,10.6-18.3,10.6c-7.6,0-14.1-4.4-18.5-11.2
	c-4.7,7.7-12.1,12.8-19.7,12.8c-6.9,0-12.9-3.6-17.3-9.4c-4.7,6.7-11.5,11-18.5,11c-7.6,0-14-4.4-18.4-11.1
	c-4.7,6.7-11.6,11.1-18.6,11.1c-7.6,0-14-4.4-18.4-11.1c-4.7,6.7-11.6,11.1-18.6,11.1c-8.3,0-15.3-5.2-19.6-13.1
	c-4.6,7.8-12.2,13.1-19.9,13.1c-7.6,0-14-4.4-18.4-11.1c-4.7,6.7-11.6,11.1-18.6,11.1c-7.9,0-14.6-4.8-19-12
	c-4.7,7.3-11.9,12-19.2,12c-7.6,0-14-4.4-18.4-11.1c-4.7,6.7-11.5,11.1-18.6,11.1c-7.9,0-14.6-4.7-19-11.9
	c-4.7,6.3-11.3,10.3-18.1,10.3c-8,0-14.8-4.9-19.2-12.3c-4.6,8.3-12.3,13.9-20.3,13.9s-14.6-4.8-19-12c-4.7,7.3-11.9,12-19.2,12
	c-7.9,0-14.6-4.7-19-11.9c-4.7,6.3-11.3,10.3-18.1,10.3s-12.9-3.6-17.3-9.4c-4.7,6.7-11.5,11-18.5,11c-8.2,0-15.1-5.1-19.5-12.9
	c-4.7,6.9-11.6,11.3-18.7,11.3c-7.9,0-14.6-4.8-19-12c-4.7,7.3-11.9,12-19.2,12s-13.5-4-17.8-10.2c-4.7,6.2-11.2,10.2-18,10.2
	c-8.3,0-15.3-5.2-19.6-13.1c-4.6,7.8-12.2,13.1-19.9,13.1c-6.6,0-12.3-3.3-16.6-8.6c-4.5,5.3-10.5,8.6-16.7,8.6
	c-7.6,0-14.1-4.4-18.5-11.2c-4.7,7.7-12.1,12.8-19.7,12.8c-7.9,0-14.6-4.8-19-12c-4.7,7.3-11.9,12-19.2,12c-7.9,0-14.6-4.7-19-11.9
	c-4.7,6.3-11.3,10.3-18.1,10.3c-7.5,0-14-4.3-18.4-11c-4.6,5.8-10.9,9.5-17.4,9.5c-8,0-14.8-4.9-19.2-12.3
	c-4.6,8.3-12.4,13.9-20.3,13.9s-14.6-4.8-19-12c-4.7,7.3-11.9,12-19.2,12c-7.9,0-14.6-4.8-19-12c-4.7,7.3-11.9,12-19.2,12
	c-7.9,0-14.6-4.8-19-12c-4.7,7.3-11.9,12-19.2,12c-7.9,0-14.6-4.8-19-12c-4.7,7.3-11.9,12-19.2,12c-7.6,0-14-4.4-18.4-11.1
	c-4.7,6.7-11.6,11.1-18.6,11.1c-7.6,0-14-4.4-18.4-11.1c-4.7,6.7-11.6,11.1-18.6,11.1c-7.6,0-14-4.4-18.4-11.1
	c-4.7,6.7-11.6,11.1-18.6,11.1c-8.2,0-15.1-5.1-19.5-12.9c-4.7,6.9-11.6,11.3-18.7,11.3c-7.6,0-14.1-4.4-18.5-11.2
	c-4.7,7.7-12.1,12.8-19.7,12.8c-8.2,0-15.2-5.1-19.5-12.9c-4.7,6.9-11.6,11.3-18.7,11.3c-5,0-9.9-1.9-13.6-5.3v306.2h1366V466.4
	C1364.6,466.3,1363.3,466,1362,465.6"/>
<linearGradient id="SVGID_1_" gradientUnits="userSpaceOnUse" x1="683.7404" y1="2" x2="683.7404" y2="315.6008" gradientTransform="matrix(1 0 0 -1 0 770)">
	<stop  offset="0" style="stop-color:#145760"/>
	<stop  offset="0.42" style="stop-color:#135962"/>
	<stop  offset="0.6" style="stop-color:#125F69"/>
	<stop  offset="0.73" style="stop-color:#0F6A76"/>
	<stop  offset="0.84" style="stop-color:#0A7987"/>
	<stop  offset="0.94" style="stop-color:#058D9E"/>
	<stop  offset="1" style="stop-color:#009DB1"/>
</linearGradient>
<path class="st2" d="M1366.5,768h1V469.7c-7-0.6-12.9-4.8-17-11.2c-4.7,7.7-12.1,12.8-19.8,12.8c-7.9,0-14.6-4.7-19-11.9
	c-4.7,6.3-11.3,10.4-18.1,10.4c-8.5,0-15.7-5.5-20-13.8c-4.7,6.5-11.4,10.6-18.3,10.6c-7.6,0-14.1-4.4-18.6-11.3
	c-4.7,7.7-12.1,12.8-19.8,12.8c-6.9,0-12.9-3.6-17.3-9.4c-4.7,6.7-11.5,11-18.6,11c-7.6,0-14-4.4-18.5-11.1
	c-4.7,6.7-11.6,11.1-18.6,11.1c-7.6,0-14-4.4-18.5-11.1c-4.7,6.7-11.6,11.1-18.6,11.1c-8.3,0-15.3-5.2-19.7-13.1
	c-4.6,7.9-12.2,13.1-19.9,13.1c-7.6,0-14-4.4-18.5-11.1c-4.7,6.7-11.6,11.1-18.6,11.1c-7.9,0-14.7-4.8-19-12
	c-4.7,7.3-11.9,12-19.3,12c-7.6,0-14-4.4-18.5-11.1c-4.7,6.7-11.6,11.1-18.6,11.1c-7.9,0-14.6-4.7-19-11.9
	c-4.7,6.3-11.3,10.4-18.1,10.4c-8,0-14.8-4.9-19.2-12.3c-4.6,8.3-12.4,13.9-20.3,13.9c-8,0-14.7-4.8-19-12c-4.7,7.3-11.9,12-19.3,12
	c-7.9,0-14.6-4.7-19-11.9c-4.7,6.3-11.3,10.4-18.1,10.4s-12.9-3.6-17.3-9.4c-4.7,6.7-11.5,11-18.6,11c-8.2,0-15.2-5.1-19.6-12.9
	c-4.7,6.9-11.6,11.3-18.8,11.3c-7.9,0-14.6-4.8-19-12c-4.7,7.3-11.9,12-19.3,12c-7.4,0-13.5-4-17.9-10.2c-4.7,6.2-11.2,10.2-18,10.2
	c-8.3,0-15.3-5.2-19.7-13.1c-4.6,7.9-12.2,13.1-19.9,13.1c-6.6,0-12.4-3.3-16.7-8.6c-4.5,5.3-10.6,8.6-16.7,8.6
	c-7.6,0-14.1-4.4-18.6-11.3c-4.7,7.7-12.1,12.8-19.7,12.8c-7.9,0-14.6-4.8-19-12c-4.7,7.3-11.9,12-19.3,12c-7.9,0-14.6-4.7-19-11.9
	c-4.7,6.3-11.3,10.4-18.1,10.4c-7.5,0-14-4.3-18.4-11c-4.6,5.8-10.9,9.5-17.4,9.5c-8,0-14.8-4.9-19.2-12.3
	c-4.6,8.3-12.4,13.9-20.3,13.9c-8,0-14.6-4.8-19-12c-4.7,7.3-11.9,12-19.3,12c-7.9,0-14.6-4.8-19-12c-4.7,7.3-11.9,12-19.3,12
	c-7.9,0-14.7-4.8-19-12c-4.7,7.3-11.9,12-19.3,12c-7.9,0-14.6-4.8-19-12c-4.7,7.3-11.9,12-19.3,12c-7.6,0-14-4.4-18.4-11.1
	c-4.7,6.7-11.6,11.1-18.6,11.1c-7.6,0-14-4.4-18.4-11.1c-4.7,6.7-11.6,11.1-18.6,11.1c-7.6,0-14-4.4-18.5-11.1
	c-4.7,6.7-11.6,11.1-18.6,11.1c-8.2,0-15.2-5.1-19.6-12.9c-4.7,6.9-11.6,11.3-18.8,11.3c-7.6,0-14.1-4.4-18.6-11.3
	c-4.7,7.7-12.1,12.8-19.7,12.8c-8.2,0-15.2-5.1-19.6-12.9c-4.7,6.9-11.6,11.3-18.8,11.3c-5,0-9.9-1.9-13.6-5.3V768H1366.5"/>
<path class="st3" d="M467.5,551.5"/>
<path class="st3" d="M368.5,551.5"/>
<path class="st3" d="M484,559"/>
<path class="st3" d="M406,559"/>
<path class="st3" d="M466,567"/>
<path class="st3" d="M384,567"/>
<path class="st3" d="M1226.5,689.5"/>
<path class="st3" d="M1127.5,689.5"/>
<path class="st3" d="M1243,697"/>
<path class="st3" d="M1225,705"/>
<path class="st3" d="M1143,705"/>
<path class="st3" d="M39,689"/>
<path class="st3" d="M6,689"/>
<path class="st3" d="M54,697"/>
<path class="st3" d="M6,697"/>
</svg>
