<svg xmlns="http://www.w3.org/2000/svg" xmlns:xlink="http://www.w3.org/1999/xlink" viewBox="0 0 1367 768"><defs><style>.cls-1{fill:url(#linear-gradient);}.cls-2{fill:#131922;}</style><linearGradient id="linear-gradient" x1="683" y1="43.36" x2="683" y2="811.36" gradientTransform="matrix(1, 0, 0, -1, 0, 811.36)" gradientUnits="userSpaceOnUse"><stop offset="0" stop-color="#145760"/><stop offset="1" stop-color="#145760"/></linearGradient></defs><title>skillsPage_copy</title><g id="bg"><rect id="sea" class="cls-1" width="1366" height="768"/><path class="cls-2" d="M324,318"/><rect class="cls-2" y="275" width="1366" height="493"/><path class="cls-2" d="M711,0c-20.18,16-2,15-6,23.92s-48-3-72-1-42,28.91-74,12-39-15-49-11,24,37.87-85,24.92c-37-4.4-13.77-14.46-44-20.84C322.16,15.58,219.73,10.6,190,42.86c-45,48.83-102,42.85-139,9S.5,39.68.5,39.68L0,297.85H1366.5L1367,0Z"/></g><g id="objects"><path class="cls-2" d="M429.15,95.2c0,5.37-.23,10.72-.34,16.08l-.25,8-.33,8c-.12,2.68-.15,5.35-.15,8s-.09,5.24-.2,7.83-.16,5.15-.12,7.75.24,5.2.52,7.93l-.47.18a24.55,24.55,0,0,1-3.53-7.56,38.62,38.62,0,0,1-1.4-8.23,43.21,43.21,0,0,1,.26-8.21l1.1-8,1-8,1.08-8c.78-5.3,1.49-10.61,2.33-15.91Z"/><path class="cls-2" d="M499.19,91a178.23,178.23,0,0,1,1.65,19.19l.1,4.82v4.82l-.12,4.82-.19,4.82-.44,9.64a90.48,90.48,0,0,1-1.08,9.56c-.54,3.16-1.21,6.3-2,9.43a85.18,85.18,0,0,1-2.8,9.29l-.5-.07a89.84,89.84,0,0,1-.19-9.69c.09-3.21.25-6.4.5-9.58s.63-6.33,1.13-9.47l.74-4.71.64-4.73.52-4.74.45-4.74.41-4.75.31-4.76c.42-6.34.5-12.71.35-19.1Z"/><path class="cls-2" d="M434.71,30.76c.19,11.28.24,22.57.37,33.85l.12,33.86c.06,5.62,0,11.33.24,16.85a60,60,0,0,0,2.31,15.89c1.55,5.09,4.18,10,6.53,15.2s4.54,10.74,4.7,16.53l-.49.07c-1.58-5.43-4.39-10.17-7.31-14.94s-6.05-9.63-8.16-15.24a47.39,47.39,0,0,1-2.53-17.45c.05-2.88.2-5.72.34-8.53l.37-8.46,1.38-33.82c.54-11.28,1-22.55,1.63-33.82Z"/><path class="cls-2" d="M449.65,10.3a190.57,190.57,0,0,0-.25,21.24c.3,7.08,1,14.12,1.84,21.16,1.66,14.07,3.79,28.16,4.85,42.43.52,7.14.88,14.3.81,21.5a133.08,133.08,0,0,1-2,21.52A109.48,109.48,0,0,1,449.16,159a80.36,80.36,0,0,1-10.35,18.88l-.42-.26a122.27,122.27,0,0,0,7.52-19.72,143.92,143.92,0,0,0,4.17-20.53c.91-6.92,1.45-13.9,1.78-20.91s.37-14.06.1-21.11c-.51-14.12-2.12-28.22-3.27-42.42s-1.38-28.57.46-42.7Z"/><path class="cls-2" d="M183.11,27c-6.06.72-12,1.23-17.77,2a140.82,140.82,0,0,0-16.91,3.25c-1.36.39-2.72.72-4.05,1.16-.67.22-1.35.39-2,.61l-2,.67c-1.34.42-2.6,1-3.92,1.42s-2.59,1-3.82,1.62a52.29,52.29,0,0,0-14,9.07,66.79,66.79,0,0,0-10.87,13.06,74.7,74.7,0,0,0-7.64,15.53,93.92,93.92,0,0,0-5.57,34.68l-.9.08a90.45,90.45,0,0,1,2.18-36.12,80,80,0,0,1,6.76-17.19,73.57,73.57,0,0,1,11-15.19,68.19,68.19,0,0,1,15-11.85,54.91,54.91,0,0,1,17.94-6.35,79.59,79.59,0,0,1,36.66,2.64Z"/><path class="cls-2" d="M108.34,102.34a42.62,42.62,0,0,1-1.74-12.22,55.62,55.62,0,0,1,1.34-12.32,45.74,45.74,0,0,1,4.28-11.64c1-1.82,2-3.64,3.08-5.35s2.07-3.35,3-5c1.79-3.27,3.2-6.52,3.47-9.79s-.56-6.85-1.81-10.46-2.81-7.35-3.75-11.38a20.62,20.62,0,0,1-.57-6.23,14,14,0,0,1,.66-3.08,13.56,13.56,0,0,1,1.37-2.78l.79.43a11.4,11.4,0,0,0-.91,5.46,18.21,18.21,0,0,0,1.36,5.37c1.4,3.51,3.39,6.85,5.21,10.47a44.59,44.59,0,0,1,2.41,5.76,23,23,0,0,1,1.23,6.58c.09,4.65-1.38,8.95-3,12.75l-2.38,5.54c-.74,1.8-1.41,3.52-2,5.3L116.59,80.3c-1.29,3.52-2.53,7.09-3.7,10.75s-2.3,7.41-3.65,11.3Z"/><path class="cls-2" d="M137.08,21.57a76.23,76.23,0,0,1,2.67,11.61q.9,5.81,1.25,11.6c.05,1,.1,1.93.13,2.9s0,2,0,2.81a15,15,0,0,0,.35,3.84,6.85,6.85,0,0,0,2.22,3c1.25,1.19,3,2.43,4.6,4.23a19.14,19.14,0,0,1,3.7,6,23,23,0,0,1,1.48,6.52A29.82,29.82,0,0,1,151.6,86.6a53.77,53.77,0,0,1-5.74,10.55c-2.19,3.25-4.54,6.32-6.73,9.5l-.79-.45c3.21-7.08,7.33-13.81,9-20.94a24.57,24.57,0,0,0,.28-10.4,14.14,14.14,0,0,0-4.35-8.17,41.05,41.05,0,0,0-4.4-3,22,22,0,0,1-2.8-2.19,13.38,13.38,0,0,1-2.59-3.37,16.49,16.49,0,0,1-1.65-7.49c0-1.08,0-2,.05-3s.1-1.94.16-2.9c.29-3.86.74-7.72,1.39-11.58a75,75,0,0,1,2.79-11.58Z"/><path class="cls-2" d="M165.79,124.15c-.9-4.81-2-9.44-2.73-14.34s-1.08-10.11.31-15.48a24.05,24.05,0,0,1,3.42-7.57,39.75,39.75,0,0,1,5.15-5.87c1.79-1.7,3.5-3.27,5-4.91a22.37,22.37,0,0,0,3.68-5.32c2-4,3.24-8.8,5.85-13.39a30.69,30.69,0,0,1,10.94-10.78,43.58,43.58,0,0,1,14-5,57.92,57.92,0,0,1,14.62-.79v.7a63.16,63.16,0,0,0-7.15.7c-1.19.15-2.35.42-3.52.63s-2.32.52-3.45.86a40.38,40.38,0,0,0-12.63,5.89,26.45,26.45,0,0,0-8.74,10c-2,4-2.86,8.68-4.86,13.51a31.51,31.51,0,0,1-4,6.92c-1.57,2.09-3.24,4-4.78,5.76a55.09,55.09,0,0,0-4.16,5.21,17.88,17.88,0,0,0-1.54,2.63,12.47,12.47,0,0,0-.65,1.38l-.3.71-.24.74c-1.42,3.92-1.81,8.51-2.07,13.25s-.4,9.74-1.52,14.59Z"/><path class="cls-2" d="M71,94.84a24.37,24.37,0,0,0,3.28-11.32,41.36,41.36,0,0,0-.18-5.88q-.27-3-.8-5.94c-1.34-7.93-2.77-16.3-2.38-25a35,35,0,0,1,3-12.65,38,38,0,0,1,7.19-10.63A48.89,48.89,0,0,1,91,15.57a52.32,52.32,0,0,1,11.39-5.16l.18.47A50.79,50.79,0,0,0,83,25.11,35.4,35.4,0,0,0,76.9,35.32a31.39,31.39,0,0,0-2,11.51,66.4,66.4,0,0,0,1.44,11.94c.75,4,1.52,8.08,1.9,12.31A42.93,42.93,0,0,1,77.75,84a22.65,22.65,0,0,1-2.29,6.18,18.25,18.25,0,0,1-4.09,5Z"/><path class="cls-2" d="M461,24.89c2.14,7,2.55,13.79,2.67,20.33S463.35,58,463,64.15s-.77,12.19-1.41,18.61-1.54,13-3.88,19.94l-.89.11-1.38-9.72q-.6-4.87-1-9.79a139.35,139.35,0,0,1-.4-19.71,193.28,193.28,0,0,1,2.53-19.54l1.73-9.66c.63-3.21,1.25-6.42,1.83-9.64Z"/><path class="cls-2" d="M480.51,3.53a95.56,95.56,0,0,1,5.27,23.82c.33,4.07.52,8.16.59,12.24s-.1,8.14-.38,12.16c-1,16.14-3.5,31.58-4.78,46.83a455.07,455.07,0,0,0-1.61,46.19c.08,15.54,1.21,31.1,2.22,47.15l-.87.23q-3.12-11.47-5.25-23.19c-1.4-7.8-2.43-15.67-3.15-23.57a280.56,280.56,0,0,1-.27-47.54c1.26-15.84,4.3-31.42,6.44-47.06a213.83,213.83,0,0,0,2.07-23.55,139.8,139.8,0,0,0-1.17-23.58Z"/></g></svg>